<svg width="46" height="46" viewBox="0 0 46 46" fill="none" xmlns="http://www.w3.org/2000/svg">
<g clip-path="url(#clip0)">
<path d="M42.9695 43.9455H41.304V30.9476C41.304 30.5813 41.0072 30.2844 40.6408 30.2844C40.2745 30.2844 39.9777 30.5813 39.9777 30.9476V43.9455H36.6467V25.6231H39.9777V27.8528C39.9777 28.2191 40.2745 28.516 40.6408 28.516C41.0072 28.516 41.304 28.2191 41.304 27.8528V25.3137C41.304 24.753 40.8478 24.2969 40.2871 24.2969H36.3372C35.7765 24.2969 35.3203 24.753 35.3203 25.3137V43.9455H34.2015V33.6683C34.2015 33.1076 33.7454 32.6515 33.1847 32.6515H29.2347C28.674 32.6515 28.2179 33.1076 28.2179 33.6683V43.9455H27.0992V29.1274C27.0992 28.5667 26.643 28.1106 26.0823 28.1106H22.1323C21.5717 28.1106 21.1155 28.5667 21.1155 29.1274V43.9455H19.9967V40.4087C19.9967 40.0424 19.6999 39.7455 19.3335 39.7455C18.9672 39.7455 18.6704 40.0424 18.6704 40.4087V43.9455H15.3394V25.4782H18.6704V37.3139C18.6704 37.6802 18.9672 37.9771 19.3335 37.9771C19.6999 37.9771 19.9967 37.6802 19.9967 37.3139V25.1687C19.9967 24.608 19.5405 24.1519 18.9799 24.1519H15.0299C14.4692 24.1519 14.013 24.608 14.013 25.1687V43.9455H12.8943V33.5534C12.8943 32.9928 12.4382 32.5366 11.8775 32.5366H7.92743C7.36675 32.5366 6.91058 32.9928 6.91058 33.5534V43.9455H5.24507C4.87874 43.9455 4.58191 44.2425 4.58191 44.6087C4.58191 44.9749 4.87874 45.2719 5.24507 45.2719H42.9695C43.3358 45.2719 43.6327 44.9749 43.6327 44.6087C43.6327 44.2425 43.3357 43.9455 42.9695 43.9455ZM11.5679 43.9455H8.2369V33.8629H11.5679V43.9455ZM25.7727 43.9455H22.4417V29.4369H25.7727V43.9455ZM32.8752 43.9455H29.5442V33.9778H32.8752V43.9455Z" fill="white"/>
<path d="M10.8439 15.0346C10.8439 16.458 11.3304 17.7692 12.1441 18.8134L11.5372 19.4004C11.0669 19.0922 10.5054 18.9124 9.90241 18.9124C8.25272 18.9124 6.91057 20.2545 6.91057 21.9042C6.91057 23.5539 8.25272 24.896 9.90241 24.896C11.5521 24.896 12.8942 23.5539 12.8942 21.9042C12.8942 21.3367 12.7354 20.8056 12.4599 20.3531L13.0655 19.7674C14.1343 20.6584 15.5078 21.1956 17.0048 21.1956C18.7498 21.1956 20.3263 20.4652 21.4484 19.2956L28.4946 24.7247C28.3174 25.1065 28.2178 25.5314 28.2178 25.9794C28.2178 27.629 29.5599 28.9712 31.2096 28.9712C32.8593 28.9712 34.2014 27.629 34.2014 25.9794C34.2014 25.3769 34.0219 24.8159 33.7142 24.3459L36.7597 21.2007C37.2126 21.4768 37.7441 21.6359 38.3121 21.6359C39.9618 21.6359 41.3039 20.2938 41.3039 18.6441C41.3039 16.9944 39.9618 15.6523 38.3121 15.6523C36.6624 15.6523 35.3202 16.9944 35.3202 18.6441C35.3202 19.2465 35.4998 19.8075 35.8074 20.2775L32.762 23.4226C32.3091 23.1467 31.7776 22.9874 31.2096 22.9874C30.4864 22.9874 29.8224 23.2455 29.3045 23.6742L22.2599 18.2465C22.8341 17.3106 23.1657 16.2106 23.1657 15.0345C23.1657 14.2265 23.0104 13.439 22.7041 12.6938C22.5648 12.355 22.1776 12.1936 21.8386 12.3326C21.4999 12.4718 21.3381 12.8593 21.4774 13.1981C21.7176 13.7825 21.8394 14.4004 21.8394 15.0346C21.8394 15.9062 21.6064 16.7239 21.2012 17.4308L19.7198 16.2893C19.897 15.9074 19.9966 15.4825 19.9966 15.0345C19.9966 13.3849 18.6545 12.0427 17.0048 12.0427C15.3551 12.0427 14.0129 13.3849 14.0129 15.0345C14.0129 15.602 14.1718 16.1331 14.4473 16.5856L13.1034 17.8853C12.5173 17.0854 12.1702 16.0999 12.1702 15.0345C12.1702 14.3894 12.2979 13.7739 12.5283 13.2108H12.8922C13.4909 13.2108 13.9778 12.7237 13.9778 12.125V11.2706C14.807 10.6021 15.8593 10.1999 17.0048 10.1999C17.996 10.1999 18.9493 10.4987 19.7619 11.064C20.0625 11.2732 20.4757 11.199 20.6849 10.8984C20.8941 10.5977 20.8199 10.1844 20.5193 9.97524C19.4834 9.25451 18.2681 8.8735 17.0048 8.8735C15.9052 8.8735 14.8724 9.16397 13.9778 9.67098V7.741C13.9778 7.1423 13.4908 6.65527 12.8922 6.65527H1.50068C0.901977 6.65527 0.415039 7.1423 0.415039 7.741V12.1252C0.415039 12.7239 0.902065 13.2109 1.50068 13.2109H11.1224C10.9427 13.7875 10.8439 14.3995 10.8439 15.0346ZM9.90241 23.5697C8.98406 23.5697 8.2369 22.8225 8.2369 21.9042C8.2369 20.9858 8.98406 20.2387 9.90241 20.2387C10.8208 20.2387 11.5679 20.9858 11.5679 21.9042C11.5679 22.8225 10.8208 23.5697 9.90241 23.5697ZM38.3122 16.9786C39.2305 16.9786 39.9777 17.7257 39.9777 18.6441C39.9777 19.5624 39.2305 20.3096 38.3122 20.3096C37.3938 20.3096 36.6467 19.5624 36.6467 18.6441C36.6467 17.7257 37.3938 16.9786 38.3122 16.9786ZM31.2097 24.3139C32.128 24.3139 32.8752 25.061 32.8752 25.9794C32.8752 26.8977 32.128 27.6449 31.2097 27.6449C30.2914 27.6449 29.5442 26.8977 29.5442 25.9794C29.5442 25.061 30.2914 24.3139 31.2097 24.3139ZM17.0048 13.3691C17.9231 13.3691 18.6703 14.1163 18.6703 15.0346C18.6703 15.953 17.9231 16.7001 17.0048 16.7001C16.0864 16.7001 15.3393 15.953 15.3393 15.0346C15.3393 14.1163 16.0865 13.3691 17.0048 13.3691ZM15.37 17.5384C15.8404 17.8465 16.4018 18.0264 17.0049 18.0264C17.7281 18.0264 18.3921 17.7684 18.91 17.3396L20.3911 18.4809C19.5182 19.3387 18.3225 19.8692 17.0049 19.8692C15.8817 19.8692 14.8477 19.4831 14.0261 18.8383L15.37 17.5384ZM1.74127 11.8845V7.98151H12.6515V11.8845H1.74127Z" fill="white"/>
<path d="M4.97963 9.27002H3.38362C3.01729 9.27002 2.72046 9.56694 2.72046 9.93318C2.72046 10.2994 3.01729 10.5963 3.38362 10.5963H4.97972C5.34605 10.5963 5.64288 10.2994 5.64288 9.93318C5.64288 9.56694 5.34596 9.27002 4.97963 9.27002Z" fill="white"/>
<path d="M11.0092 9.27002H7.05098C6.68465 9.27002 6.38782 9.56694 6.38782 9.93318C6.38782 10.2994 6.68465 10.5963 7.05098 10.5963H11.0092C11.3755 10.5963 11.6723 10.2994 11.6723 9.93318C11.6723 9.56694 11.3754 9.27002 11.0092 9.27002Z" fill="white"/>
<path d="M36.8669 12.9033C36.8748 12.9196 36.8833 12.9355 36.8924 12.9511L37.7513 14.4149C37.8704 14.6177 38.0881 14.7424 38.3233 14.7424C38.5586 14.7424 38.7762 14.6177 38.8953 14.4148L39.7543 12.9509C39.7635 12.9353 39.7719 12.9194 39.7796 12.9032C42.7261 12.2317 44.8572 9.56476 44.8572 6.53376C44.8572 4.73137 44.1391 3.05295 42.8352 1.80789C41.532 0.563446 39.82 -0.0753993 38.0148 0.00709797C36.4007 0.0815489 34.8748 0.756294 33.7185 1.90701C32.5621 3.05791 31.88 4.58044 31.7981 6.19413C31.636 9.38739 33.764 12.1975 36.8669 12.9033ZM33.1226 6.26151C33.2568 3.61921 35.4325 1.45394 38.0759 1.33209C39.5159 1.26551 40.8805 1.77526 41.9192 2.76718C42.9585 3.75962 43.5308 5.09735 43.5308 6.53385C43.5308 8.96889 41.8056 11.109 39.4288 11.6226C39.0498 11.7045 38.7324 11.9706 38.5832 12.3258L38.3233 12.7689L38.0634 12.3258C37.9141 11.9707 37.596 11.7045 37.2159 11.6222C34.714 11.0805 32.9926 8.826 33.1226 6.26151Z" fill="white"/>
<path d="M37.6486 7.19702H38.998C39.3054 7.19702 39.5555 7.44717 39.5555 7.75461C39.5555 8.06214 39.3054 8.31228 38.998 8.31228H36.6207C36.2543 8.31228 35.9575 8.6092 35.9575 8.97544C35.9575 9.34169 36.2543 9.63861 36.6207 9.63861H37.6601V10.2283C37.6601 10.5945 37.957 10.8915 38.3233 10.8915C38.6896 10.8915 38.9865 10.5945 38.9865 10.2283V9.63861H38.998C40.0367 9.63861 40.8819 8.79347 40.8819 7.75461C40.8819 6.71583 40.0367 5.8707 38.998 5.8707H37.6486C37.3411 5.8707 37.091 5.62055 37.091 5.31302C37.091 5.00558 37.3411 4.75544 37.6486 4.75544H40.0259C40.3923 4.75544 40.6891 4.45852 40.6891 4.09228C40.6891 3.72603 40.3923 3.42911 40.0259 3.42911H38.9865V2.83943C38.9865 2.47319 38.6896 2.17627 38.3233 2.17627C37.957 2.17627 37.6601 2.47319 37.6601 2.83943V3.42911H37.6486C36.6099 3.42911 35.7646 4.27425 35.7646 5.31311C35.7646 6.35189 36.6099 7.19702 37.6486 7.19702Z" fill="white"/>
</g>
<defs>
<clipPath id="clip0">
<rect width="45.2718" height="45.2718" fill="white"/>
</clipPath>
</defs>
</svg>
