<svg width="44" height="45" viewBox="0 0 44 45" fill="none" xmlns="http://www.w3.org/2000/svg">
<path d="M9.83703 18.2744C9.83703 17.1123 8.89128 16.1665 7.72912 16.1665C6.56696 16.1665 5.62122 17.1123 5.62122 18.2744C5.62122 19.4366 6.56696 20.3823 7.72912 20.3823C8.89128 20.3823 9.83703 19.4366 9.83703 18.2744ZM7.72912 18.977C7.34127 18.977 7.02649 18.6616 7.02649 18.2744C7.02649 17.8873 7.34127 17.5718 7.72912 17.5718C8.11698 17.5718 8.43176 17.8873 8.43176 18.2744C8.43176 18.6616 8.11698 18.977 7.72912 18.977Z" fill="white"/>
<path d="M16.1607 16.1665C14.9985 16.1665 14.0528 17.1123 14.0528 18.2744C14.0528 19.4366 14.9985 20.3823 16.1607 20.3823C17.3229 20.3823 18.2686 19.4366 18.2686 18.2744C18.2686 17.1123 17.3229 16.1665 16.1607 16.1665ZM16.1607 18.977C15.7728 18.977 15.4581 18.6616 15.4581 18.2744C15.4581 17.8873 15.7728 17.5718 16.1607 17.5718C16.5486 17.5718 16.8633 17.8873 16.8633 18.2744C16.8633 18.6616 16.5486 18.977 16.1607 18.977Z" fill="white"/>
<path d="M8.64459 23.4261C9.02331 24.9438 10.3808 26.0034 11.9449 26.0034C13.5089 26.0034 14.8664 24.9438 15.2452 23.4261L15.6555 21.7876H8.23425L8.64459 23.4261ZM13.8525 23.1929C13.5947 24.0262 12.8253 24.5981 11.9449 24.5981C11.0645 24.5981 10.2951 24.0262 10.0372 23.1929H13.8525Z" fill="white"/>
<path d="M26.7003 35.8403C26.7003 36.6153 27.3305 37.2456 28.1055 37.2456H29.5108C30.2858 37.2456 30.9161 36.6153 30.9161 35.8403V34.4351H39.3477V33.0298H30.9161V31.6245C30.9161 30.8495 30.2858 30.2192 29.5108 30.2192H28.1055C27.3305 30.2192 26.7003 30.8495 26.7003 31.6245V33.0298H21.0792V34.4351H26.7003V35.8403ZM28.1055 31.6245H29.5108L29.5115 35.8403H28.1055V31.6245Z" fill="white"/>
<path d="M26.7002 21.7876H28.1055V23.1929H26.7002V21.7876Z" fill="white"/>
<path d="M30.9161 21.7876H32.3214V23.1929H30.9161V21.7876Z" fill="white"/>
<path d="M35.1319 21.7876H36.5372V23.1929H35.1319V21.7876Z" fill="white"/>
<path d="M25.2948 3.51904H29.5106V4.92432H25.2948V3.51904Z" fill="white"/>
<path d="M25.2948 6.32959H29.5106V7.73486H25.2948V6.32959Z" fill="white"/>
<path d="M25.2948 9.14014H29.5106V10.5454H25.2948V9.14014Z" fill="white"/>
<path d="M33.7264 3.51904H37.9422V4.92432H33.7264V3.51904Z" fill="white"/>
<path d="M33.7264 6.32959H37.9422V7.73486H33.7264V6.32959Z" fill="white"/>
<path d="M33.7264 9.14014H37.9422V10.5454H33.7264V9.14014Z" fill="white"/>
<path d="M42.1582 3.51904H40.7529V0.708496H33.8924C33.0204 0.708496 32.2145 1.0556 31.6186 1.64511C31.0228 1.0556 30.2169 0.708496 29.3449 0.708496H22.4844V7.85782C21.1754 6.08296 19.0759 4.92431 16.7059 4.92431H8.60168C6.86687 4.92431 5.23675 4.24908 4.00995 3.02228L3.40427 2.41661L2.02359 4.48657C0.699826 6.47222 0 8.78319 0 11.1708C0 12.7116 0.290189 14.2174 0.862135 15.6458L1.16357 16.4005C0.476388 16.7483 0 17.453 0 18.2744C0 19.4366 0.945749 20.3823 2.10791 20.3823H2.84638C3.01642 22.597 3.97271 24.5932 5.44473 26.0863C3.15132 26.503 1.40527 28.5104 1.40527 30.9219V36.543C1.40527 39.2551 3.61225 41.4614 6.32373 41.4614H19.8284L20.2275 43.0578C20.406 43.7731 21.0454 44.272 21.7817 44.272C22.5181 44.272 23.1575 43.7731 23.336 43.0578L23.7351 41.4614H37.2397C39.9512 41.4614 42.1582 39.2551 42.1582 36.543V30.9219C42.1582 28.2097 39.9512 26.0034 37.2397 26.0034H18.5208C19.9485 24.5194 20.8767 22.5577 21.0433 20.3823H21.7817C22.6966 20.3823 23.4695 19.7928 23.7604 18.977H29.6309C29.9211 19.7949 30.7024 20.3823 31.6186 20.3823C32.5349 20.3823 33.3162 19.7949 33.6064 18.977H42.1582C42.9332 18.977 43.5635 18.3468 43.5635 17.5718V4.92431C43.5635 4.14931 42.9332 3.51904 42.1582 3.51904ZM33.8924 2.11377H39.3476V14.7612H33.8924C33.2361 14.7612 32.6515 14.4106 32.3213 13.852V3.02298C32.6515 2.46438 33.2361 2.11377 33.8924 2.11377ZM23.8896 2.11377H29.3449C29.9941 2.11377 30.583 2.44822 30.916 2.99628V13.878C30.583 14.4268 29.9941 14.7612 29.3449 14.7612H23.8896V2.11377ZM1.40527 18.2744C1.40527 17.8873 1.72005 17.5718 2.10791 17.5718H2.81055V18.977H2.10791C1.72005 18.977 1.40527 18.6616 1.40527 18.2744ZM2.81055 36.543V30.9219C2.81055 28.9847 4.38656 27.4087 6.32373 27.4087H7.09944C7.63696 27.7466 8.21171 28.0284 8.81598 28.2504L8.56725 28.9959C6.34973 30.0148 4.825 32.1978 4.65075 34.6465L4.30997 39.4139C3.40638 38.7773 2.81055 37.7304 2.81055 36.543ZM9.12795 30.2993L11.1501 31.3104L10.0611 32.0369L9.04293 30.3408C9.07104 30.3267 9.09914 30.3127 9.12795 30.2993ZM14.7617 30.2993C14.7905 30.3127 14.8186 30.3267 14.8467 30.3408L13.8286 32.0369L12.7395 31.3104L14.7617 30.2993ZM11.9448 32.4691L12.4985 32.838L12.0994 34.435H11.7902L11.3911 32.838L11.9448 32.4691ZM11.8626 35.8403H12.0277L12.5547 40.0561H11.3356L11.8626 35.8403ZM13.3606 35.1798L13.7394 33.665L14.2762 34.0226L16.0173 31.1207C17.0565 32.0348 17.7359 33.3298 17.8371 34.7463L18.2166 40.0561H13.9698L13.3606 35.1798ZM13.7218 28.6376L13.896 29.1604L11.9448 30.1363L9.9936 29.1604L10.1679 28.6376C10.7426 28.7514 11.3363 28.814 11.9448 28.814C12.5533 28.814 13.147 28.7514 13.7218 28.6376ZM5.6773 39.9908L6.05181 34.7463C6.15299 33.3305 6.83314 32.0348 7.87164 31.1207L9.61277 34.0226L10.1496 33.665L10.5283 35.1798L9.91912 40.0561H6.32373C6.1024 40.0561 5.88739 40.0301 5.6773 39.9908ZM40.7529 30.9219V36.543C40.7529 38.4801 39.1769 40.0561 37.2397 40.0561H22.6389L21.9735 42.717C21.9293 42.8934 21.6349 42.8934 21.5906 42.717L20.9245 40.0561H19.6246L19.2382 34.6458C19.0639 32.1978 17.5392 30.0148 15.3217 28.9952L15.073 28.2497C15.6779 28.0284 16.252 27.7466 16.7895 27.408H37.2397C39.1769 27.4087 40.7529 28.9847 40.7529 30.9219ZM19.6738 19.6797C19.6738 23.9412 16.2063 27.4087 11.9448 27.4087C7.68333 27.4087 4.21582 23.9412 4.21582 19.6797V15.5194C4.21582 14.9369 4.58189 14.4078 5.12784 14.2033L8.22998 13.0398C9.17503 13.741 10.3175 14.1703 11.5275 14.2413L18.3508 14.6425C19.0927 14.6874 19.6738 15.303 19.6738 16.0463V19.6797ZM18.433 13.2407L11.6097 12.8395C9.92544 12.7397 8.40915 11.7413 7.65452 10.2313L6.3975 10.8602C6.59494 11.2558 6.83314 11.624 7.10506 11.9612L4.63389 12.888C3.5434 13.2969 2.81055 14.3544 2.81055 15.5194V16.1665H2.58359L2.16693 15.1238C1.66103 13.8619 1.40527 12.5318 1.40527 11.1708C1.40527 9.06214 2.02359 7.02028 3.19278 5.2665L3.64739 4.58424C5.04704 5.71478 6.77763 6.32959 8.60168 6.32959H16.7059C19.8923 6.32959 22.4844 8.92161 22.4844 12.1081C22.4844 12.8472 22.3452 13.5688 22.0705 14.2546L21.306 16.1665H21.0791V16.0463C21.0791 14.5603 19.9169 13.3278 18.433 13.2407ZM21.7817 18.977H21.0791V17.5718H21.7817C22.1696 17.5718 22.4844 17.8873 22.4844 18.2744C22.4844 18.6616 22.1696 18.977 21.7817 18.977ZM42.1582 17.5718H32.3213V18.2744C32.3213 18.6616 32.0065 18.977 31.6186 18.977C31.2308 18.977 30.916 18.6616 30.916 18.2744V17.5718H23.7604C23.5777 17.0603 23.206 16.6429 22.7261 16.4005L22.8195 16.1665H29.3449C30.2169 16.1665 31.0228 15.8194 31.6186 15.2299C32.2145 15.8194 33.0204 16.1665 33.8924 16.1665H40.7529V4.92431H42.1582V17.5718Z" fill="white"/>
</svg>
