<svg width="49" height="50" viewBox="0 0 49 50" fill="none" xmlns="http://www.w3.org/2000/svg">
<path d="M46.5067 30.7533L44.604 30.309C44.5036 29.8229 44.375 29.3421 44.2191 28.8704L45.6364 27.5414C45.8737 27.3192 45.9437 26.97 45.8098 26.6726C45.396 25.7581 44.8863 24.8779 44.2936 24.0548C44.1034 23.7908 43.7679 23.6767 43.4545 23.7718L41.6104 24.3317C41.278 23.9589 40.9242 23.6044 40.5499 23.272L41.1114 21.4287C41.2057 21.1175 41.0924 20.7805 40.8284 20.5903C40.4191 20.2951 39.9953 20.0205 39.5594 19.7679V6.30477C39.5594 4.20736 37.8531 2.50098 35.7556 2.50098H5.32528C3.22787 2.50098 1.52148 4.20736 1.52148 6.30477V26.0845C1.52148 28.1819 3.22787 29.8883 5.32528 29.8883H13.3688L10.8788 36.7351H6.8468C6.4261 36.7351 6.08604 37.0759 6.08604 37.4959C6.08604 39.5933 7.79242 41.2997 9.88983 41.2997H19.2814C19.3925 41.4678 19.4921 41.6435 19.6101 41.8071C19.8002 42.0711 20.1342 42.1852 20.4492 42.0901L22.2932 41.5302C22.6257 41.903 22.9795 42.2575 23.3537 42.5899L22.7923 44.4332C22.698 44.7444 22.8113 45.0814 23.0753 45.2716C23.8969 45.8642 24.7779 46.3747 25.6938 46.7886C25.9913 46.9232 26.3397 46.854 26.5626 46.6151L27.8909 45.1971C28.3611 45.353 28.8426 45.4816 29.3303 45.582L29.7745 47.4854C29.8491 47.8027 30.1161 48.0377 30.441 48.0697C30.9537 48.1206 31.4627 48.1465 31.9518 48.1465C32.441 48.1465 32.95 48.1206 33.4635 48.0704C33.7883 48.0385 34.0553 47.8034 34.1299 47.4862L34.5742 45.5828C35.0618 45.4823 35.5426 45.3538 36.0135 45.1978L37.3418 46.6159C37.5655 46.854 37.9147 46.924 38.2106 46.7893C39.1235 46.3762 40.0045 45.8658 40.8276 45.2724C41.0924 45.0822 41.2057 44.7452 41.1114 44.4332L40.5507 42.5892C40.9242 42.2567 41.2787 41.9022 41.6112 41.5294L43.4553 42.0901C43.7649 42.1852 44.1042 42.0711 44.2944 41.8071C44.8863 40.9847 45.3967 40.1045 45.8106 39.1893C45.9452 38.8926 45.8753 38.5435 45.6371 38.3205L44.2198 36.9915C44.3758 36.5198 44.5044 36.039 44.6048 35.5521L46.5074 35.1079C46.8247 35.0341 47.0598 34.7663 47.0917 34.4422C47.1412 33.931 47.167 33.422 47.167 32.9313C47.167 32.4406 47.1412 31.9317 47.0902 31.4189C47.0582 31.0949 46.8239 30.8271 46.5067 30.7533ZM5.32528 4.02249H35.7556C37.0139 4.02249 38.0379 5.04648 38.0379 6.30477V19.0254C37.7869 18.9775 37.5236 19.0528 37.3418 19.246L36.0135 20.6641C35.5434 20.5081 35.0618 20.3796 34.5742 20.2792L34.1299 18.3757C34.0553 18.0585 33.7883 17.8234 33.4635 17.7915C32.4349 17.6903 31.468 17.6903 30.4395 17.7915C30.1146 17.8234 29.8476 18.0585 29.773 18.3757L29.3287 20.2792C28.8411 20.3796 28.3603 20.5081 27.8894 20.6641L26.5611 19.246C26.3382 19.0087 25.9898 18.9387 25.6923 19.0726C24.7794 19.4857 23.8984 19.9962 23.0753 20.5895C22.8106 20.7797 22.6972 21.1167 22.7915 21.4287L23.0517 22.2807H7.60756V13.1516H15.2151V11.6301H7.60756V7.06553H33.4734V16.1946H34.9949V6.30477C34.9949 5.88483 34.6548 5.54401 34.2341 5.54401H6.8468C6.4261 5.54401 6.08604 5.88483 6.08604 6.30477V22.2807H3.043V6.30477C3.043 5.04648 4.06698 4.02249 5.32528 4.02249ZM22.8227 23.8022C22.6462 23.9787 22.4583 24.1453 22.2925 24.3317L20.5496 23.8022H22.8227ZM3.043 26.0845V23.8022H19.9387C19.8109 23.8547 19.6953 23.9369 19.6101 24.0548C19.0182 24.8772 18.5077 25.7574 18.0939 26.6726C17.9592 26.9693 18.0292 27.3185 18.2673 27.5414L19.1483 28.3668H5.32528C4.06698 28.3668 3.043 27.3428 3.043 26.0845ZM14.9869 29.8883H19.3993C19.3651 30.0283 19.3286 30.1675 19.2997 30.309L17.397 30.7533C17.0798 30.8271 16.8447 31.0949 16.8127 31.4189C16.7625 31.9317 16.7367 32.4406 16.7367 32.9313C16.7367 33.422 16.7625 33.9302 16.8135 34.4437C16.8455 34.7678 17.0805 35.0356 17.3978 35.1094L19.3004 35.5537C19.3826 35.9531 19.4967 36.3449 19.6161 36.7351H12.4977L14.9869 29.8883ZM9.88983 39.7782C8.8978 39.7782 8.05184 39.1422 7.73765 38.2566H18.3358L18.2665 38.3213C18.0292 38.5435 17.9592 38.8926 18.0931 39.1901C18.1836 39.3902 18.2962 39.5819 18.3959 39.7782H9.88983ZM45.6196 33.7545L43.7733 34.1858C43.4735 34.2558 43.2461 34.4993 43.1959 34.8028C43.0757 35.5308 42.8832 36.2505 42.6238 36.9413C42.5157 37.2289 42.5918 37.5537 42.8162 37.7637L44.1902 39.0516C43.946 39.54 43.6691 40.0163 43.3663 40.4743L41.5777 39.9303C41.2826 39.8398 40.9638 39.9372 40.769 40.1745C40.2989 40.7466 39.7694 41.2761 39.195 41.7485C38.9577 41.944 38.8618 42.2628 38.9508 42.5572L39.4948 44.3458C39.0353 44.6493 38.5598 44.9255 38.0721 45.1704L36.7849 43.7957C36.575 43.5713 36.2478 43.4952 35.9626 43.604C35.2741 43.8627 34.5544 44.0551 33.8233 44.1761C33.5198 44.2263 33.2763 44.4538 33.2063 44.7535L32.7757 46.5999C32.2158 46.6341 31.6894 46.6341 31.1295 46.5999L30.6989 44.7535C30.6289 44.4538 30.3862 44.2263 30.0819 44.1761C29.3508 44.0551 28.6319 43.8619 27.9426 43.604C27.6558 43.496 27.3295 43.5713 27.1203 43.7957L25.8331 45.1704C25.3439 44.9255 24.8677 44.6493 24.4097 44.3458L24.9544 42.558C25.0434 42.2636 24.9468 41.9448 24.7102 41.7493C24.1366 41.2776 23.6071 40.7481 23.1362 40.1753C22.9407 39.9379 22.6211 39.8413 22.3275 39.9311L20.5389 40.4743C20.2354 40.0155 19.9592 39.54 19.7143 39.0516L21.089 37.7637C21.3134 37.5537 21.3895 37.2289 21.2814 36.9413C21.022 36.2498 20.8295 35.5301 20.7093 34.802C20.6599 34.4985 20.4317 34.2551 20.1319 34.1851L18.2856 33.7537C18.2673 33.4753 18.2582 33.1999 18.2582 32.9313C18.2582 32.6628 18.2673 32.3874 18.284 32.1082L20.1304 31.6768C20.4301 31.6069 20.6576 31.3634 20.7078 31.0599C20.828 30.3311 21.0205 29.6114 21.2799 28.9214C21.3887 28.6338 21.3126 28.309 21.0882 28.0982L19.7135 26.8103C19.9577 26.3219 20.2346 25.8464 20.5374 25.3876L22.326 25.9308C22.6204 26.0198 22.9399 25.9232 23.1346 25.6866C23.6056 25.1145 24.1343 24.585 24.7087 24.1126C24.946 23.9171 25.0419 23.5983 24.9529 23.3039L24.4089 21.5154C24.8684 21.2118 25.3439 20.9357 25.8315 20.6907L27.1187 22.0654C27.3279 22.2898 27.6543 22.3652 27.9411 22.2571C28.6296 21.9985 29.3493 21.806 30.0804 21.685C30.3839 21.6348 30.6274 21.4074 30.6974 21.1076L31.1279 19.2613C31.6879 19.227 32.2143 19.227 32.7742 19.2613L33.2048 21.1076C33.2748 21.4074 33.5175 21.6348 33.8218 21.685C34.5529 21.806 35.2718 21.9992 35.961 22.2571C36.2463 22.3652 36.5735 22.2891 36.7834 22.0654L38.0706 20.6907C38.5598 20.9357 39.036 21.2118 39.494 21.5154L38.9493 23.3032C38.8603 23.5976 38.9569 23.9163 39.1935 24.1119C39.7671 24.5835 40.2966 25.113 40.7675 25.6859C40.963 25.9232 41.2818 26.0206 41.5762 25.9301L43.3647 25.3869C43.6683 25.8456 43.9444 26.3211 44.1894 26.8095L42.8147 28.0975C42.5903 28.3074 42.5142 28.6323 42.6222 28.9199C42.8817 29.6114 43.0741 30.3311 43.1943 31.0591C43.2438 31.3626 43.472 31.6061 43.7718 31.6761L45.6181 32.1074C45.6364 32.3874 45.6455 32.6628 45.6455 32.9313C45.6455 33.1999 45.6364 33.4753 45.6196 33.7545Z" fill="white"/>
<path d="M37.2772 32.9313C37.2772 29.9947 34.8877 27.606 31.9519 27.606C29.0161 27.606 26.6266 29.9947 26.6266 32.9313C26.6266 35.8678 29.0161 38.2566 31.9519 38.2566C34.8877 38.2566 37.2772 35.8678 37.2772 32.9313ZM31.9519 36.7351C29.8545 36.7351 28.1481 35.0287 28.1481 32.9313C28.1481 30.8339 29.8545 29.1275 31.9519 29.1275C34.0493 29.1275 35.7557 30.8339 35.7557 32.9313C35.7557 35.0287 34.0493 36.7351 31.9519 36.7351Z" fill="white"/>
<path d="M25.7858 28.4749L24.5541 27.5825C24.2339 28.0238 23.9524 28.497 23.7166 28.9884L25.0882 29.6465C25.2845 29.2372 25.5196 28.8423 25.7858 28.4749Z" fill="white"/>
<path d="M31.5875 25.333L31.516 23.813C30.9705 23.8389 30.425 23.9134 29.8948 24.0351L30.2364 25.5179C30.6791 25.4167 31.1333 25.3543 31.5875 25.333Z" fill="white"/>
<path d="M37.6202 25.7749L36.6738 26.9663C37.0299 27.2485 37.3631 27.565 37.6643 27.9066L38.8055 26.9008C38.4449 26.4923 38.0462 26.1134 37.6202 25.7749Z" fill="white"/>
<path d="M24.6213 34.9712L23.1545 35.3759C23.2983 35.8993 23.4931 36.4144 23.732 36.9073L25.1021 36.2447C24.9028 35.8339 24.7415 35.4048 24.6213 34.9712Z" fill="white"/>
<path d="M28.3291 26.2398L27.6026 24.9023C27.1248 25.1618 26.6676 25.4668 26.2416 25.8076L27.194 26.9944C27.5486 26.7099 27.9305 26.4558 28.3291 26.2398Z" fill="white"/>
<path d="M39.4385 34.2899L40.9364 34.5599C41.0323 34.0274 41.081 33.4797 41.081 32.9311V32.8984L39.5594 32.9311C39.5594 33.3891 39.5184 33.8463 39.4385 34.2899Z" fill="white"/>
<path d="M32.301 40.5312L32.3695 42.0512C32.9157 42.0261 33.4612 41.9531 33.9914 41.8321L33.6529 40.3486C33.2109 40.4491 32.7567 40.5107 32.301 40.5312Z" fill="white"/>
<path d="M38.1095 37.4007L39.3396 38.2961C39.6599 37.8557 39.9429 37.3832 40.1795 36.8918L38.8094 36.2314C38.6116 36.64 38.3758 37.034 38.1095 37.4007Z" fill="white"/>
<path d="M39.2787 30.8784L40.7455 30.4714C40.6001 29.9472 40.4039 29.4322 40.1635 28.9399L38.7964 29.6064C38.9957 30.0157 39.1585 30.4432 39.2787 30.8784Z" fill="white"/>
<path d="M35.5618 39.6298L36.2837 40.9688C36.7622 40.7109 37.221 40.4073 37.6478 40.0657L36.6983 38.8774C36.3423 39.1612 35.9604 39.4145 35.5618 39.6298Z" fill="white"/>
<path d="M28.3724 41.3324C28.8745 41.5469 29.3995 41.7158 29.9312 41.836L30.2652 40.3518C29.8232 40.2521 29.3873 40.1114 28.9696 39.9326L28.3724 41.3324Z" fill="white"/>
<path d="M26.2302 37.9448L25.0861 38.9475C25.4459 39.3576 25.8438 39.7372 26.2706 40.0765L27.2169 38.8859C26.8617 38.6036 26.5292 38.2872 26.2302 37.9448Z" fill="white"/>
<path d="M35.5146 24.5235C35.014 24.3105 34.4891 24.1424 33.955 24.0229L33.6218 25.5072C34.0661 25.6069 34.5028 25.7468 34.9182 25.9241L35.5146 24.5235Z" fill="white"/>
<path d="M24.4622 31.5878L22.9643 31.3208C22.8699 31.8488 22.8228 32.3904 22.8228 32.9313V32.9481L24.3443 32.9313C24.3443 32.4802 24.3846 32.0275 24.4622 31.5878Z" fill="white"/>
<path d="M28.6859 9.5708L27.6102 10.6465L29.3547 12.3909H19.7797C17.6823 12.3909 15.976 14.0973 15.976 16.1947V20.7593H17.4975V16.1947C17.4975 14.9364 18.5215 13.9125 19.7797 13.9125H29.3547L27.6102 15.6569L28.6859 16.7326L31.729 13.6896C32.0264 13.3921 32.0264 12.9113 31.729 12.6138L28.6859 9.5708Z" fill="white"/>
<path d="M9.12915 8.58691H10.6507V10.1084H9.12915V8.58691Z" fill="white"/>
<path d="M12.1721 8.58691H13.6936V10.1084H12.1721V8.58691Z" fill="white"/>
<path d="M15.2152 8.58691H16.7367V10.1084H15.2152V8.58691Z" fill="white"/>
</svg>
