<svg width="52" height="52" viewBox="0 0 52 52" fill="none" xmlns="http://www.w3.org/2000/svg">
<path d="M51.9043 12.3308C51.7253 11.6653 51.2887 11.0979 50.6913 10.7539C50.0934 10.4082 49.3826 10.3147 48.7158 10.4937C48.0498 10.6731 47.4824 11.1093 47.1385 11.7067L46.7052 12.4607C46.2935 12.2242 45.7676 12.3634 45.5269 12.773L43.3259 16.5246L42.5719 16.0914C42.3722 15.9759 42.1344 15.9445 41.9118 16.0046C41.6889 16.0651 41.4993 16.2115 41.3847 16.4121C41.1498 16.8263 41.2928 17.3526 41.7054 17.5904L42.4593 18.0237L35.0939 30.7875L33.2742 35.649L32.4076 37.269C31.9003 38.1516 31.9545 39.2487 32.5464 40.0768L30.5968 42.4682L30.0509 41.0994C29.8047 40.4893 29.2348 40.0713 28.5794 40.0201C27.9236 39.9684 27.2953 40.2925 26.9572 40.8565L26.6454 41.385L26.3509 37.9189C26.2832 37.099 25.6481 36.4398 24.8315 36.3407C24.0145 36.2422 23.2411 36.7317 22.98 37.5119L20.8484 43.9067C20.6995 44.359 20.9432 44.8464 21.3942 44.9987C21.4788 45.0381 21.5698 45.0618 21.6629 45.0677C22.0352 45.069 22.3669 44.8316 22.4863 44.4787L24.609 38.0839L24.9123 41.6016C24.975 42.3522 25.5144 42.9763 26.2481 43.1464C26.9817 43.3165 27.7408 42.9932 28.1271 42.3471L28.4478 41.8183L28.9851 43.179C29.2132 43.7523 29.729 44.1614 30.3395 44.2524C30.95 44.3434 31.5627 44.1026 31.9486 43.6207L33.9676 41.0647C34.191 41.1231 34.4212 41.1523 34.6522 41.1514C35.5809 41.1586 36.4432 40.6695 36.9137 39.8686L37.7802 38.4216L41.0817 34.4097L48.525 21.4898L49.2789 21.923C49.4799 22.0381 49.6263 22.2281 49.686 22.4519C49.7461 22.674 49.7147 22.911 49.5997 23.1103L46.1336 29.1154C46.0028 29.3125 45.9584 29.5546 46.0109 29.7856C46.0634 30.0162 46.2076 30.2155 46.4107 30.3369C46.6104 30.4528 46.8482 30.4841 47.0708 30.424C47.2937 30.3635 47.4833 30.2171 47.598 30.0166L51.064 24.0115C51.4097 23.4136 51.5032 22.7028 51.3238 22.036C51.1444 21.37 50.7082 20.8026 50.1108 20.4587L49.3568 20.0254L51.5231 16.2733C51.7596 15.8616 51.6204 15.3361 51.2113 15.095L51.6445 14.341C51.9995 13.7338 52.0934 13.0086 51.9043 12.3308ZM48.6375 12.5732C48.7522 12.3727 48.9426 12.2259 49.1664 12.1662C49.389 12.1112 49.6242 12.1421 49.8248 12.253C50.0257 12.3676 50.1721 12.558 50.2322 12.7814C50.2872 13.004 50.2563 13.2392 50.1455 13.4398L49.7122 14.1937L48.2043 13.3272L48.6375 12.5732ZM36.827 36.7668L36.3937 36.5155L35.1113 35.77L36.3417 32.4774L39.0711 34.0543L36.827 36.7668ZM34.2274 39.2707C33.8614 39.0156 33.7489 38.5248 33.9676 38.1356L34.4009 37.382L35.9084 38.2485L35.4752 38.9936C35.3537 39.2043 35.1498 39.3541 34.9124 39.407C34.6751 39.4595 34.4267 39.4104 34.2274 39.2707ZM40.0591 32.6335L37.0609 30.9005L43.9931 18.8902L46.9912 20.6232L40.0591 32.6335ZM47.8577 19.1242L44.8596 17.3911L46.5927 14.393L49.5908 16.1261L47.8577 19.1242Z" fill="black"/>
<path d="M13.6734 38.8375L10.6063 41.8965L8.76922 40.0594C8.43116 39.7235 7.88536 39.7235 7.5473 40.0594C7.38313 40.2223 7.29089 40.4436 7.29089 40.6746C7.29089 40.9056 7.38313 41.1273 7.5473 41.2898L9.38442 43.1269C9.70936 43.4493 10.1485 43.63 10.6063 43.6296C11.0667 43.6321 11.5097 43.4515 11.8367 43.1269L14.8954 40.0594C15.1898 39.7154 15.17 39.2031 14.8501 38.8832C14.5298 38.5629 14.0174 38.543 13.6734 38.8375Z" fill="black"/>
<path d="M3.46606 41.1684C3.46606 45.2366 6.76375 48.5338 10.8315 48.5338C14.8992 48.5338 18.1969 45.2366 18.1969 41.1684C18.1969 40.6899 17.8089 40.3019 17.3304 40.3019C16.8518 40.3019 16.4639 40.6899 16.4639 41.1684C16.4639 44.2791 13.9421 46.8008 10.8315 46.8008C7.72081 46.8008 5.1991 44.2791 5.1991 41.1684C5.1991 38.0577 7.72081 35.536 10.8315 35.536C12.0509 35.5326 13.2377 35.9282 14.2108 36.6628C14.5937 36.95 15.137 36.8722 15.4239 36.4893C15.7111 36.1064 15.6337 35.5635 15.2508 35.2762C13.0189 33.6024 10.0327 33.3333 7.5376 34.5807C5.04213 35.8284 3.46606 38.3789 3.46606 41.1684Z" fill="black"/>
<path d="M31.1946 6.9408C31.6731 6.9408 32.0611 6.55324 32.0611 6.07428C32.0611 5.59575 31.6731 5.20776 31.1946 5.20776H8.6651C8.18657 5.20776 7.79858 5.59575 7.79858 6.07428V9.54036C7.79858 10.0193 8.18657 10.4069 8.6651 10.4069H31.1946C31.6731 10.4069 32.0611 10.0193 32.0611 9.54036C32.0611 9.06183 31.6731 8.67384 31.1946 8.67384H9.53162V6.9408H31.1946Z" fill="black"/>
<path d="M11.2648 12.1399C10.7863 12.1399 10.3983 12.5279 10.3983 13.0064C10.3983 13.4854 10.7863 13.8729 11.2648 13.8729H28.5952C29.0738 13.8729 29.4617 13.4854 29.4617 13.0064C29.4617 12.5279 29.0738 12.1399 28.5952 12.1399H11.2648Z" fill="black"/>
<path d="M33.7943 18.2056H14.7309C14.2524 18.2056 13.8644 18.5936 13.8644 19.0721C13.8644 19.551 14.2524 19.9386 14.7309 19.9386H33.7943C34.2729 19.9386 34.6608 19.551 34.6608 19.0721C34.6608 18.5936 34.2729 18.2056 33.7943 18.2056Z" fill="black"/>
<path d="M25.129 24.2711C25.129 23.7925 24.741 23.4045 24.2625 23.4045H6.93207C6.45354 23.4045 6.06555 23.7925 6.06555 24.2711C6.06555 24.75 6.45354 25.1376 6.93207 25.1376H24.2625C24.741 25.1376 25.129 24.75 25.129 24.2711Z" fill="black"/>
<path d="M33.7943 23.4045H27.7287C27.2502 23.4045 26.8622 23.7925 26.8622 24.2711C26.8622 24.75 27.2502 25.1376 27.7287 25.1376H33.7943C34.2729 25.1376 34.6609 24.75 34.6609 24.2711C34.6609 23.7925 34.2729 23.4045 33.7943 23.4045Z" fill="black"/>
<path d="M15.5973 29.4701C16.0758 29.4701 16.4638 29.0825 16.4638 28.6036C16.4638 28.125 16.0758 27.7371 15.5973 27.7371H6.93207C6.45354 27.7371 6.06555 28.125 6.06555 28.6036C6.06555 29.0825 6.45354 29.4701 6.93207 29.4701H15.5973Z" fill="black"/>
<path d="M19.0634 29.4701H25.1291C25.6076 29.4701 25.9956 29.0825 25.9956 28.6036C25.9956 28.125 25.6076 27.7371 25.1291 27.7371H19.0634C18.5849 27.7371 18.1969 28.125 18.1969 28.6036C18.1969 29.0825 18.5849 29.4701 19.0634 29.4701Z" fill="black"/>
<path d="M38.9934 39.8687C38.5148 39.8687 38.1268 40.2567 38.1268 40.7352V49.4004C38.1268 49.8793 37.7388 50.2669 37.2603 50.2669H2.59956C2.12103 50.2669 1.73304 49.8793 1.73304 49.4004V2.60835C1.73304 2.12981 2.12103 1.74183 2.59956 1.74183H37.2603C37.7388 1.74183 38.1268 2.12981 38.1268 2.60835V18.8818C38.1268 19.3603 38.5148 19.7483 38.9934 19.7483C39.4719 19.7483 39.8599 19.3603 39.8599 18.8818V2.60835C39.8599 1.17275 38.6959 0.00878906 37.2603 0.00878906H2.59956C1.16396 0.00878906 0 1.17275 0 2.60835V49.4004C0 50.8364 1.16396 51.9999 2.59956 51.9999H37.2603C38.6959 51.9999 39.8599 50.8364 39.8599 49.4004V40.7352C39.8599 40.2567 39.4719 39.8687 38.9934 39.8687Z" fill="black"/>
</svg>
