<svg width="96" height="58" viewBox="0 0 96 58" fill="none" xmlns="http://www.w3.org/2000/svg">
<rect x="42" y="12" width="54" height="32" rx="3" fill="#F9E850"/>
<g filter="url(#filter0_d)">
<path d="M69.936 27.216C68.208 26.688 67.344 25.56 67.344 23.832C67.344 22.408 67.944 21.28 69.144 20.448C70.36 19.616 71.984 19.2 74.016 19.2C74.8 19.2 75.56 19.28 76.296 19.44C77.032 19.6 77.744 19.848 78.432 20.184C79.12 20.504 79.672 20.976 80.088 21.6C80.504 22.224 80.712 22.952 80.712 23.784C80.712 24.68 80.488 25.424 80.04 26.016C79.608 26.608 78.976 27.008 78.144 27.216C80.32 27.76 81.408 29.032 81.408 31.032C81.408 31.96 81.184 32.776 80.736 33.48C80.304 34.184 79.72 34.728 78.984 35.112C78.264 35.48 77.496 35.76 76.68 35.952C75.864 36.128 75.016 36.216 74.136 36.216C73.416 36.216 72.728 36.168 72.072 36.072C71.416 35.992 70.744 35.832 70.056 35.592C69.384 35.352 68.8 35.048 68.304 34.68C67.808 34.312 67.4 33.824 67.08 33.216C66.776 32.608 66.624 31.912 66.624 31.128C66.624 29 67.728 27.696 69.936 27.216ZM73.992 22.44C73.208 22.44 72.592 22.592 72.144 22.896C71.696 23.2 71.472 23.624 71.472 24.168C71.472 24.728 71.696 25.168 72.144 25.488C72.608 25.792 73.256 25.944 74.088 25.944C74.872 25.944 75.488 25.784 75.936 25.464C76.384 25.128 76.608 24.68 76.608 24.12C76.608 23 75.736 22.44 73.992 22.44ZM73.968 28.8C73.12 28.8 72.464 28.976 72 29.328C71.536 29.664 71.304 30.144 71.304 30.768C71.304 31.408 71.544 31.904 72.024 32.256C72.504 32.608 73.184 32.784 74.064 32.784C74.912 32.784 75.568 32.616 76.032 32.28C76.496 31.928 76.728 31.432 76.728 30.792C76.728 30.168 76.48 29.68 75.984 29.328C75.504 28.976 74.832 28.8 73.968 28.8Z" fill="white"/>
</g>
<path d="M51.6562 51.6562V6.34375C51.6552 5.38267 51.2729 4.46127 50.5933 3.78168C49.9137 3.10209 48.9923 2.71983 48.0312 2.71875H9.96875C9.00767 2.71983 8.08627 3.10209 7.40668 3.78168C6.72709 4.46127 6.34483 5.38267 6.34375 6.34375V36.25H8.15625V33.5312H17.2188V36.25H19.0312V33.5312H28.0938V36.25H29.9062V33.5312H38.9688V38.9688H33.5312V40.7812H38.9688V46.2188H33.5312V48.0312H38.9688V51.6562C38.9698 52.6173 39.3521 53.5387 40.0317 54.2183C40.7113 54.8979 41.6327 55.2802 42.5938 55.2812H48.0312C48.9923 55.2802 49.9137 54.8979 50.5933 54.2183C51.2729 53.5387 51.6552 52.6173 51.6562 51.6562ZM38.9688 17.2188H29.9062V11.7812H38.9688V17.2188ZM40.7812 11.7812H49.8438V17.2188H40.7812V11.7812ZM29.9062 9.96875V4.53125H38.9688V9.96875H29.9062ZM28.0938 9.96875H19.0312V4.53125H28.0938V9.96875ZM28.0938 11.7812V17.2188H19.0312V11.7812H28.0938ZM17.2188 17.2188H8.15625V11.7812H17.2188V17.2188ZM17.2188 19.0312V24.4688H8.15625V19.0312H17.2188ZM19.0312 19.0312H28.0938V24.4688H19.0312V19.0312ZM29.9062 19.0312H38.9688V24.4688H29.9062V19.0312ZM40.7812 19.0312H49.8438V24.4688H40.7812V19.0312ZM49.8438 26.2812V31.7188H40.7812V26.2812H49.8438ZM49.8438 6.34375V9.96875H40.7812V4.53125H48.0312C48.5118 4.53182 48.9725 4.72296 49.3123 5.06275C49.652 5.40253 49.8432 5.86322 49.8438 6.34375ZM9.96875 4.53125H17.2188V9.96875H8.15625V6.34375C8.15682 5.86322 8.34796 5.40253 8.68775 5.06275C9.02753 4.72296 9.48822 4.53182 9.96875 4.53125ZM8.15625 31.7188V26.2812H17.2188V31.7188H8.15625ZM19.0312 31.7188V26.2812H28.0938V31.7188H19.0312ZM29.9062 31.7188V26.2812H38.9688V31.7188H29.9062ZM40.7812 33.5312H49.8438V38.9688H40.7812V33.5312ZM49.8438 40.7812V46.2188H40.7812V40.7812H49.8438ZM40.7812 51.6562V48.0312H49.8438V51.6562C49.8432 52.1368 49.652 52.5975 49.3123 52.9373C48.9725 53.277 48.5118 53.4682 48.0312 53.4688H42.5938C42.1132 53.4682 41.6525 53.277 41.3127 52.9373C40.973 52.5975 40.7818 52.1368 40.7812 51.6562Z" fill="black"/>
<path d="M9.96875 6.34375H11.7812V8.15625H9.96875V6.34375Z" fill="black"/>
<path d="M13.5938 6.34375H15.4062V8.15625H13.5938V6.34375Z" fill="black"/>
<path d="M20.8438 6.34375H26.2812V8.15625H20.8438V6.34375Z" fill="black"/>
<path d="M31.7188 6.34375H37.1562V8.15625H31.7188V6.34375Z" fill="black"/>
<path d="M42.5938 6.34375H48.0312V8.15625H42.5938V6.34375Z" fill="black"/>
<path d="M31.7188 51.6563V41.6875C31.7177 40.7265 31.3354 39.8051 30.6558 39.1255C29.9762 38.4459 29.0548 38.0636 28.0938 38.0625H14.8753L13.3283 36.5155C13.2442 36.4313 13.1443 36.3645 13.0343 36.319C12.9244 36.2734 12.8065 36.25 12.6875 36.25C12.5685 36.25 12.4506 36.2734 12.3407 36.319C12.2307 36.3645 12.1308 36.4313 12.0467 36.5155L10.4997 38.0625H6.34375C5.38267 38.0636 4.46127 38.4459 3.78168 39.1255C3.10209 39.8051 2.71983 40.7265 2.71875 41.6875V51.6563C2.71983 52.6174 3.10209 53.5388 3.78168 54.2183C4.46127 54.8979 5.38267 55.2802 6.34375 55.2813H28.0938C29.0548 55.2802 29.9762 54.8979 30.6558 54.2183C31.3354 53.5388 31.7177 52.6174 31.7188 51.6563ZM4.53125 51.6563V41.6875C4.53182 41.207 4.72296 40.7463 5.06275 40.4065C5.40253 40.0667 5.86322 39.8756 6.34375 39.875H10.875C10.994 39.875 11.1119 39.8516 11.2218 39.8061C11.3318 39.7605 11.4317 39.6938 11.5158 39.6096L12.6875 38.4378L13.8592 39.6096C13.9433 39.6938 14.0432 39.7605 14.1532 39.8061C14.2631 39.8516 14.381 39.875 14.5 39.875H28.0938C28.5743 39.8756 29.035 40.0667 29.3748 40.4065C29.7145 40.7463 29.9057 41.207 29.9062 41.6875V51.6563C29.9057 52.1368 29.7145 52.5975 29.3748 52.9373C29.035 53.2771 28.5743 53.4682 28.0938 53.4688H6.34375C5.86322 53.4682 5.40253 53.2771 5.06275 52.9373C4.72296 52.5975 4.53182 52.1368 4.53125 51.6563Z" fill="black"/>
<path d="M9.0625 42.5938H10.875V44.4062H9.0625V42.5938Z" fill="black"/>
<path d="M12.6875 42.5938H27.1875V44.4062H12.6875V42.5938Z" fill="black"/>
<path d="M7.25 46.2188H27.1875V48.0312H7.25V46.2188Z" fill="black"/>
<path d="M7.25 49.8438H23.5625V51.6562H7.25V49.8438Z" fill="black"/>
<defs>
<filter id="filter0_d" x="62.624" y="19.2002" width="22.784" height="25.016" filterUnits="userSpaceOnUse" color-interpolation-filters="sRGB">
<feFlood flood-opacity="0" result="BackgroundImageFix"/>
<feColorMatrix in="SourceAlpha" type="matrix" values="0 0 0 0 0 0 0 0 0 0 0 0 0 0 0 0 0 0 127 0"/>
<feOffset dy="4"/>
<feGaussianBlur stdDeviation="2"/>
<feColorMatrix type="matrix" values="0 0 0 0 0 0 0 0 0 0 0 0 0 0 0 0 0 0 0.1 0"/>
<feBlend mode="normal" in2="BackgroundImageFix" result="effect1_dropShadow"/>
<feBlend mode="normal" in="SourceGraphic" in2="effect1_dropShadow" result="shape"/>
</filter>
</defs>
</svg>
