<svg width="100" height="53" viewBox="0 0 100 53" fill="none" xmlns="http://www.w3.org/2000/svg">
<rect x="46" y="12" width="54" height="32" rx="3" fill="#F9E850"/>
<g filter="url(#filter0_d)">
<path d="M84.928 23.784H80.512C80.288 22.92 79.672 22.488 78.664 22.488C78.136 22.488 77.68 22.584 77.296 22.776C76.928 22.968 76.632 23.248 76.408 23.616C76.2 23.984 76.04 24.36 75.928 24.744C75.816 25.112 75.728 25.544 75.664 26.04C76.672 25.224 77.896 24.816 79.336 24.816C81.128 24.816 82.528 25.28 83.536 26.208C84.56 27.136 85.072 28.432 85.072 30.096C85.072 31.968 84.416 33.456 83.104 34.56C81.792 35.664 80.192 36.216 78.304 36.216C75.936 36.216 74.144 35.456 72.928 33.936C71.712 32.416 71.104 30.472 71.104 28.104C71.104 26.856 71.248 25.712 71.536 24.672C71.824 23.616 72.256 22.68 72.832 21.864C73.408 21.032 74.192 20.384 75.184 19.92C76.176 19.44 77.32 19.2 78.616 19.2C80.28 19.2 81.664 19.576 82.768 20.328C83.872 21.08 84.592 22.232 84.928 23.784ZM79.936 28.488C79.488 28.024 78.928 27.792 78.256 27.792C77.584 27.792 77.024 28.016 76.576 28.464C76.144 28.912 75.928 29.48 75.928 30.168C75.928 30.84 76.144 31.4 76.576 31.848C77.024 32.28 77.584 32.496 78.256 32.496C78.928 32.496 79.488 32.272 79.936 31.824C80.384 31.376 80.608 30.816 80.608 30.144C80.608 29.488 80.384 28.936 79.936 28.488Z" fill="white"/>
</g>
<g clip-path="url(#clip0)">
<path d="M52.1634 8.78574L50.5734 0.768608C50.4783 0.290062 50.0134 -0.0207608 49.5349 0.0741975C49.5348 0.0741975 49.5347 0.0741975 49.5346 0.0743079L5.76894 8.77602H4.41655C3.92873 8.77602 3.53322 9.17154 3.53322 9.65936V14.1644C1.47428 14.5804 -0.00463879 16.3921 -0.000111706 18.4927V48.526C0.00275913 50.964 1.97855 52.9398 4.41655 52.9427H52.1165C52.6044 52.9427 52.9999 52.5472 52.9999 52.0594V9.65936C52.9955 9.19296 52.6291 8.81036 52.1634 8.78574ZM49.0107 1.97966L50.3605 8.77602H14.8284L49.0107 1.97966ZM2.5324 16.6183L2.53682 16.6218C2.81883 16.342 3.15902 16.1279 3.53322 15.9946V20.981C3.51379 20.9749 3.49435 20.9704 3.47492 20.9634C3.36086 20.918 3.25022 20.8645 3.14367 20.8035C3.09067 20.7743 3.03414 20.7514 2.9829 20.7152C2.82413 20.6152 2.67617 20.4992 2.54124 20.3689C1.50586 19.3344 1.50189 17.6575 2.5324 16.6183ZM51.2332 40.576H38.8665V33.5094H51.2332V40.576ZM51.2332 31.7427H37.9832C37.4954 31.7427 37.0999 32.1382 37.0999 32.626V41.4594C37.0999 41.9472 37.4954 42.3427 37.9832 42.3427H51.2332V51.176H4.41655C2.95298 51.176 1.76655 49.9896 1.76655 48.526V22.026C1.8063 22.0561 1.85047 22.0764 1.8911 22.1046C1.96884 22.1594 2.04922 22.2062 2.1296 22.2557C2.27834 22.3466 2.43237 22.4285 2.5907 22.5013C2.67904 22.541 2.76737 22.5799 2.8557 22.6134C3.02564 22.6769 3.19943 22.7294 3.37599 22.7707C3.45814 22.791 3.53764 22.8166 3.62067 22.8316C3.88302 22.8815 4.14946 22.9076 4.41655 22.9094H51.2332V31.7427ZM22.1459 21.1427C22.6311 17.7624 25.7646 15.4154 29.145 15.9005C31.8624 16.2905 33.9972 18.4254 34.3872 21.1427H22.1459ZM51.2332 21.1427H36.1644C35.6625 16.7808 31.7196 13.6517 27.3577 14.1536C23.6869 14.5761 20.791 17.4719 20.3687 21.1427H5.29989V10.5427H51.2332V21.1427Z" fill="black"/>
<path d="M48.5833 12.3096H43.2833V14.0762H47.7V18.4929H49.4667V13.1929C49.4667 12.705 49.0711 12.3096 48.5833 12.3096Z" fill="black"/>
<path d="M7.95004 12.3096C7.46222 12.3096 7.06671 12.7051 7.06671 13.1929V18.4929H8.83338V14.0762H13.25V12.3096H7.95004Z" fill="black"/>
<path d="M42.4 36.1597H40.6333V37.9263H42.4V36.1597Z" fill="black"/>
</g>
<defs>
<filter id="filter0_d" x="67.104" y="19.2002" width="21.968" height="25.016" filterUnits="userSpaceOnUse" color-interpolation-filters="sRGB">
<feFlood flood-opacity="0" result="BackgroundImageFix"/>
<feColorMatrix in="SourceAlpha" type="matrix" values="0 0 0 0 0 0 0 0 0 0 0 0 0 0 0 0 0 0 127 0"/>
<feOffset dy="4"/>
<feGaussianBlur stdDeviation="2"/>
<feColorMatrix type="matrix" values="0 0 0 0 0 0 0 0 0 0 0 0 0 0 0 0 0 0 0.1 0"/>
<feBlend mode="normal" in2="BackgroundImageFix" result="effect1_dropShadow"/>
<feBlend mode="normal" in="SourceGraphic" in2="effect1_dropShadow" result="shape"/>
</filter>
<clipPath id="clip0">
<rect width="53" height="53" fill="white"/>
</clipPath>
</defs>
</svg>
