<svg width="56" height="56" viewBox="0 0 56 56" fill="none" xmlns="http://www.w3.org/2000/svg">
<path d="M6.57077 37.7714C6.36733 37.5669 6.08514 37.4509 5.79749 37.4509C5.50983 37.4509 5.22764 37.5669 5.0242 37.7714C4.82077 37.9748 4.70374 38.2559 4.70374 38.5447C4.70374 38.8323 4.82077 39.1145 5.0242 39.3178C5.22764 39.5213 5.50983 39.6384 5.79749 39.6384C6.08514 39.6383 6.36733 39.5213 6.57077 39.3178C6.7742 39.1145 6.89124 38.8323 6.89124 38.5447C6.89124 38.2557 6.7742 37.9748 6.57077 37.7714Z" fill="black"/>
<path d="M55.9627 20.6938C55.8078 20.1098 55.2092 19.7618 54.6253 19.9168L53.593 20.1903V18.4904C54.3152 18.1459 54.9341 17.5959 55.371 16.884C56.146 15.6214 56.2085 14.0791 55.5378 12.7578L53.593 8.92644V3.06361C53.593 1.37497 52.2191 0.0012207 50.5306 0.0012207H5.46941C3.78077 0.0012207 2.40702 1.37508 2.40702 3.06361V8.92666L0.462109 12.7581C-0.208469 14.0792 -0.146125 15.6216 0.628906 16.8842C1.06586 17.5962 1.68481 18.1461 2.40702 18.4906V20.1893L1.37484 19.9156C0.791109 19.7609 0.192171 20.1085 0.0372964 20.6925C-0.117579 21.2763 0.230234 21.8751 0.814187 22.03L13.4146 25.3718L12.9419 27.1362C12.9416 27.1375 12.9412 27.1388 12.9408 27.1401L8.77275 42.6948L1.37758 40.7132C0.793953 40.5566 0.194359 40.9031 0.0379526 41.4866C-0.118454 42.07 0.227828 42.6697 0.811343 42.8261L2.40691 43.2537V54.9059C2.40691 55.5099 2.89658 55.9997 3.50066 55.9997H52.4992C53.1033 55.9997 53.593 55.5099 53.593 54.9059V43.2532L55.1883 42.8261C55.7718 42.6698 56.1182 42.0702 55.9619 41.4867C55.8056 40.9032 55.206 40.557 54.6227 40.713L47.2207 42.6949L42.5789 25.3717L55.1858 22.0311C55.7694 21.8765 56.1175 21.2777 55.9627 20.6938ZM4.59441 3.06361C4.59441 2.58116 4.98695 2.18861 5.46941 2.18861H50.5306C51.013 2.18861 51.4056 2.58116 51.4056 3.06361V4.04799H44.5284C43.9243 4.04799 43.4347 4.53777 43.4347 5.14174C43.4347 5.74571 43.9243 6.23549 44.5284 6.23549H51.4056V8.09486H4.59441V3.06361ZM46.1557 10.2821V13.2891C46.1557 15.1771 44.6196 16.7132 42.7316 16.7132H42.1425C40.2545 16.7132 38.7184 15.1771 38.7184 13.2891V10.2821H46.1557ZM36.5309 10.2821V13.2891C36.5309 15.1771 34.9949 16.7132 33.1068 16.7132H32.5177C30.6296 16.7132 29.0936 15.1771 29.0936 13.2891V10.2821H36.5309ZM26.9062 10.2821V13.2891C26.9062 15.1771 25.3702 16.7132 23.4822 16.7132H22.8931C21.0049 16.7132 19.469 15.1771 19.469 13.2891V10.2821H26.9062ZM17.2815 10.2821V13.2891C17.2815 15.1771 15.7454 16.7132 13.8574 16.7132H13.2683C11.3802 16.7132 9.84419 15.1771 9.84419 13.2891V10.2821H17.2815ZM2.4932 15.7401C2.11345 15.1213 2.08403 14.3954 2.41259 13.7483L4.17211 10.2824H7.6569V13.2893C7.6569 15.1774 6.12084 16.7134 4.23281 16.7134C3.507 16.7133 2.87295 16.3586 2.4932 15.7401ZM4.59441 53.8122V51.627H10.0238C10.6279 51.627 11.1175 51.1372 11.1175 50.5332C11.1175 49.9293 10.6279 49.4395 10.0238 49.4395H4.59441V43.8396L9.26308 45.0906C9.35626 45.1157 9.45142 45.1279 9.54614 45.1279C9.73645 45.1279 9.92534 45.0783 10.093 44.9814C10.2203 44.9079 10.33 44.8101 10.4172 44.6952L14.3307 45.763C14.281 46.1741 14.3094 46.5951 14.4199 47.0072C14.6467 47.8538 15.1897 48.5614 15.9486 48.9996C16.4543 49.2915 17.0154 49.4406 17.584 49.4406C17.8101 49.4406 18.0371 49.4161 18.2626 49.3685C18.5055 50.1095 19.0106 50.7674 19.7375 51.1871C20.2431 51.479 20.8042 51.6281 21.3729 51.6281C21.5984 51.6281 21.8249 51.6037 22.0497 51.5564C22.3012 52.3257 22.8201 52.9669 23.5262 53.3745C24.0028 53.6497 24.5289 53.7961 25.0639 53.8123H4.59441V53.8122ZM16.642 45.6111L17.9545 43.3379C18.1005 43.0849 18.3364 42.9039 18.6186 42.8283C18.7127 42.8032 18.8083 42.7906 18.9034 42.7906C19.0928 42.7906 19.28 42.8402 19.4485 42.9376C19.9707 43.2392 20.1504 43.9095 19.8488 44.4318L18.5363 46.7049C18.3903 46.9579 18.1544 47.139 17.8723 47.2145C17.5901 47.2903 17.2954 47.2512 17.0423 47.1052C16.7893 46.9591 16.6084 46.7233 16.5327 46.4412C16.4571 46.1589 16.4959 45.8641 16.642 45.6111ZM20.4306 47.7985L21.7431 45.5254C21.9455 45.1748 22.3138 44.9786 22.6922 44.9786C22.8776 44.9786 23.0655 45.0259 23.2373 45.125C23.7594 45.4266 23.9391 46.0969 23.6376 46.6191L22.3251 48.8923C22.179 49.1453 21.943 49.3264 21.6608 49.4019C21.3788 49.4775 21.084 49.4387 20.8309 49.2926C20.3087 48.9911 20.1292 48.3208 20.4306 47.7985ZM25.259 53.8121C25.4521 53.8064 25.6458 53.7841 25.8382 53.7436C25.8457 53.7666 25.8541 53.7892 25.862 53.8121H25.259ZM27.4263 48.8065L26.1138 51.0797C25.9677 51.3327 25.7319 51.5138 25.4497 51.5893C25.1674 51.6649 24.8727 51.626 24.6198 51.48C24.3668 51.3339 24.1858 51.098 24.1102 50.8159C24.0346 50.5337 24.0732 50.2389 24.2193 49.9859L25.5318 47.7128C25.7343 47.3622 26.1026 47.166 26.481 47.166C26.6664 47.166 26.8543 47.2133 27.026 47.3124C27.5482 47.614 27.7279 48.2843 27.4263 48.8065ZM31.2151 50.9939L29.9026 53.2671C29.7565 53.5201 29.5206 53.7012 29.2385 53.7766C29.1679 53.7956 29.0966 53.8074 29.0254 53.8121H28.8963C28.7266 53.803 28.5599 53.7549 28.4083 53.6674C28.1553 53.5213 27.9744 53.2854 27.8987 53.0034C27.8231 52.7212 27.862 52.4264 28.008 52.1733L29.3205 49.9002C29.5229 49.5496 29.8912 49.3535 30.2696 49.3535C30.4547 49.3535 30.6423 49.4006 30.8139 49.4993L30.8157 49.5004C31.3371 49.8024 31.5164 50.472 31.2151 50.9939ZM34.0982 52.6687L34.0919 52.6798C33.7918 53.1997 33.1241 53.3794 32.6036 53.0803L32.5531 53.0513L33.1093 52.0877C33.2995 51.7581 33.4252 51.4089 33.4916 51.0545L33.7028 51.1771C34.2217 51.4785 34.3997 52.1463 34.0982 52.6687ZM46.4463 45.1284C46.5399 45.1284 46.6352 45.1162 46.7299 45.0908L51.4056 43.8389V53.8121H51.4055H35.9618C35.9703 53.7981 35.9795 53.785 35.9877 53.7707L35.994 53.7596C36.4127 53.0345 36.5211 52.2135 36.3615 51.4512C37.1304 51.2001 37.7711 50.6818 38.1788 49.9758C38.5978 49.25 38.7063 48.4292 38.5468 47.6673C38.7459 47.6022 38.9363 47.5195 39.1162 47.4201L45.6805 44.8134C45.8824 45.0117 46.1567 45.1284 46.4463 45.1284ZM44.9684 42.7422L40.8 44.3977C40.7917 44.2228 40.77 44.0492 40.7342 43.8784C41.5028 43.6271 42.1435 43.1084 42.5534 42.3981C43.4573 40.8327 42.919 38.8237 41.3535 37.9199L36.8597 35.3254C36.3367 35.0233 35.6676 35.2026 35.3656 35.7257C35.0635 36.2489 35.2428 36.9177 35.7659 37.2198L40.2597 39.8143C40.7807 40.1151 40.9597 40.7836 40.6562 41.3094C40.5105 41.5619 40.2753 41.7422 39.9938 41.8176C39.7125 41.8931 39.4184 41.8545 39.166 41.7086L34.6722 39.1143C34.1491 38.8124 33.4801 38.9914 33.1781 39.5146C32.876 40.0377 33.0553 40.7067 33.5784 41.0086L38.0722 43.603C38.5932 43.9038 38.7723 44.5723 38.4763 45.0853C38.4746 45.0879 38.4702 45.0956 38.4687 45.0982C38.3844 45.2442 38.2695 45.3652 38.1337 45.4566L38.1287 45.4586C38.0543 45.4881 37.9854 45.5253 37.9215 45.5682C37.884 45.5828 37.8457 45.5959 37.8062 45.6064C37.5249 45.682 37.2309 45.6432 36.9785 45.4975L32.4847 42.903C31.9617 42.601 31.2926 42.7801 30.9906 43.3033C30.6885 43.8265 30.8678 44.4953 31.3909 44.7974L35.8847 47.3919C36.4057 47.6927 36.5847 48.3612 36.2841 48.8821C36.1382 49.135 35.9023 49.3156 35.6203 49.3907C35.3383 49.466 35.044 49.4267 34.7915 49.2801L31.9105 47.6068C31.9102 47.6067 31.9099 47.6066 31.9096 47.6064C31.9091 47.606 31.9086 47.6057 31.9081 47.6054C31.9081 47.6054 31.9081 47.6054 31.908 47.6054C31.1807 47.1855 30.358 47.077 29.5946 47.2375C29.3519 46.4961 28.8466 45.8378 28.1193 45.418H28.1192C27.392 44.9981 26.5693 44.8897 25.8058 45.0502C25.5631 44.3087 25.0578 43.6504 24.3306 43.2306C23.6032 42.8107 22.7805 42.7022 22.0171 42.8627C21.7743 42.1212 21.2691 41.463 20.5418 41.0432C19.7828 40.6048 18.8985 40.4886 18.052 40.7154C17.2053 40.9423 16.4978 41.4853 16.0597 42.2444L15.2002 43.7332L11.0613 42.604L14.9077 28.2491L22.2026 25.6565C22.9252 25.3997 23.7156 25.4809 24.3709 25.8788L27.2377 27.6194L25.0202 31.1962C24.1417 32.6131 24.3562 34.4213 25.5418 35.5936C26.2311 36.275 27.135 36.6156 28.0389 36.6156C28.9465 36.6155 29.8542 36.2722 30.544 35.5859L36.0624 30.0966C36.4907 29.6705 36.4925 28.9781 36.0665 28.5497C35.6404 28.1214 34.9479 28.1197 34.5197 28.5457L29.0014 34.035C28.4725 34.5614 27.6104 34.5625 27.0799 34.0381C26.6245 33.5877 26.5421 32.893 26.8795 32.3488L29.879 27.5105C30.496 26.5151 31.4473 25.762 32.5575 25.3896L34.6064 24.7025C35.4104 24.4326 36.2954 24.5162 37.0347 24.9313L40.7553 27.0201L44.9684 42.7422ZM51.4055 20.7701L40.9583 23.5385C40.6774 23.613 40.4377 23.796 40.292 24.0475C40.262 24.0994 40.2376 24.1536 40.2166 24.2089L38.106 23.0238C36.829 22.3068 35.3 22.1627 33.9113 22.6285L31.8625 23.3156C30.4933 23.7748 29.2938 24.6386 28.4215 25.7786L25.5068 24.0087C24.2867 23.268 22.8157 23.117 21.4707 23.5951L15.5959 25.6829L15.8115 24.8785C15.8867 24.5979 15.8471 24.2988 15.7015 24.0473C15.556 23.7959 15.3163 23.6127 15.0355 23.5382L4.59451 20.7691V18.8875C6.29694 18.7786 7.79515 17.9079 8.75065 16.6127C9.77342 17.9991 11.4173 18.9005 13.2685 18.9005H13.8576C15.7088 18.9005 17.3528 17.999 18.3754 16.6127C19.3982 17.9991 21.0421 18.9005 22.8933 18.9005H23.4824C25.3334 18.9005 26.9776 17.999 28.0002 16.6127C29.023 17.9991 30.6669 18.9005 32.5181 18.9005H33.1072C34.9582 18.9005 36.6023 17.999 37.625 16.6127C38.6478 17.9991 40.2917 18.9005 42.1428 18.9005H42.7319C44.583 18.9005 46.2271 17.999 47.2498 16.6127C48.2053 17.908 49.7034 18.7786 51.4059 18.8875V20.7701H51.4055ZM51.7672 16.7132C49.879 16.7132 48.3431 15.1771 48.3431 13.2891V10.2821H51.8279L53.5874 13.7481C53.9159 14.3954 53.8865 15.1213 53.5068 15.74C53.127 16.3585 52.493 16.7132 51.7672 16.7132Z" fill="black"/>
<path d="M50.9691 37.7714C50.7656 37.5669 50.4835 37.4509 50.1958 37.4509C49.9081 37.4509 49.626 37.5669 49.4225 37.7714C49.2191 37.9748 49.1021 38.2559 49.1021 38.5447C49.1021 38.8323 49.2191 39.1133 49.4225 39.3178C49.626 39.5213 49.9081 39.6384 50.1958 39.6384C50.4835 39.6384 50.7656 39.5214 50.9691 39.3178C51.1725 39.1133 51.2896 38.8323 51.2896 38.5447C51.2896 38.2557 51.1725 37.9748 50.9691 37.7714Z" fill="black"/>
<path d="M14.7561 49.7598C14.5526 49.5562 14.2704 49.4392 13.9828 49.4392C13.6951 49.4392 13.4129 49.5562 13.2095 49.7598C13.0061 49.9631 12.889 50.2453 12.889 50.533C12.889 50.8206 13.0061 51.1028 13.2095 51.3062C13.4129 51.5097 13.6951 51.6267 13.9828 51.6267C14.2715 51.6267 14.5526 51.5098 14.7561 51.3062C14.9595 51.1028 15.0765 50.8206 15.0765 50.533C15.0765 50.2453 14.9595 49.9631 14.7561 49.7598Z" fill="black"/>
<path d="M41.3421 4.36808C41.1387 4.16464 40.8565 4.04761 40.5688 4.04761C40.2812 4.04761 39.999 4.16453 39.7956 4.36808C39.5921 4.57151 39.4751 4.8537 39.4751 5.14136C39.4751 5.42901 39.5921 5.7112 39.7956 5.91453C39.999 6.11808 40.2812 6.23511 40.5688 6.23511C40.8565 6.23511 41.1387 6.11808 41.3421 5.91453C41.5456 5.7112 41.6626 5.42901 41.6626 5.14136C41.6626 4.8537 41.5456 4.5714 41.3421 4.36808Z" fill="black"/>
</svg>
