<svg width="62" height="62" viewBox="0 0 62 62" fill="none" xmlns="http://www.w3.org/2000/svg">
<g clip-path="url(#clip0)">
<path d="M60.7889 59.5783H59.8202V24.219C59.8202 23.5502 59.2781 23.0081 58.6093 23.0081H48.9218C48.253 23.0081 47.7108 23.5502 47.7108 24.219V37.176C47.7108 37.8448 48.253 38.3869 48.9218 38.3869C49.5906 38.3869 50.1327 37.8448 50.1327 37.176V25.4299H57.3983V59.5783H50.1327V49.0414C50.1327 48.3726 49.5906 47.8304 48.9218 47.8304C48.253 47.8304 47.7108 48.3726 47.7108 49.0414V59.5783H44.8046V32.2112C44.8046 31.5424 44.2625 31.0002 43.5937 31.0002H33.9062C33.2374 31.0002 32.6953 31.5424 32.6953 32.2112V59.5783H29.3046V39.719C29.3046 39.0502 28.7625 38.508 28.0937 38.508H18.4062C17.7374 38.508 17.1953 39.0502 17.1953 39.719V59.5783H14.289V47.469C14.289 46.8002 13.7469 46.258 13.0781 46.258H3.39062C2.72182 46.258 2.17968 46.8002 2.17968 47.469V59.5783H1.21094C0.542136 59.5783 0 60.1204 0 60.7892C0 61.458 0.542136 62.0002 1.21094 62.0002H60.7889C61.4577 62.0002 61.9999 61.458 61.9999 60.7892C61.9999 60.1204 61.4577 59.5783 60.7889 59.5783ZM11.8672 59.5783H4.60155V48.6799H11.8672V59.5783ZM26.8828 59.5783H19.6171V40.9299H26.8828V59.5783ZM42.3827 59.5783H35.1171V33.4221H42.3827V59.5783Z" fill="black"/>
<path d="M49.7778 41.9976C49.5526 41.7724 49.2402 41.644 48.9217 41.644C48.6032 41.644 48.2908 41.7724 48.0656 41.9976C47.8403 42.2229 47.7108 42.5353 47.7108 42.855C47.7108 43.1735 47.8403 43.4847 48.0656 43.7111C48.2908 43.9365 48.6032 44.0659 48.9217 44.0659C49.2402 44.0659 49.5526 43.9363 49.7778 43.7111C50.0031 43.4847 50.1326 43.1735 50.1326 42.855C50.1326 42.5353 50.0031 42.2229 49.7778 41.9976Z" fill="black"/>
<path d="M52.7969 0C47.7222 0 43.5938 4.12844 43.5938 9.20311C43.5938 14.2778 47.7223 18.4062 52.7969 18.4062C57.8715 18.4062 62 14.2778 62 9.20311C62 4.12844 57.8715 0 52.7969 0ZM52.7969 12.7261C52.0395 12.7261 51.4235 12.2171 51.4235 11.5917C51.4235 10.9229 50.8814 10.3807 50.2126 10.3807C49.5438 10.3807 49.0017 10.9229 49.0017 11.5917C49.0017 13.1558 50.0855 14.4864 51.5859 14.9612V15.8739C48.4228 15.301 46.0156 12.5288 46.0156 9.20311C46.0156 5.8774 48.4228 3.1052 51.5859 2.53231V3.53145C50.0855 4.00626 49.0017 5.33683 49.0017 6.901C49.0017 8.86199 50.7042 10.4573 52.7969 10.4573C53.5541 10.4573 54.1702 10.9661 54.1702 11.5917C54.1702 12.2172 53.5542 12.7261 52.7969 12.7261ZM54.0078 15.8739V14.9612C55.5083 14.4864 56.5921 13.1558 56.5921 11.5917C56.5921 9.63081 54.8895 8.0354 52.7969 8.0354C52.0397 8.0354 51.4235 7.52645 51.4235 6.901C51.4235 6.27555 52.0395 5.76659 52.7969 5.76659C53.5542 5.76659 54.1702 6.27555 54.1702 6.901C54.1702 7.5698 54.7123 8.11193 55.3811 8.11193C56.0499 8.11193 56.5921 7.5698 56.5921 6.901C56.5921 5.33683 55.5083 4.00626 54.0078 3.53145V2.53231C57.171 3.1052 59.5781 5.8774 59.5781 9.20311C59.5781 12.5288 57.1709 15.301 54.0078 15.8739Z" fill="black"/>
<path d="M43.1091 15.6655H38.3683C37.6995 15.6655 37.1574 16.2077 37.1574 16.8765C37.1574 17.5453 37.6995 18.0874 38.3683 18.0874H40.1856L27.2384 31.0347L20.6604 24.4568C20.1876 23.984 19.4208 23.984 18.9478 24.4568L5.77842 37.6261C5.30555 38.0989 5.30555 38.8657 5.77842 39.3386C6.01479 39.5751 6.32479 39.6934 6.63467 39.6934C6.94455 39.6934 7.25455 39.5751 7.49092 39.3387L19.8041 27.0256L26.382 33.6035C26.8549 34.0763 27.6216 34.0763 28.0946 33.6035L41.8982 19.7999V21.6173C41.8982 22.2861 42.4403 22.8282 43.1091 22.8282C43.7779 22.8282 44.3201 22.2861 44.3201 21.6173V16.8765C44.3201 16.2077 43.7779 15.6655 43.1091 15.6655Z" fill="black"/>
<path d="M4.3424 40.7747C4.11716 40.5495 3.80474 40.4199 3.48626 40.4199C3.16779 40.4199 2.85537 40.5495 2.63013 40.7747C2.4049 41 2.27533 41.3124 2.27533 41.6309C2.27533 41.9493 2.4049 42.2618 2.63013 42.487C2.85537 42.7121 3.16779 42.8418 3.48626 42.8418C3.80474 42.8418 4.11716 42.7122 4.3424 42.487C4.56763 42.2618 4.6972 41.9493 4.6972 41.6309C4.6972 41.3124 4.56763 41 4.3424 40.7747Z" fill="black"/>
</g>
<defs>
<clipPath id="clip0">
<rect width="62" height="62" fill="white"/>
</clipPath>
</defs>
</svg>
