<svg width="194" height="199" viewBox="0 0 194 199" fill="none" xmlns="http://www.w3.org/2000/svg">
<ellipse cx="96.9428" cy="99.2456" rx="67.8821" ry="75.1154" transform="rotate(30.7022 96.9428 99.2456)" fill="#F9E850"/>
<ellipse cx="97.5" cy="98.5" rx="70.5" ry="67.5" fill="#476ED3"/>
<g clip-path="url(#clip0)">
<path d="M107.056 107.037V123.953C107.056 124.813 107.752 125.509 108.612 125.509C109.471 125.509 110.167 124.813 110.167 123.953V105.912C110.167 105.224 109.715 104.617 109.055 104.421C105.532 103.373 102.362 101.173 100.13 98.2257C97.8245 95.1815 96.6057 91.5477 96.6057 87.7176C96.6057 78.1093 104.423 70.2924 114.031 70.2924C115.826 70.2924 117.583 70.5657 119.25 71.0878C118.781 72.8797 118.043 74.5771 117.076 76.1294C116.186 75.7087 115.192 75.4723 114.145 75.4723C110.35 75.4723 107.263 78.5594 107.263 82.354C107.263 86.1485 110.35 89.2355 114.145 89.2355C117.939 89.2355 121.026 86.1485 121.026 82.354C121.026 80.7371 120.464 79.25 119.528 78.0741C120.676 76.2973 121.561 74.3504 122.144 72.2923C124.178 73.3629 126.005 74.8394 127.507 76.6702C128.052 77.3344 129.033 77.4306 129.697 76.8855C130.361 76.3404 130.458 75.3601 129.912 74.6957C127.945 72.2996 125.508 70.4162 122.788 69.1343C122.9 68.2459 122.961 67.3447 122.961 66.4329C122.961 54.6149 113.346 45 101.528 45C89.7093 45 80.0945 54.6149 80.0945 66.4331C80.0945 69.6496 80.8247 72.8389 82.2087 75.7191C77.8667 82.1584 77.4824 90.6562 81.4365 97.4888L67.1609 111.764C66.5532 112.372 66.5532 113.357 67.1609 113.965C67.7685 114.572 68.7536 114.572 69.3612 113.965L84.5091 98.8172C85.0333 98.2929 85.1148 97.4717 84.7039 96.8547C80.1258 89.9788 81.0496 80.7419 86.9003 74.8914C91.2109 70.5808 97.4429 68.8978 103.233 70.2566C101.182 71.5296 99.3696 73.1527 97.8825 75.0433C95.1184 75.3462 92.5419 76.575 90.5629 78.5538C85.7883 83.3283 85.7883 91.097 90.5629 95.8717C92.3502 97.6588 94.5793 98.8192 97.045 99.259C97.2398 99.5445 97.4394 99.8275 97.6495 100.105C98.8977 101.753 100.397 103.2 102.07 104.401C97.7535 105.114 93.2731 104.19 89.5782 101.73C88.9611 101.319 88.1398 101.4 87.6158 101.924L73.3571 116.183C72.7495 116.791 72.7495 117.776 73.3571 118.383L76.7274 121.754C77.5797 122.572 77.5797 124.043 76.7272 124.861C75.9094 125.713 74.4378 125.713 73.6202 124.861L70.25 121.49C69.6424 120.883 68.6573 120.883 68.0497 121.49L64.0134 125.527C63.4107 126.106 63.4107 127.148 64.0134 127.727L67.3834 131.097C68.2401 131.954 68.2401 133.348 67.3836 134.204C66.5269 135.061 65.1332 135.061 64.2767 134.204L60.9065 130.834C60.2988 130.226 59.3138 130.226 58.7061 130.834L54.2916 135.248C53.4349 136.105 52.0412 136.105 51.1847 135.248C50.328 134.392 50.328 132.998 51.1847 132.141L64.9605 118.365C65.5682 117.758 65.5682 116.773 64.9605 116.165C64.3529 115.557 63.3679 115.557 62.7602 116.165L48.9842 129.941C46.9145 132.011 46.9145 135.379 48.9842 137.449C51.0541 139.518 54.4218 139.518 56.4917 137.449L59.8061 134.134L62.0764 136.405C64.1461 138.474 67.5141 138.474 69.584 136.405C71.6537 134.335 71.6537 130.967 69.584 128.897L67.3139 126.627L69.1498 124.791L71.4199 127.061C73.396 129.121 76.9516 129.12 78.9277 127.061C80.987 125.085 80.9873 121.529 78.9277 119.553L76.6576 117.283L88.9441 104.997C94.0898 107.973 100.325 108.571 105.976 106.606C106.332 106.759 106.691 106.905 107.056 107.037ZM114.145 78.584C114.484 78.584 114.812 78.6333 115.125 78.7177C113.781 80.2061 112.184 81.4812 110.381 82.476C110.379 82.435 110.375 82.395 110.375 82.3538C110.375 80.2752 112.066 78.584 114.145 78.584ZM117.915 82.3542C117.915 84.4328 116.223 86.1241 114.145 86.1241C113.239 86.1241 112.408 85.803 111.757 85.2692C113.961 84.0732 115.906 82.5223 117.528 80.7021C117.773 81.2017 117.915 81.7611 117.915 82.3542ZM84.6999 72.6908C84.6028 72.7879 84.5107 72.8884 84.4159 72.9871C83.6211 70.906 83.206 68.6775 83.206 66.4333C83.206 56.3308 91.4249 48.1119 101.527 48.1119C111.63 48.1119 119.849 56.3308 119.849 66.4333C119.849 66.9592 119.824 67.4807 119.78 67.9981C117.935 67.4619 116.002 67.1809 114.03 67.1809C111.667 67.1809 109.397 67.5834 107.282 68.3212C99.6186 65.0543 90.621 66.7695 84.6999 72.6908ZM95.4997 78.8705C94.8528 80.2199 94.3493 81.6505 94.0085 83.1424C93.2348 82.7938 92.4851 82.394 91.7655 81.9398C92.0599 81.5238 92.3907 81.1261 92.763 80.7539C93.5611 79.9558 94.4896 79.3212 95.4997 78.8705ZM92.7632 93.671C90.3556 91.2634 89.578 87.8354 90.426 84.7664C91.4214 85.3705 92.4626 85.8912 93.5425 86.3247C93.5114 86.7851 93.4942 87.2495 93.4942 87.7178C93.4942 90.3475 93.9853 92.8977 94.93 95.2792C94.1412 94.8593 93.4131 94.3208 92.7632 93.671Z" fill="white"/>
<path d="M133.275 80.5321C132.974 79.727 132.078 79.3187 131.273 79.6193C130.468 79.9199 130.059 80.8162 130.36 81.6213C131.087 83.5676 131.456 85.6189 131.456 87.7178C131.456 95.2825 126.627 101.941 119.441 104.286C118.801 104.495 118.367 105.091 118.367 105.765V114.403L113.96 117.821C113.165 118.405 113.166 119.696 113.96 120.28L117.384 122.936L113.96 125.592C113.165 126.176 113.165 127.467 113.96 128.051L117.384 130.706L113.96 133.362C113.165 133.946 113.165 135.237 113.96 135.821L118.367 139.239V142.972L114.086 147.213L110.167 143.009V130.177C110.167 129.317 109.471 128.621 108.612 128.621C107.752 128.621 107.056 129.317 107.056 130.177V143.621C107.056 144.015 107.205 144.394 107.473 144.682L112.903 150.509C113.473 151.145 114.542 151.167 115.137 150.553L121.018 144.726C121.313 144.434 121.479 144.036 121.479 143.621V138.477C121.479 137.996 121.257 137.542 120.877 137.247L117.453 134.591L120.877 131.936C121.672 131.352 121.671 130.061 120.877 129.477L117.453 126.821L120.877 124.166C121.672 123.582 121.671 122.291 120.877 121.707L117.453 119.051L120.877 116.396C121.257 116.101 121.479 115.647 121.479 115.166V106.861C129.354 103.806 134.568 96.2512 134.568 87.7178C134.567 85.2458 134.133 82.8281 133.275 80.5321Z" fill="white"/>
</g>
<defs>
<clipPath id="clip0">
<rect width="106" height="106" fill="white" transform="translate(38 45)"/>
</clipPath>
</defs>
</svg>
