<svg width="52" height="52" viewBox="0 0 52 52" fill="none" xmlns="http://www.w3.org/2000/svg">
<g clip-path="url(#clip0)">
<path d="M1.01572 49.9687H1.82822V20.3125C1.82822 19.7516 2.28291 19.2969 2.84384 19.2969H10.9688C11.5298 19.2969 11.9844 19.7516 11.9844 20.3125V31.1797C11.9844 31.7406 11.5298 32.1953 10.9688 32.1953C10.4079 32.1953 9.9532 31.7406 9.9532 31.1797V21.3281H3.85946V49.9687H9.9532V41.1313C9.9532 40.5703 10.4079 40.1156 10.9688 40.1156C11.5298 40.1156 11.9844 40.5703 11.9844 41.1313V49.9687H14.4219V27.0156C14.4219 26.4547 14.8766 26 15.4376 26H23.5626C24.1235 26 24.5782 26.4547 24.5782 27.0156V49.9687H27.4219V33.3125C27.4219 32.7516 27.8766 32.2969 28.4375 32.2969H36.5625C37.1235 32.2969 37.5782 32.7516 37.5782 33.3125V49.9687H40.0156V39.8125C40.0156 39.2515 40.4703 38.7968 41.0313 38.7968H49.1563C49.7172 38.7968 50.1719 39.2515 50.1719 39.8125V49.9687H50.9844C51.5453 49.9687 52 50.4234 52 50.9843C52 51.5453 51.5453 52 50.9844 52H1.01572C0.454788 52 9.53674e-05 51.5453 9.53674e-05 50.9843C9.53674e-05 50.4234 0.454788 49.9687 1.01572 49.9687ZM42.0469 49.9687H48.1406V40.8281H42.0469V49.9687ZM29.4532 49.9687H35.5469V34.3281H29.4532V49.9687ZM16.4532 49.9687H22.5469V28.0312H16.4532V49.9687Z" fill="#476ED3"/>
<path d="M10.2507 35.2241C10.4396 35.0351 10.7016 34.9275 10.9688 34.9275C11.2359 34.9275 11.4979 35.0351 11.6868 35.2241C11.8757 35.413 11.9844 35.675 11.9844 35.9431C11.9844 36.2102 11.8757 36.4712 11.6868 36.6612C11.4979 36.8502 11.2359 36.9587 10.9688 36.9587C10.7016 36.9587 10.4396 36.8501 10.2507 36.6612C10.0618 36.4712 9.95313 36.2102 9.95313 35.9431C9.95313 35.675 10.0618 35.413 10.2507 35.2241Z" fill="#476ED3"/>
<path d="M7.71864 0C11.9748 0 15.4374 3.46256 15.4374 7.71874C15.4374 11.9749 11.9747 15.4375 7.71864 15.4375C3.46246 15.4375 -0.000102997 11.9749 -0.000102997 7.71874C-0.000102997 3.46256 3.46246 0 7.71864 0ZM7.71864 10.6735C8.35381 10.6735 8.87046 10.2466 8.87046 9.72205C8.87046 9.16112 9.32515 8.70643 9.88608 8.70643C10.447 8.70643 10.9017 9.16112 10.9017 9.72205C10.9017 11.0339 9.99272 12.1499 8.73426 12.5481V13.3136C11.3872 12.8331 13.4061 10.508 13.4061 7.71874C13.4061 4.92943 11.3872 2.60436 8.73426 2.12387V2.96186C9.99272 3.36009 10.9017 4.47605 10.9017 5.78793C10.9017 7.43264 9.47374 8.77062 7.71864 8.77062C7.08357 8.77062 6.56682 9.19738 6.56682 9.72205C6.56682 10.2467 7.08346 10.6735 7.71864 10.6735ZM6.70301 13.3136V12.5481C5.44455 12.1499 4.53557 11.0339 4.53557 9.72205C4.53557 8.07745 5.96354 6.73937 7.71864 6.73937C8.35371 6.73937 8.87046 6.3125 8.87046 5.78793C8.87046 5.26337 8.35381 4.8365 7.71864 4.8365C7.08346 4.8365 6.56682 5.26337 6.56682 5.78793C6.56682 6.34886 6.11212 6.80356 5.55119 6.80356C4.99026 6.80356 4.53557 6.34886 4.53557 5.78793C4.53557 4.47605 5.44455 3.36009 6.70301 2.96186V2.12387C4.05 2.60436 2.03114 4.92943 2.03114 7.71874C2.03114 10.508 4.0501 12.8331 6.70301 13.3136Z" fill="#476ED3"/>
<path d="M15.8441 13.1389H19.8203C20.3812 13.1389 20.8359 13.5936 20.8359 14.1545C20.8359 14.7155 20.3812 15.1702 19.8203 15.1702H18.2961L29.1551 26.0292L34.672 20.5122C35.0686 20.1157 35.7117 20.1157 36.1084 20.5122L47.1537 31.5574C47.5503 31.954 47.5503 32.5971 47.1537 32.9937C46.9555 33.1921 46.6955 33.2913 46.4356 33.2913C46.1757 33.2913 45.9157 33.1921 45.7174 32.9938L35.3903 22.6667L29.8733 28.1836C29.4767 28.5802 28.8336 28.5802 28.4369 28.1836L16.8597 16.6065V18.1307C16.8597 18.6916 16.405 19.1463 15.8441 19.1463C15.2832 19.1463 14.8285 18.6916 14.8285 18.1307V14.1545C14.8285 13.5936 15.2832 13.1389 15.8441 13.1389Z" fill="#476ED3"/>
<path d="M48.3579 34.1982C48.5468 34.0093 48.8088 33.9006 49.0759 33.9006C49.343 33.9006 49.6051 34.0093 49.794 34.1982C49.9829 34.3871 50.0916 34.6491 50.0916 34.9163C50.0916 35.1834 49.9829 35.4454 49.794 35.6343C49.6051 35.8231 49.343 35.9319 49.0759 35.9319C48.8088 35.9319 48.5468 35.8232 48.3579 35.6343C48.169 35.4454 48.0603 35.1834 48.0603 34.9163C48.0603 34.6491 48.169 34.3871 48.3579 34.1982Z" fill="#476ED3"/>
</g>
<defs>
<clipPath id="clip0">
<rect width="52" height="52" fill="white" transform="matrix(-1 0 0 1 52 0)"/>
</clipPath>
</defs>
</svg>
