<svg width="45" height="45" viewBox="0 0 45 45" fill="none" xmlns="http://www.w3.org/2000/svg">
<path d="M31.6388 25.9502H33.0268V27.3382H31.6388V25.9502Z" fill="white"/>
<path d="M35.803 25.9502H37.191V27.3382H35.803V25.9502Z" fill="white"/>
<path d="M42.6808 23.6667C42.5267 22.236 42.0037 20.8699 41.163 19.702C40.3224 18.5341 39.1929 17.6044 37.8851 17.0041V5.82333C37.8851 4.71893 37.4464 3.65976 36.6655 2.87883C35.8845 2.0979 34.8254 1.65918 33.721 1.65918H5.95993C4.85553 1.65918 3.79636 2.0979 3.01543 2.87883C2.2345 3.65976 1.79578 4.71893 1.79578 5.82333V39.1366C1.79578 40.241 2.2345 41.3001 3.01543 42.0811C3.79636 42.862 4.85553 43.3007 5.95993 43.3007H42.0493C42.2333 43.3007 42.4099 43.2276 42.54 43.0974C42.6702 42.9673 42.7433 42.7908 42.7433 42.6067V40.8994C42.7467 39.6037 42.4188 38.3287 41.7908 37.1954C41.1628 36.0621 40.2556 35.1082 39.1552 34.4241L37.1911 33.2026V32.1408C37.7865 31.7955 38.3134 31.3439 38.7457 30.8083H40.6612C41.029 30.8072 41.3814 30.6606 41.6415 30.4005C41.9016 30.1404 42.0482 29.788 42.0493 29.4202V28.6013C42.4537 28.4572 42.8039 28.192 43.0523 27.8418C43.3007 27.4916 43.4351 27.0734 43.4373 26.6441V25.2561C43.4358 24.9518 43.3673 24.6516 43.2365 24.3769C43.1058 24.1022 42.916 23.8597 42.6808 23.6667ZM26.0867 40.8994V41.9127H5.95993C5.22366 41.9127 4.51755 41.6202 3.99693 41.0996C3.47631 40.5789 3.18383 39.8728 3.18383 39.1366V5.82333C3.18383 5.08707 3.47631 4.38095 3.99693 3.86033C4.51755 3.33971 5.22366 3.04723 5.95993 3.04723H33.721C34.4572 3.04723 35.1633 3.33971 35.684 3.86033C36.2046 4.38095 36.4971 5.08707 36.4971 5.82333V16.5044C36.0411 16.3904 35.577 16.3115 35.109 16.2684V5.82333C35.1079 5.45554 34.9613 5.10312 34.7012 4.84305C34.4412 4.58297 34.0888 4.43638 33.721 4.43528H5.95993C5.59213 4.43638 5.23972 4.58297 4.97964 4.84305C4.71957 5.10312 4.57298 5.45554 4.57188 5.82333V39.1366C4.57298 39.5044 4.71957 39.8568 4.97964 40.1169C5.23972 40.3769 5.59213 40.5235 5.95993 40.5246H26.1075C26.1075 40.6495 26.0867 40.7745 26.0867 40.8994ZM26.3018 39.1366H5.95993V5.82333H33.721V16.2684C31.7927 16.4228 29.9792 17.2471 28.595 18.5984C27.2107 19.9496 26.343 21.7427 26.1422 23.6667C25.909 23.861 25.721 24.1039 25.5915 24.3784C25.4621 24.653 25.3942 24.9525 25.3927 25.2561V26.6441C25.3943 27.1958 25.6142 27.7244 26.0043 28.1145C26.3944 28.5046 26.923 28.7245 27.4747 28.7262H29.0432C29.23 29.4381 29.5554 30.1062 30.0008 30.6922C30.4462 31.2781 31.0029 31.7704 31.6389 32.1408V33.2026L29.6748 34.4241C27.9714 35.487 26.7586 37.1815 26.3018 39.1366ZM27.4747 24.562H28.8628V27.3381H27.4747C27.2907 27.3381 27.1141 27.265 26.984 27.1349C26.8538 27.0047 26.7807 26.8282 26.7807 26.6441V25.2561C26.7807 25.072 26.8538 24.8955 26.984 24.7653C27.1141 24.6351 27.2907 24.562 27.4747 24.562ZM38.4195 35.604C39.3199 36.163 40.0623 36.943 40.5761 37.8699C41.0899 38.7967 41.3582 39.8396 41.3552 40.8994V41.9127H27.4747V40.8994C27.4718 39.8396 27.74 38.7967 28.2539 37.8699C28.7677 36.943 29.5101 36.163 30.4105 35.604L31.8748 34.6879C32.0884 35.1845 32.4428 35.6076 32.8943 35.9049C33.3457 36.2022 33.8744 36.3606 34.415 36.3606C34.9555 36.3606 35.4843 36.2022 35.9357 35.9049C36.3872 35.6076 36.7416 35.1845 36.9551 34.6879L38.4195 35.604ZM33.0269 33.5844V32.7099C33.9367 32.9505 34.8933 32.9505 35.803 32.7099V33.5844C35.803 33.9525 35.6568 34.3056 35.3965 34.5659C35.1362 34.8262 34.7831 34.9724 34.415 34.9724C34.0468 34.9724 33.6938 34.8262 33.4335 34.5659C33.1732 34.3056 33.0269 33.9525 33.0269 33.5844ZM38.5791 27.3381C38.5784 28.0695 38.3844 28.7878 38.017 29.4202H34.415V30.8083H36.7122C36.0851 31.2244 35.3569 31.4627 34.605 31.4977C33.8532 31.5327 33.106 31.3632 32.4429 31.0071C31.7799 30.651 31.2258 30.1217 30.8398 29.4756C30.4538 28.8295 30.2502 28.0908 30.2508 27.3381V25.6863L32.0553 24.7841C32.3439 24.6389 32.6623 24.5629 32.9853 24.562H35.8447C36.1677 24.5629 36.4861 24.6389 36.7747 24.7841L38.5791 25.6863V27.3381ZM30.2717 24.1179C30.3748 23.0906 30.8558 22.1383 31.6214 21.4457C32.387 20.7531 33.3826 20.3696 34.415 20.3696C35.4474 20.3696 36.443 20.7531 37.2086 21.4457C37.9742 22.1383 38.4552 23.0906 38.5583 24.1179L37.3924 23.5418C36.9124 23.2997 36.3823 23.1737 35.8447 23.174H32.9853C32.4477 23.1737 31.9176 23.2997 31.4376 23.5418L30.2717 24.1179ZM34.415 19.0098C33.1852 19.0124 31.991 19.4225 31.019 20.1759C30.0471 20.9294 29.3523 21.9837 29.0432 23.174H27.6205C27.9389 21.6068 28.7892 20.1979 30.0275 19.1859C31.2658 18.1739 32.8158 17.6211 34.415 17.6211C36.0142 17.6211 37.5642 18.1739 38.8025 19.1859C40.0407 20.1979 40.8911 21.6068 41.2095 23.174H39.7867C39.4777 21.9837 38.7829 20.9294 37.8109 20.1759C36.839 19.4225 35.6448 19.0124 34.415 19.0098ZM40.6612 29.4202H39.5577C39.6486 29.1939 39.7251 28.9621 39.7867 28.7262H40.6612V29.4202ZM42.0493 26.6441C42.0493 26.8282 41.9761 27.0047 41.846 27.1349C41.7158 27.265 41.5393 27.3381 41.3552 27.3381H39.9672V24.562H41.3552C41.5393 24.562 41.7158 24.6351 41.846 24.7653C41.9761 24.8955 42.0493 25.072 42.0493 25.2561V26.6441Z" fill="white"/>
<path d="M22.7365 12.9753L19.1879 10.7544C18.9776 10.623 18.7359 10.5503 18.488 10.5439C18.2401 10.5375 17.995 10.5977 17.7782 10.7181C17.5614 10.8386 17.3808 11.0149 17.2552 11.2288C17.1297 11.4427 17.0637 11.6863 17.0642 11.9343V16.3726C17.0637 16.6206 17.1297 16.8642 17.2552 17.0781C17.3808 17.292 17.5614 17.4683 17.7782 17.5887C17.995 17.7092 18.2401 17.7693 18.488 17.763C18.7359 17.7566 18.9776 17.6839 19.1879 17.5524L22.7365 15.3315C22.9358 15.2067 23.1002 15.0333 23.2141 14.8275C23.328 14.6217 23.3878 14.3904 23.3878 14.1552C23.3878 13.92 23.328 13.6886 23.2141 13.4829C23.1002 13.2771 22.9358 13.1036 22.7365 12.9788V12.9753ZM18.4523 16.3726V11.9308L22.0008 14.1517L18.4523 16.3726Z" fill="white"/>
<path d="M19.8403 7.21143C18.4676 7.21143 17.1258 7.61846 15.9845 8.38107C14.8432 9.14367 13.9536 10.2276 13.4283 11.4958C12.903 12.7639 12.7656 14.1594 13.0334 15.5057C13.3012 16.8519 13.9622 18.0886 14.9328 19.0592C15.9034 20.0298 17.14 20.6908 18.4863 20.9586C19.8326 21.2264 21.228 21.0889 22.4962 20.5636C23.7644 20.0384 24.8483 19.1488 25.6109 18.0075C26.3735 16.8662 26.7805 15.5243 26.7805 14.1517C26.7785 12.3116 26.0467 10.5475 24.7456 9.24641C23.4444 7.9453 21.6803 7.21345 19.8403 7.21143ZM19.8403 19.7039C18.7422 19.7039 17.6687 19.3783 16.7556 18.7682C15.8426 18.1581 15.1309 17.291 14.7107 16.2764C14.2905 15.2619 14.1805 14.1455 14.3948 13.0685C14.609 11.9915 15.1378 11.0022 15.9143 10.2257C16.6908 9.44919 17.6801 8.92039 18.7571 8.70616C19.8341 8.49193 20.9505 8.60188 21.965 9.02211C22.9796 9.44235 23.8467 10.154 24.4568 11.067C25.0669 11.9801 25.3925 13.0536 25.3925 14.1517C25.3908 15.6237 24.8053 17.035 23.7645 18.0759C22.7236 19.1167 21.3123 19.7022 19.8403 19.7039Z" fill="white"/>
<path d="M8.73596 28.0322H10.124V29.4203H8.73596V28.0322Z" fill="white"/>
<path d="M11.5121 28.0322H24.0045V29.4203H11.5121V28.0322Z" fill="white"/>
<path d="M8.73596 30.8081H24.0045V32.1962H8.73596V30.8081Z" fill="white"/>
<path d="M8.73596 33.5845H24.0045V34.9725H8.73596V33.5845Z" fill="white"/>
<path d="M13.5941 22.48C13.1651 22.4818 12.747 22.6161 12.3972 22.8645C12.0473 23.113 11.7828 23.4635 11.6398 23.868H8.73596V25.2561H11.6398C11.7811 25.6618 12.0452 26.0134 12.3954 26.2623C12.7456 26.5111 13.1645 26.6448 13.5941 26.6448C14.0237 26.6448 14.4427 26.5111 14.7929 26.2623C15.1431 26.0134 15.4072 25.6618 15.5485 25.2561H24.0045V23.868H15.5485C15.4055 23.4635 15.141 23.113 14.7911 22.8645C14.4413 22.6161 14.0232 22.4818 13.5941 22.48ZM13.5941 25.2561C13.4569 25.2561 13.3227 25.2154 13.2086 25.1391C13.0944 25.0629 13.0055 24.9545 12.9529 24.8276C12.9004 24.7008 12.8867 24.5613 12.9135 24.4267C12.9402 24.292 13.0063 24.1684 13.1034 24.0713C13.2005 23.9742 13.3241 23.9081 13.4587 23.8814C13.5934 23.8546 13.7329 23.8683 13.8597 23.9209C13.9865 23.9734 14.0949 24.0623 14.1712 24.1765C14.2475 24.2906 14.2882 24.4248 14.2882 24.5621C14.2882 24.7461 14.215 24.9227 14.0849 25.0528C13.9547 25.183 13.7782 25.2561 13.5941 25.2561Z" fill="white"/>
</svg>
