<svg width="45" height="45" viewBox="0 0 45 45" fill="none" xmlns="http://www.w3.org/2000/svg">
<g clip-path="url(#clip0)">
<path d="M3.01758 26.2249H3.6695V20.3528C3.6695 19.4231 4.13219 18.6 4.83882 18.0999V17.3004C4.83882 16.1406 5.78233 15.1971 6.94212 15.1971H7.42889L5.56647 12.4641C4.9422 11.5481 5.17958 10.2949 6.09561 9.67055L18.7334 1.05826C19.1771 0.755782 19.7119 0.64415 20.2398 0.744295C20.7674 0.84427 21.2246 1.14368 21.5269 1.58749L32.4349 17.5939H35.4703L34.738 10.1805C34.7297 10.0969 34.6754 10.0245 34.5997 9.996C33.6562 9.64026 32.8386 8.97592 32.2974 8.12541C32.2548 8.05845 32.1744 8.02016 32.0912 8.02858L27.3302 8.49893C26.9889 8.53203 26.6852 8.28341 26.6515 7.94222C26.6178 7.60103 26.867 7.29719 27.2082 7.2635L31.9692 6.79315C32.5218 6.73904 33.0488 6.99369 33.3449 7.45894C33.7427 8.08431 34.344 8.5727 35.0377 8.83425C35.5598 9.03114 35.9184 9.50012 35.9735 10.0584L36.7178 17.5938H37.5094L36.3512 5.86879C36.3095 5.44677 35.9328 5.13672 35.5103 5.179L25.8894 6.1294C25.5482 6.16233 25.2444 5.91388 25.2107 5.57269C25.177 5.2315 25.4262 4.92766 25.7674 4.89397L35.3883 3.94357C36.4913 3.83475 37.4777 4.64348 37.5867 5.74669L38.5203 15.1971H40.1101C41.2698 15.1971 42.2134 16.1406 42.2134 17.3004V17.8458C43.1622 18.2826 43.8228 19.2417 43.8228 20.3528V41.513C43.8228 43.0343 42.5851 44.2719 41.0637 44.2719H6.42846C4.90714 44.2719 3.6695 43.0343 3.6695 41.513V35.6409H3.01758C2.24807 35.6409 1.6221 35.015 1.6221 34.2455V27.6204C1.62202 26.8509 2.24807 26.2249 3.01758 26.2249ZM6.94212 16.4386C6.46684 16.4385 6.08029 16.8252 6.08029 17.3005V17.6167C6.19448 17.6022 6.31045 17.594 6.42846 17.594H9.06226L8.27497 16.4386H6.94212ZM20.5011 2.28654C20.3854 2.1168 20.2105 2.00227 20.0087 1.96399C19.9604 1.95488 19.912 1.95029 19.864 1.95029C19.7111 1.95029 19.5617 1.99606 19.4325 2.08404L6.79475 10.6963C6.44437 10.9352 6.3535 11.4145 6.59225 11.7649L10.5645 17.5937H11.5178L9.5703 14.736C9.25447 14.2725 9.22843 13.6827 9.50257 13.1966C9.86691 12.5508 10.0146 11.7904 9.91847 11.0554C9.847 10.5086 10.0876 9.97473 10.5464 9.66213L17.0978 5.19755C17.5566 4.88487 18.1415 4.85619 18.6243 5.12276C19.273 5.48097 20.0348 5.62162 20.7691 5.51883C21.3136 5.44243 21.8659 5.68832 22.1771 6.1448L29.9793 17.5938H30.9326L20.5011 2.28654ZM20.2277 12.8278C22.9309 12.8278 25.1499 14.9356 25.3307 17.5938H28.4771L21.1514 6.84395C21.1513 6.84395 21.1513 6.84395 21.1513 6.84395C21.1097 6.78277 21.0407 6.74635 20.9698 6.74635C20.9604 6.74635 20.9509 6.74703 20.9415 6.74831C19.9427 6.88802 18.9068 6.69692 18.0243 6.20964C17.9549 6.17118 17.8657 6.17671 17.797 6.22351L11.2455 10.6882C11.177 10.735 11.1393 10.816 11.1495 10.8946C11.2803 11.8942 11.0793 12.9284 10.5838 13.8066C10.5441 13.8771 10.549 13.9675 10.5961 14.0368L13.02 17.5937H15.1244C15.3054 14.9356 17.5243 12.8278 20.2277 12.8278ZM16.3693 17.5939H24.086C23.9082 15.6209 22.2462 14.0694 20.2277 14.0694C18.2091 14.0693 16.547 15.6209 16.3693 17.5939ZM40.9719 17.3004C40.9719 16.8251 40.5854 16.4385 40.1101 16.4385H38.6429L38.757 17.5938H40.9719V17.3004ZM42.5813 20.3528C42.5813 19.5161 41.9005 18.8353 41.0637 18.8353H6.42846C5.59165 18.8353 4.91097 19.5161 4.91097 20.3528V22.0752H42.5813V20.3528ZM4.91097 41.513C4.91097 42.3497 5.59165 43.0305 6.42846 43.0305H41.0637C41.9005 43.0305 42.5813 42.3497 42.5813 41.513V39.7905H39.2339C38.891 39.7905 38.6132 39.5126 38.6132 39.1698C38.6132 38.827 38.8911 38.5491 39.2339 38.5491H42.5813V23.3167H4.91097V26.2249H10.813H10.8131C12.6727 26.2249 14.2835 27.3089 15.048 28.878C15.0505 28.8832 15.0534 28.8883 15.0561 28.8936C15.0625 28.907 15.0681 28.9208 15.0744 28.9343C15.1655 29.1277 15.2446 29.3279 15.309 29.5345C15.3092 29.5351 15.3094 29.5356 15.3095 29.5362C15.4469 29.9777 15.5211 30.4467 15.5211 30.9329C15.5211 33.5289 13.4091 35.6409 10.8131 35.6409H10.8131H4.91106V38.5491H35.2592C35.6021 38.5491 35.8799 38.827 35.8799 39.1698C35.8799 39.5126 35.602 39.7905 35.2592 39.7905H4.91097V41.513ZM2.86349 34.2454C2.86349 34.3304 2.93258 34.3994 3.01758 34.3994H10.8129C12.127 34.3994 13.2728 33.6644 13.8605 32.5839C13.8872 32.5348 13.9127 32.485 13.9371 32.4345C13.9859 32.3335 14.0299 32.2298 14.0687 32.1236C14.205 31.7521 14.2794 31.351 14.2794 30.9329C14.2794 30.5148 14.205 30.1137 14.0687 29.7422C14.0298 29.6361 13.9858 29.5324 13.9371 29.4313C13.9127 29.3809 13.8872 29.331 13.8605 29.2819C13.2728 28.2014 12.127 27.4664 10.8129 27.4664H3.01758C2.93266 27.4664 2.86349 27.5355 2.86349 27.6204V34.2454Z" fill="white"/>
<path d="M10.6683 28.4146C12.0571 28.4146 13.1868 29.5444 13.1868 30.9331C13.1868 32.3217 12.0571 33.4515 10.6683 33.4515C9.27956 33.4515 8.1498 32.3217 8.1498 30.9331C8.1498 29.5444 9.27956 28.4146 10.6683 28.4146ZM10.6683 32.21C11.3725 32.21 11.9454 31.6371 11.9454 30.9331C11.9454 30.229 11.3725 29.656 10.6683 29.656C9.96415 29.656 9.39128 30.2289 9.39128 30.9331C9.39128 31.6372 9.96415 32.21 10.6683 32.21Z" fill="white"/>
</g>
<defs>
<clipPath id="clip0">
<rect width="43.5635" height="43.5635" fill="white" transform="matrix(-1 0 0 1 44.5049 0.708496)"/>
</clipPath>
</defs>
</svg>
