<svg width="42" height="42" viewBox="0 0 42 42" fill="none" xmlns="http://www.w3.org/2000/svg">
<g clip-path="url(#clip0)">
<path d="M37.7547 3.79451H33.9375V2.67339C33.9375 1.34871 32.8598 0.270996 31.5352 0.270996C30.2105 0.270996 29.1328 1.34871 29.1328 2.67339V3.79451H15.6793V2.67339C15.6793 1.34871 14.6016 0.270996 13.2769 0.270996C11.9523 0.270996 10.8745 1.34871 10.8745 2.67339V3.82414C10.8065 3.80532 10.7351 3.79451 10.6611 3.79451H7.47035C5.26255 3.79451 3.46635 5.5907 3.46635 7.79851V21.4388C3.46635 21.881 3.82495 22.2396 4.26715 22.2396C4.70935 22.2396 5.06795 21.881 5.06795 21.4388V12.0427H33.9375C34.3798 12.0427 34.7383 11.6842 34.7383 11.2419C34.7383 10.7997 34.3798 10.4411 33.9375 10.4411H5.06795V7.79851C5.06795 6.47382 6.14567 5.39611 7.47035 5.39611H10.6611C10.7351 5.39611 10.8065 5.38522 10.8745 5.36648V6.39711C10.8745 7.72179 11.9523 8.7995 13.2769 8.7995C14.6016 8.7995 15.6793 7.72179 15.6793 6.39711V5.39611H29.1328V6.39711C29.1328 7.72179 30.2105 8.7995 31.5352 8.7995C32.8598 8.7995 33.9375 7.72179 33.9375 6.39711V5.39611H37.7547C39.0794 5.39611 40.1571 6.47382 40.1571 7.79851V38.2284C40.1571 39.0234 39.5103 39.6703 38.7152 39.6703C37.9201 39.6703 37.2733 39.0234 37.2733 38.2284V36.1568C37.2733 35.7145 36.9147 35.356 36.4725 35.356H27.1575C26.7153 35.356 26.3567 35.7145 26.3567 36.1568C26.3567 36.5991 26.7153 36.9576 27.1575 36.9576H35.6717V38.2284C35.6717 38.7498 35.8036 39.2408 36.0356 39.6703H3.80085C3.00606 39.6703 2.35941 39.0237 2.35941 38.2289V36.9576H20.2833C20.7255 36.9576 21.0841 36.5991 21.0841 36.1568C21.0841 35.7145 20.7255 35.356 20.2833 35.356H12.282C13.6813 34.1509 14.5699 32.3683 14.5699 30.381C14.5699 26.7602 11.6242 23.8145 8.00336 23.8145C4.38255 23.8145 1.43681 26.7602 1.43681 30.381C1.43681 32.3683 2.32538 34.1509 3.72469 35.356H1.55861C1.11641 35.356 0.757812 35.7145 0.757812 36.1568V38.2289C0.757812 39.9068 2.12293 41.2719 3.80085 41.2719H38.7152C40.3933 41.2719 41.7587 39.9066 41.7587 38.2284V7.79851C41.7587 5.5907 39.9625 3.79451 37.7547 3.79451ZM14.0777 6.39711C14.0777 6.83867 13.7185 7.19791 13.2769 7.19791C12.8354 7.19791 12.4761 6.83867 12.4761 6.39711V2.67339C12.4761 2.23183 12.8354 1.87259 13.2769 1.87259C13.7185 1.87259 14.0777 2.23183 14.0777 2.67339V6.39711ZM32.336 6.39711C32.336 6.83867 31.9767 7.19791 31.5352 7.19791C31.0936 7.19791 30.7344 6.83867 30.7344 6.39711V2.67339C30.7344 2.23183 31.0936 1.87259 31.5352 1.87259C31.9767 1.87259 32.336 2.23183 32.336 2.67339V6.39711ZM3.03841 30.381C3.03841 27.6433 5.26567 25.4161 8.00336 25.4161C10.7411 25.4161 12.9683 27.6433 12.9683 30.381C12.9683 33.1187 10.7411 35.346 8.00336 35.346C5.26567 35.346 3.03841 33.1187 3.03841 30.381Z" fill="white"/>
<path d="M38.2599 10.6756C38.1111 10.5266 37.9045 10.4409 37.6939 10.4409C37.4832 10.4409 37.2767 10.5266 37.1277 10.6756C36.9788 10.8245 36.8931 11.0311 36.8931 11.2417C36.8931 11.4523 36.9787 11.6589 37.1277 11.8079C37.2767 11.9568 37.4832 12.0425 37.6939 12.0425C37.9045 12.0425 38.1111 11.9568 38.2599 11.8079C38.4089 11.6589 38.4947 11.4523 38.4947 11.2417C38.4947 11.0311 38.409 10.8245 38.2599 10.6756Z" fill="white"/>
<path d="M24.6737 35.5903C24.5248 35.4413 24.3182 35.3564 24.1076 35.3564C23.897 35.3564 23.6904 35.4413 23.5415 35.5903C23.3925 35.74 23.3068 35.9458 23.3068 36.1564C23.3068 36.3679 23.3924 36.5737 23.5415 36.7234C23.6904 36.8724 23.897 36.9572 24.1076 36.9572C24.3182 36.9572 24.5248 36.8724 24.6737 36.7234C24.8227 36.5737 24.9084 36.3671 24.9084 36.1564C24.9084 35.9458 24.8227 35.74 24.6737 35.5903Z" fill="white"/>
<path d="M18.8756 24.6152C17.1976 24.6152 15.8325 25.9804 15.8325 27.6583C15.8325 29.3362 17.1976 30.7013 18.8756 30.7013C20.5535 30.7013 21.9186 29.3362 21.9186 27.6583C21.9186 25.9804 20.5535 24.6152 18.8756 24.6152ZM18.8756 29.0997C18.0808 29.0997 17.4341 28.4531 17.4341 27.6583C17.4341 26.8635 18.0808 26.2168 18.8756 26.2168C19.6703 26.2168 20.317 26.8635 20.317 27.6583C20.317 28.4531 19.6703 29.0997 18.8756 29.0997Z" fill="white"/>
<path d="M26.3497 24.6152C24.6718 24.6152 23.3066 25.9804 23.3066 27.6583C23.3066 29.3362 24.6718 30.7013 26.3497 30.7013C28.0276 30.7013 29.3927 29.3362 29.3927 27.6583C29.3927 25.9804 28.0276 24.6152 26.3497 24.6152ZM26.3497 29.0997C25.5549 29.0997 24.9082 28.4531 24.9082 27.6583C24.9082 26.8635 25.5549 26.2168 26.3497 26.2168C27.1445 26.2168 27.7911 26.8635 27.7911 27.6583C27.7911 28.4531 27.1445 29.0997 26.3497 29.0997Z" fill="white"/>
<path d="M33.8238 24.6152C32.1459 24.6152 30.7808 25.9804 30.7808 27.6583C30.7808 29.3362 32.1459 30.7013 33.8238 30.7013C35.5017 30.7013 36.8668 29.3362 36.8668 27.6583C36.8668 25.9804 35.5017 24.6152 33.8238 24.6152ZM33.8238 29.0997C33.029 29.0997 32.3824 28.4531 32.3824 27.6583C32.3824 26.8635 33.029 26.2168 33.8238 26.2168C34.6186 26.2168 35.2652 26.8635 35.2652 27.6583C35.2652 28.4531 34.6186 29.0997 33.8238 29.0997Z" fill="white"/>
<path d="M11.4014 16.2871C9.72352 16.2871 8.3584 17.6522 8.3584 19.3301C8.3584 21.0081 9.72352 22.3732 11.4014 22.3732C13.0793 22.3732 14.4445 21.0081 14.4445 19.3301C14.4445 17.6522 13.0793 16.2871 11.4014 16.2871ZM11.4014 20.7716C10.6066 20.7716 9.96 20.1249 9.96 19.3301C9.96 18.5354 10.6066 17.8887 11.4014 17.8887C12.1962 17.8887 12.8429 18.5354 12.8429 19.3301C12.8429 20.1249 12.1962 20.7716 11.4014 20.7716Z" fill="white"/>
<path d="M26.3497 16.2871C24.6718 16.2871 23.3066 17.6522 23.3066 19.3301C23.3066 21.0081 24.6718 22.3732 26.3497 22.3732C28.0276 22.3732 29.3927 21.0081 29.3927 19.3301C29.3927 17.6522 28.0276 16.2871 26.3497 16.2871ZM26.3497 20.7716C25.5549 20.7716 24.9082 20.1249 24.9082 19.3301C24.9082 18.5354 25.5549 17.8887 26.3497 17.8887C27.1445 17.8887 27.7911 18.5354 27.7911 19.3301C27.7911 20.1249 27.1445 20.7716 26.3497 20.7716Z" fill="white"/>
<path d="M33.8238 16.2871C32.1459 16.2871 30.7808 17.6522 30.7808 19.3301C30.7808 21.0081 32.1459 22.3732 33.8238 22.3732C35.5017 22.3732 36.8668 21.0081 36.8668 19.3301C36.8668 17.6522 35.5017 16.2871 33.8238 16.2871ZM33.8238 20.7716C33.029 20.7716 32.3824 20.1249 32.3824 19.3301C32.3824 18.5354 33.029 17.8887 33.8238 17.8887C34.6186 17.8887 35.2652 18.5354 35.2652 19.3301C35.2652 20.1249 34.6186 20.7716 33.8238 20.7716Z" fill="white"/>
<path d="M18.8756 16.2871C17.1976 16.2871 15.8325 17.6522 15.8325 19.3301C15.8325 21.0081 17.1976 22.3732 18.8756 22.3732C20.5535 22.3732 21.9186 21.0081 21.9186 19.3301C21.9186 17.6522 20.5535 16.2871 18.8756 16.2871ZM18.8756 20.7716C18.0808 20.7716 17.4341 20.1249 17.4341 19.3301C17.4341 18.5354 18.0808 17.8887 18.8756 17.8887C19.6703 17.8887 20.317 18.5354 20.317 19.3301C20.317 20.1249 19.6703 20.7716 18.8756 20.7716Z" fill="white"/>
<path d="M10.8564 28.4294C10.5436 28.1166 10.0367 28.1166 9.7238 28.4294L7.11592 31.0373L6.22471 30.1461C5.91192 29.8334 5.40501 29.8334 5.09214 30.1461C4.77943 30.4588 4.77943 30.9659 5.09214 31.2787L6.54967 32.7361C6.6999 32.8862 6.90355 32.9706 7.11592 32.9706C7.32829 32.9706 7.53193 32.8862 7.68216 32.7361L10.8564 29.5618C11.1691 29.2491 11.1691 28.7421 10.8564 28.4294Z" fill="white"/>
</g>
<defs>
<clipPath id="clip0">
<rect width="41.0009" height="41.0009" fill="white" transform="translate(0.757812 0.270996)"/>
</clipPath>
</defs>
</svg>
