<svg width="58" height="58" viewBox="0 0 58 58" fill="none" xmlns="http://www.w3.org/2000/svg">
<g clip-path="url(#clip0)">
<path d="M28.7297 37.8235C27.1057 37.8235 25.7845 39.1447 25.7845 40.7687C25.7845 42.3927 27.1058 43.7139 28.7297 43.7139C30.3536 43.7139 31.6749 42.3927 31.6749 40.7687C31.6749 39.1447 30.3538 37.8235 28.7297 37.8235ZM28.7297 41.4484C28.3548 41.4484 28.05 41.1435 28.05 40.7687C28.05 40.3938 28.3548 40.089 28.7297 40.089C29.1045 40.089 29.4094 40.3938 29.4094 40.7687C29.4094 41.1435 29.1045 41.4484 28.7297 41.4484Z" fill="black"/>
<path d="M37.8221 34.0693C37.6114 33.8586 37.3191 33.7373 37.0212 33.7373C36.7232 33.7373 36.431 33.8585 36.2203 34.0693C36.0084 34.2799 35.8884 34.5722 35.8884 34.8701C35.8884 35.1682 36.0084 35.4604 36.2203 35.671C36.431 35.8818 36.7232 36.0029 37.0212 36.0029C37.3191 36.0029 37.6114 35.8818 37.8221 35.671C38.0328 35.4604 38.154 35.1682 38.154 34.8701C38.154 34.5722 38.0328 34.2799 37.8221 34.0693Z" fill="black"/>
<path d="M52.3358 16.311H51.1145L35.1356 0.332117C34.6933 -0.110246 33.9759 -0.110246 33.5336 0.332117L29.4401 4.42576L13.0682 0.0389452C12.4639 -0.12316 11.8426 0.235601 11.6808 0.839957L7.53556 16.311H4.75904C2.13567 16.311 0.00134277 18.4452 0.00134277 21.0687C0.00134277 21.1316 0.00372168 21.194 0.00610059 21.2563C0.00349512 21.2875 0.00134277 21.3187 0.00134277 21.3506V52.3362C0.00134277 55.4591 2.54224 58 5.66529 58H46.2187C46.2363 58 46.2535 57.9989 46.2711 57.9986H52.3357C55.4587 57.9986 57.9995 55.4578 57.9995 52.3347V21.9748C57.9996 18.8517 55.4589 16.311 52.3358 16.311ZM51.3238 18.5765H52.3358C54.2097 18.5765 55.7341 20.1011 55.7341 21.9748V31.0535C55.7341 32.534 54.5296 33.7384 53.0493 33.7384H51.8827V29.2246C51.8827 26.141 49.4053 23.6268 46.3365 23.5636L51.3238 18.5765ZM30.5797 6.4902C30.5798 6.49009 30.5799 6.48986 30.58 6.48975L34.3347 2.73504L49.1481 17.5484L43.1725 23.524H41.1001L43.8107 20.8133C44.2531 20.3709 44.2531 19.6536 43.8107 19.2112C42.8937 18.2942 42.8937 16.8023 43.8107 15.8853C44.2531 15.4429 44.2531 14.7256 43.8107 14.2832L37.5997 8.0724C37.1574 7.63004 36.4401 7.63004 35.9976 8.0724C35.0806 8.98953 33.5886 8.98953 32.6717 8.0724C32.2293 7.63004 31.5119 7.63004 31.0696 8.0724L15.6181 23.5241H13.5457L30.5797 6.4902ZM27.2459 19.2681C24.66 19.2681 22.4933 21.0941 21.9649 23.5241H18.8219L31.97 10.376C33.4212 11.241 35.248 11.241 36.6993 10.376L41.507 15.1837C40.6421 16.6349 40.6421 18.4619 41.507 19.913L37.896 23.5241H32.527C31.9985 21.094 29.832 19.2681 27.2459 19.2681ZM30.167 23.5241H24.3253C24.785 22.3599 25.9207 21.5337 27.2462 21.5337C28.5717 21.5337 29.7072 22.3599 30.167 23.5241ZM12.3484 21.5173L15.3483 10.3214C16.1709 10.3346 16.9891 10.1246 17.7219 9.70127C18.4549 9.27817 19.0446 8.67653 19.4457 7.95572L24.544 9.32178L17.1454 16.7203L12.3484 21.5173ZM13.5761 2.52048L27.5902 6.27553L26.3938 7.47201L19.0725 5.5102C18.7821 5.43238 18.473 5.47316 18.2129 5.62337C17.9527 5.77358 17.7628 6.02099 17.6851 6.31122C17.5224 6.91795 17.1333 7.42511 16.5893 7.73924C16.0453 8.05337 15.4114 8.13674 14.8046 7.97419C14.2005 7.81219 13.5791 8.17084 13.4172 8.7752L9.45534 23.5608H7.93828L13.5761 2.52048ZM4.75904 18.5765H6.92826L5.59268 23.5608H4.75893C3.38471 23.5608 2.26685 22.4428 2.26685 21.0687C2.26697 19.6945 3.38505 18.5765 4.75904 18.5765ZM55.7341 52.3347C55.7341 54.2086 54.2096 55.733 52.3358 55.733H50.7478C51.46 54.786 51.8827 53.6096 51.8827 52.336V47.7849H52.5624C53.7455 47.7849 54.8406 47.4039 55.7341 46.7598V52.3347ZM55.7341 42.3476C55.7341 44.0965 54.3112 45.5193 52.5624 45.5193H28.774C26.1506 45.5193 24.0163 43.3851 24.0163 40.7616C24.0163 38.1382 26.1505 36.0039 28.774 36.0039H32.2071C32.8327 36.0039 33.3399 35.4967 33.3399 34.8711C33.3399 34.2456 32.8327 33.7383 32.2071 33.7383H28.774C24.9014 33.7383 21.7508 36.8889 21.7508 40.7615C21.7508 44.6342 24.9014 47.7847 28.774 47.7847H49.6172V52.3359C49.6172 54.1923 48.1208 55.706 46.2712 55.7343H7.70424V42.9778C7.70424 42.3522 7.19708 41.8449 6.57143 41.8449C5.94578 41.8449 5.43862 42.3522 5.43862 42.9778V55.726C3.67007 55.609 2.26685 54.1337 2.26685 52.3362V25.1192C2.99219 25.5671 3.84577 25.8263 4.75893 25.8263H46.2186C48.0925 25.8263 49.6169 27.3508 49.6169 29.2246V33.7384H41.4264C40.8007 33.7384 40.2936 34.2457 40.2936 34.8712C40.2936 35.4968 40.8007 36.0041 41.4264 36.0041H53.0493C54.0385 36.0041 54.9602 35.7112 55.7341 35.2094V42.3476Z" fill="black"/>
<path d="M7.37182 37.7587C7.16112 37.5481 6.86885 37.4268 6.57092 37.4268C6.27299 37.4268 5.98073 37.548 5.77002 37.7587C5.55932 37.9694 5.43811 38.2616 5.43811 38.5596C5.43811 38.8575 5.55932 39.1498 5.77002 39.3605C5.98073 39.5712 6.27299 39.6924 6.57092 39.6924C6.86885 39.6924 7.16112 39.5712 7.37182 39.3605C7.58252 39.1498 7.70373 38.8575 7.70373 38.5596C7.70362 38.2616 7.58241 37.9694 7.37182 37.7587Z" fill="black"/>
</g>
<defs>
<clipPath id="clip0">
<rect width="58" height="58" fill="white"/>
</clipPath>
</defs>
</svg>
