<svg width="104" height="66" viewBox="0 0 104 66" fill="none" xmlns="http://www.w3.org/2000/svg">
<rect x="50" y="27" width="54" height="32" rx="3" fill="#476ED3"/>
<g filter="url(#filter0_d)">
<path d="M89.24 43.44V47.376H87.056V51H82.184V47.376H74.84V43.008L82.304 34.392H87.056V43.44H89.24ZM82.352 43.464V40.296L82.424 38.76L78.464 43.536C79.184 43.488 79.68 43.464 79.952 43.464H82.352Z" fill="white"/>
</g>
<g clip-path="url(#clip0)">
<path d="M34.0763 53.5925H32.0084C31.4374 53.5925 30.9744 53.1295 30.9744 52.5585C30.9744 51.9875 31.4374 51.5245 32.0084 51.5245H36.1442V49.4566H34.0763V47.3887H32.0084V49.4566C30.2954 49.4566 28.9065 50.8455 28.9065 52.5585C28.9065 54.2715 30.2954 55.6604 32.0084 55.6604H34.0763C34.6473 55.6604 35.1103 56.1233 35.1103 56.6943C35.1103 57.2653 34.6473 57.7283 34.0763 57.7283H29.9405V59.7962H32.0084V61.8642H34.0763V59.7962C35.7893 59.7962 37.1782 58.4073 37.1782 56.6943C37.1782 54.9813 35.7893 53.5925 34.0763 53.5925Z" fill="black"/>
<path d="M36.8754 25.3723L35.4133 23.9102L34.0764 25.2471V18.4375H32.0084V25.2471L30.6716 23.9102L29.2095 25.3723L33.0424 29.2053L36.8754 25.3723Z" fill="black"/>
<path d="M33.0424 43.2529C26.7609 43.2529 21.6688 48.345 21.6688 54.6265C21.6688 60.9081 26.7609 66.0001 33.0424 66.0001C39.324 66.0001 44.416 60.9081 44.416 54.6265C44.4085 48.348 39.3209 43.2605 33.0424 43.2529ZM33.0424 63.9322C27.9029 63.9322 23.7368 59.7661 23.7368 54.6265C23.7368 49.487 27.9029 45.3209 33.0424 45.3209C38.182 45.3209 42.3481 49.487 42.3481 54.6265C42.3421 59.7635 38.1794 63.9261 33.0424 63.9322Z" fill="black"/>
<path d="M36.7183 1.72058L35.5702 0L33.0424 1.68524L30.5145 0L29.3665 1.72058L33.0424 4.1712L36.7183 1.72058Z" fill="black"/>
<path d="M36.7183 7.40759L35.5702 5.68701L33.0424 7.37225L30.5145 5.68701L29.3665 7.40759L33.0424 9.85821L36.7183 7.40759Z" fill="black"/>
<path d="M50.1598 1.72058L49.0118 0L46.4839 1.68524L43.956 0L42.808 1.72058L46.4839 4.1712L50.1598 1.72058Z" fill="black"/>
<path d="M50.1598 7.40759L49.0118 5.68701L46.4839 7.37225L43.956 5.68701L42.808 7.40759L46.4839 9.85821L50.1598 7.40759Z" fill="black"/>
<path d="M23.2769 1.72058L22.1288 0L19.601 1.68524L17.0731 0L15.925 1.72058L19.601 4.1712L23.2769 1.72058Z" fill="black"/>
<path d="M23.2769 7.40759L22.1288 5.68701L19.601 7.37225L17.0731 5.68701L15.925 7.40759L19.601 9.85821L23.2769 7.40759Z" fill="black"/>
<path d="M27.8726 41.4752L38.2122 38.8903V32.3073L51.6537 18.8658V12.2339H14.431V18.8658L27.8726 32.3073V41.4752ZM16.499 18.0095V14.3018H49.5858V18.0095L36.1443 31.4511V37.2752L29.9405 38.8262V31.4511L16.499 18.0095Z" fill="black"/>
<path d="M55.7897 41.1851H57.8576V66.0002H55.7897V41.1851Z" fill="black"/>
<path d="M51.6538 45.3208H53.7217V66.0001H51.6538V45.3208Z" fill="black"/>
<path d="M8.22717 41.1851H10.2951V66.0002H8.22717V41.1851Z" fill="black"/>
<path d="M12.3632 45.3208H14.4311V66.0001H12.3632V45.3208Z" fill="black"/>
<path d="M47.5179 49.4565H49.5859V66H47.5179V49.4565Z" fill="black"/>
<path d="M16.499 49.4565H18.5669V66H16.499V49.4565Z" fill="black"/>
<path d="M16.499 45.3208H18.5669V47.3887H16.499V45.3208Z" fill="black"/>
<path d="M12.3632 41.1851H14.4311V43.253H12.3632V41.1851Z" fill="black"/>
<path d="M8.22717 37.0488H10.2951V39.1168H8.22717V37.0488Z" fill="black"/>
<path d="M47.5179 45.3208H49.5859V47.3887H47.5179V45.3208Z" fill="black"/>
<path d="M51.6538 41.1851H53.7217V43.253H51.6538V41.1851Z" fill="black"/>
<path d="M55.7897 37.0488H57.8576V39.1168H55.7897V37.0488Z" fill="black"/>
</g>
<defs>
<filter id="filter0_d" x="70.84" y="34.3921" width="22.4" height="24.608" filterUnits="userSpaceOnUse" color-interpolation-filters="sRGB">
<feFlood flood-opacity="0" result="BackgroundImageFix"/>
<feColorMatrix in="SourceAlpha" type="matrix" values="0 0 0 0 0 0 0 0 0 0 0 0 0 0 0 0 0 0 127 0"/>
<feOffset dy="4"/>
<feGaussianBlur stdDeviation="2"/>
<feColorMatrix type="matrix" values="0 0 0 0 0 0 0 0 0 0 0 0 0 0 0 0 0 0 0.1 0"/>
<feBlend mode="normal" in2="BackgroundImageFix" result="effect1_dropShadow"/>
<feBlend mode="normal" in="SourceGraphic" in2="effect1_dropShadow" result="shape"/>
</filter>
<clipPath id="clip0">
<rect width="66" height="66" fill="white"/>
</clipPath>
</defs>
</svg>
