<svg width="95" height="60" viewBox="0 0 95 60" fill="none" xmlns="http://www.w3.org/2000/svg">
<rect x="41" y="8" width="54" height="32" rx="3" fill="#F9E850"/>
<g filter="url(#filter0_d)">
<path d="M76.712 15.368V32H71.72V22.472H67.832V18.968H68.288C69.504 18.968 70.536 18.648 71.384 18.008C72.248 17.352 72.696 16.472 72.728 15.368H76.712Z" fill="white"/>
</g>
<g clip-path="url(#clip0)">
<path d="M56.1633 47.1009H49.4438C48.2974 47.1009 47.3648 46.1683 47.3648 45.022V44.7267H55.0818C56.3411 44.7267 57.3656 43.7021 57.3656 42.4427V37.2539C57.3656 37.2501 57.3662 37.2464 57.3662 37.2426C57.3662 37.2387 57.3657 37.2351 57.3656 37.2312V10.4599C57.3656 9.20046 56.3411 8.17589 55.0818 8.17589H53.4315V4.1C53.4315 3.17527 52.8093 2.36128 51.9183 2.12035C50.5693 1.75566 49.2615 1.4607 48.0314 1.24367C47.5541 1.15859 47.0975 1.47839 47.0133 1.95652C46.929 2.43464 47.2481 2.8905 47.7261 2.97476C48.9049 3.18277 50.1609 3.46625 51.4596 3.81734C51.5857 3.85144 51.6737 3.96769 51.6737 4.1V33.8342H29.5621V8.12515C33.3465 4.11347 38.0028 2.28289 43.7855 2.52957C44.2709 2.55078 44.6805 2.1739 44.7011 1.68898C44.7218 1.20406 44.3454 0.794136 43.8605 0.773394C37.7389 0.5123 32.7634 2.39 28.684 6.50679C25.7273 3.51921 22.3407 1.73187 18.3578 1.05359C14.6571 0.423472 10.4343 0.772339 5.44793 2.12046C4.55695 2.3614 3.9348 3.17539 3.9348 4.10011V8.17601H2.28398C1.02457 8.17589 0 9.20046 0 10.4599V19.2138C0 19.6992 0.393398 20.0927 0.878906 20.0927C1.36441 20.0927 1.75781 19.6992 1.75781 19.2138V10.4599C1.75781 10.1697 1.99395 9.93371 2.28398 9.93371H3.9348V34.2444C3.9348 34.9875 4.53937 35.592 5.28246 35.592H52.0837C52.8268 35.592 53.4314 34.9875 53.4314 34.2444V9.93371H55.0816C55.3718 9.93371 55.6077 10.1697 55.6077 10.4599V37.2484C55.6045 37.5359 55.3703 37.769 55.082 37.769H2.2841C1.99383 37.769 1.75781 37.5329 1.75781 37.2426V23.3153C1.75781 22.83 1.36441 22.4364 0.878906 22.4364C0.393398 22.4364 0 22.83 0 23.3153V42.4427C0 43.7021 1.02457 44.7267 2.28398 44.7267H22.3371L20.271 49.6052H17.8359C16.163 49.6052 14.8018 50.9662 14.8018 52.6392V54.1286C14.8018 54.8943 15.4248 55.5173 16.1906 55.5173H28.0962C28.4839 57.6376 30.3437 59.2502 32.5743 59.2502H39.703C42.1874 59.2502 44.2122 57.25 44.2546 54.7755H56.1633C58.2789 54.7755 60 53.0539 60 50.9376C60 48.822 58.2789 47.1009 56.1633 47.1009ZM5.69262 9.0616C5.69262 9.05925 5.69297 9.05714 5.69297 9.0548C5.69297 9.05245 5.69262 9.05035 5.69262 9.048V4.1C5.69262 3.96769 5.78062 3.85132 5.9066 3.81734C10.6419 2.53707 14.6186 2.20003 18.0627 2.78644C21.8346 3.42875 25.0245 5.17671 27.8041 8.12562V33.8342H5.69262V9.0616ZM1.75781 42.4427V39.4632C1.92715 39.5034 2.1027 39.5268 2.2841 39.5268H55.082C55.2632 39.5268 55.4386 39.5034 55.6077 39.4633V42.4427C55.6077 42.7328 55.3717 42.9689 55.0816 42.9689H2.28398C1.99395 42.9689 1.75781 42.7328 1.75781 42.4427ZM24.2461 44.7267H33.1199L34.7365 48.5423H32.5743C31.4638 48.5423 30.4454 48.9424 29.6543 49.6052H22.1801L24.2461 44.7267ZM16.5598 52.6392C16.5598 51.9355 17.1323 51.363 17.8361 51.363H28.3642C28.1433 51.8975 28.0207 52.4826 28.0207 53.096V53.7596H16.5598V52.6392ZM42.4987 54.6965C42.4987 56.2381 41.2446 57.4923 39.703 57.4923H32.5743C31.0327 57.4923 29.7785 56.2381 29.7785 54.6965V53.0959C29.7785 51.5542 31.0327 50.3001 32.5743 50.3001H39.703C41.2446 50.3001 42.4987 51.5542 42.4987 53.0959V54.6965ZM56.1633 53.0177H44.2547C44.2126 50.5429 42.1876 48.5423 39.703 48.5423H36.6455L35.0289 44.7267H45.607V45.022C45.607 47.1376 47.3283 48.8587 49.4438 48.8587H56.1633C57.3096 48.8587 58.2422 49.7913 58.2422 50.9376C58.2422 52.0846 57.3096 53.0177 56.1633 53.0177Z" fill="black"/>
<path d="M39.7944 53.0171H38.6982C38.2127 53.0171 37.8193 53.4106 37.8193 53.896C37.8193 54.3814 38.2127 54.7749 38.6982 54.7749H39.7944C40.2799 54.7749 40.6733 54.3814 40.6733 53.896C40.6733 53.4106 40.2799 53.0171 39.7944 53.0171Z" fill="black"/>
<path d="M14.5187 16.4794L14.893 17.8048C15.0025 18.1921 15.3548 18.445 15.7384 18.445C15.8175 18.445 15.8979 18.4342 15.9777 18.4117C16.4448 18.2798 16.7167 17.7941 16.5847 17.327L14.3655 9.46949C14.2426 9.0332 13.8403 8.72852 13.387 8.72852H13.0677C12.6152 8.72852 12.213 9.03262 12.0893 9.46879L9.86999 17.327C9.73804 17.7941 10.0098 18.2798 10.477 18.4117C10.9437 18.5437 11.4298 18.2719 11.5617 17.8048L11.936 16.4794H14.5187ZM13.2273 11.907L14.0222 14.7215H12.4324L13.2273 11.907Z" fill="black"/>
<path d="M22.7807 21.6458H20.705L23.5476 16.5691C23.7001 16.297 23.6967 15.9645 23.5391 15.6953C23.3812 15.4262 23.0927 15.2607 22.7807 15.2607H19.2056C18.7201 15.2607 18.3267 15.6543 18.3267 16.1396C18.3267 16.625 18.7201 17.0186 19.2056 17.0186H21.2813L18.4387 22.0952C18.2862 22.3673 18.2896 22.6999 18.4473 22.9691C18.6051 23.2382 18.8936 23.4036 19.2056 23.4036H22.7807C23.2662 23.4036 23.6596 23.0101 23.6596 22.5247C23.6596 22.0393 23.2662 21.6458 22.7807 21.6458Z" fill="black"/>
<path d="M19.8627 29.1133H13.6341C13.1486 29.1133 12.7552 29.5068 12.7552 29.9922C12.7552 30.4776 13.1486 30.8711 13.6341 30.8711H19.8627C20.3482 30.8711 20.7416 30.4776 20.7416 29.9922C20.7416 29.5068 20.3482 29.1133 19.8627 29.1133Z" fill="black"/>
<path d="M37.5034 29.1133C37.0178 29.1133 36.6245 29.5068 36.6245 29.9922C36.6245 30.4776 37.0178 30.8711 37.5034 30.8711H43.732C44.2175 30.8711 44.6109 30.4776 44.6109 29.9922C44.6109 29.5068 44.2175 29.1133 43.732 29.1133H37.5034Z" fill="black"/>
<path d="M45.1784 15.5792C44.7139 15.3953 44.191 15.5134 43.8461 15.8806L40.3936 19.5589C40.0493 19.9258 39.9566 20.4633 40.1579 20.9283C40.354 21.381 40.7948 21.6736 41.281 21.6736H44.7337C45.4106 21.6736 45.9615 21.1126 45.9615 20.4231V16.7448C45.9615 16.225 45.6541 15.7675 45.1784 15.5792ZM44.2037 19.9158H42.4694L44.2037 18.0681V19.9158Z" fill="black"/>
<path d="M49.3492 24.0242V8.10907C49.3492 7.58571 49.0397 7.12505 48.5608 6.93556C48.0934 6.75064 47.5672 6.8697 47.2207 7.23896L32.2832 23.1541C31.9363 23.5234 31.8431 24.0647 32.0459 24.5329C32.2432 24.9885 32.6868 25.283 33.1762 25.283H48.1139C48.795 25.283 49.3492 24.7183 49.3492 24.0242ZM47.5914 23.5252H34.3457L35.7537 22.0251L35.8961 22.1767C36.0692 22.3611 36.3028 22.4541 36.5372 22.4541C36.7527 22.4541 36.9689 22.3752 37.1385 22.2161C37.4925 21.8839 37.5101 21.3277 37.1779 20.9737L36.9592 20.7407L38.8915 18.682L39.034 18.8337C39.2071 19.0181 39.4408 19.1111 39.6751 19.1111C39.8906 19.1111 40.1068 19.0322 40.2764 18.8731C40.6304 18.5409 40.648 17.9847 40.3158 17.6307L40.097 17.3976L42.0293 15.3388L42.1718 15.4907C42.3449 15.675 42.5786 15.7681 42.8129 15.7681C43.0285 15.7681 43.2447 15.6892 43.4142 15.5301C43.7683 15.1979 43.7858 14.6417 43.4536 14.2877L43.2347 14.0545L45.1671 11.9957L45.3097 12.1477C45.4828 12.332 45.7165 12.4251 45.9509 12.4251C46.1664 12.4251 46.3826 12.3462 46.5522 12.1871C46.9062 11.8549 46.9238 11.2987 46.5915 10.9447L46.3726 10.7113L47.5916 9.41255V23.5252H47.5914Z" fill="black"/>
</g>
<defs>
<filter id="filter0_d" x="63.832" y="15.3682" width="16.88" height="24.632" filterUnits="userSpaceOnUse" color-interpolation-filters="sRGB">
<feFlood flood-opacity="0" result="BackgroundImageFix"/>
<feColorMatrix in="SourceAlpha" type="matrix" values="0 0 0 0 0 0 0 0 0 0 0 0 0 0 0 0 0 0 127 0"/>
<feOffset dy="4"/>
<feGaussianBlur stdDeviation="2"/>
<feColorMatrix type="matrix" values="0 0 0 0 0 0 0 0 0 0 0 0 0 0 0 0 0 0 0.1 0"/>
<feBlend mode="normal" in2="BackgroundImageFix" result="effect1_dropShadow"/>
<feBlend mode="normal" in="SourceGraphic" in2="effect1_dropShadow" result="shape"/>
</filter>
<clipPath id="clip0">
<rect width="60" height="60" fill="white"/>
</clipPath>
</defs>
</svg>
