<svg width="96" height="62" viewBox="0 0 96 62" fill="none" xmlns="http://www.w3.org/2000/svg">
<rect x="42" y="13" width="54" height="32" rx="3" fill="#476ED3"/>
<g filter="url(#filter0_d)">
<path d="M80.088 20.392V24.376H72.456L72.264 25.384C72.2 25.768 72.072 26.24 71.88 26.8C72.824 25.984 74.016 25.576 75.456 25.576C77.168 25.576 78.52 26.064 79.512 27.04C80.52 28.016 81.024 29.344 81.024 31.024C81.024 33.088 80.336 34.64 78.96 35.68C77.584 36.704 75.848 37.216 73.752 37.216C71.672 37.216 69.976 36.776 68.664 35.896C67.368 35 66.672 33.592 66.576 31.672H71.232C71.328 32.84 72.16 33.424 73.728 33.424C74.528 33.424 75.152 33.224 75.6 32.824C76.048 32.408 76.272 31.832 76.272 31.096C76.272 30.344 76.048 29.768 75.6 29.368C75.168 28.952 74.536 28.744 73.704 28.744C72.664 28.744 71.928 29.144 71.496 29.944H67.152L68.808 20.392H80.088Z" fill="white"/>
</g>
<path d="M0.96875 0.96875V43.5938H12.5938V57.6406C12.5938 59.5103 14.1147 61.0312 15.9844 61.0312C16.9338 61.0312 17.7901 60.637 18.4062 60.0063C19.0224 60.637 19.8787 61.0312 20.8281 61.0312C22.6978 61.0312 24.2188 59.5103 24.2188 57.6406V43.5938H61.0312V0.96875H0.96875ZM26.1562 39.7188C26.1562 40.7873 25.2873 41.6562 24.2188 41.6562V32.9375H22.2812V57.6406C22.2812 58.4418 21.6293 59.0938 20.8281 59.0938C20.027 59.0938 19.375 58.4418 19.375 57.6406V39.7188H17.4375V57.6406C17.4375 58.4418 16.7855 59.0938 15.9844 59.0938C15.1832 59.0938 14.5312 58.4418 14.5312 57.6406V32.9375H12.5938V41.6562C11.5252 41.6562 10.6562 40.7873 10.6562 39.7188V33.9062C10.6562 29.6331 14.1331 26.1562 18.4062 26.1562C22.6794 26.1562 26.1562 29.6331 26.1562 33.9062V39.7188ZM13.5625 19.375C13.5625 16.7042 15.7354 14.5312 18.4062 14.5312C21.0771 14.5312 23.25 16.7042 23.25 19.375C23.25 22.0458 21.0771 24.2188 18.4062 24.2188C15.7354 24.2188 13.5625 22.0458 13.5625 19.375ZM59.0938 41.6562H27.5551C27.8884 41.0837 28.0938 40.4279 28.0938 39.7188V34.4546L32.2371 31.9688H57.1562V30.0312H55.2188V12.5938H49.4062V30.0312H47.4688V20.3438H41.6562V30.0312H39.7188V14.5312H33.9062V30.0312H31.7004L27.9465 32.2836C27.3885 28.9976 25.1807 26.2677 22.1989 24.9937C24.0008 23.7731 25.1875 21.7097 25.1875 19.375C25.1875 15.6366 22.1456 12.5938 18.4062 12.5938C14.6669 12.5938 11.625 15.6366 11.625 19.375C11.625 21.7097 12.8117 23.7731 14.6136 24.9937C11.1513 26.4721 8.71875 29.9102 8.71875 33.9062V39.7188C8.71875 40.4279 8.92412 41.0837 9.25737 41.6562H2.90625V10.6562H59.0938V41.6562ZM35.8438 30.0312V16.4688H37.7812V30.0312H35.8438ZM43.5938 30.0312V22.2812H45.5312V30.0312H43.5938ZM51.3438 30.0312V14.5312H53.2812V30.0312H51.3438ZM59.0938 8.71875H2.90625V2.90625H59.0938V8.71875Z" fill="black"/>
<path d="M4.84375 4.84375H6.78125V6.78125H4.84375V4.84375Z" fill="black"/>
<path d="M8.71875 4.84375H10.6562V6.78125H8.71875V4.84375Z" fill="black"/>
<path d="M12.5938 4.84375H14.5312V6.78125H12.5938V4.84375Z" fill="black"/>
<path d="M34.875 47.0677L32.9375 49.0052V46.5H31V56.1875H32.9375V53.6823L34.875 55.6198V56.1875H36.8125V54.8177L33.3386 51.3438L36.8125 47.8698V46.5H34.875V47.0677Z" fill="black"/>
<path d="M42.1406 46.5H38.75V56.1875H40.6875V53.2812H42.1406C44.0103 53.2812 45.5312 51.7603 45.5312 49.8906C45.5312 48.0209 44.0103 46.5 42.1406 46.5ZM42.1406 51.3438H40.6875V48.4375H42.1406C42.9418 48.4375 43.5938 49.0895 43.5938 49.8906C43.5938 50.6918 42.9418 51.3438 42.1406 51.3438Z" fill="black"/>
<path d="M46.5 48.4375H48.4375V54.25H46.5V56.1875H52.3125V54.25H50.375V48.4375H52.3125V46.5H46.5V48.4375Z" fill="black"/>
<path d="M55.2188 33.9062H57.1562V35.8438H55.2188V33.9062Z" fill="black"/>
<path d="M43.5938 33.9062H53.2812V35.8438H43.5938V33.9062Z" fill="black"/>
<path d="M55.2188 37.7812H57.1562V39.7188H55.2188V37.7812Z" fill="black"/>
<path d="M43.5938 37.7812H53.2812V39.7188H43.5938V37.7812Z" fill="black"/>
<path d="M4.84375 37.7812H6.78125V39.7188H4.84375V37.7812Z" fill="black"/>
<path d="M4.84375 33.9062H6.78125V35.8438H4.84375V33.9062Z" fill="black"/>
<path d="M4.84375 30.0312H6.78125V31.9688H4.84375V30.0312Z" fill="black"/>
<defs>
<filter id="filter0_d" x="62.576" y="20.3921" width="22.448" height="24.824" filterUnits="userSpaceOnUse" color-interpolation-filters="sRGB">
<feFlood flood-opacity="0" result="BackgroundImageFix"/>
<feColorMatrix in="SourceAlpha" type="matrix" values="0 0 0 0 0 0 0 0 0 0 0 0 0 0 0 0 0 0 127 0"/>
<feOffset dy="4"/>
<feGaussianBlur stdDeviation="2"/>
<feColorMatrix type="matrix" values="0 0 0 0 0 0 0 0 0 0 0 0 0 0 0 0 0 0 0.1 0"/>
<feBlend mode="normal" in2="BackgroundImageFix" result="effect1_dropShadow"/>
<feBlend mode="normal" in="SourceGraphic" in2="effect1_dropShadow" result="shape"/>
</filter>
</defs>
</svg>
