<svg width="105" height="66" viewBox="0 0 105 66" fill="none" xmlns="http://www.w3.org/2000/svg">
<rect x="51" y="18" width="54" height="32" rx="3" fill="#F9E850"/>
<g filter="url(#filter0_d)">
<path d="M76.296 30.888C76.376 28.984 77.016 27.56 78.216 26.616C79.432 25.672 81.04 25.2 83.04 25.2C85.04 25.2 86.632 25.632 87.816 26.496C89.016 27.344 89.616 28.496 89.616 29.952C89.616 30.784 89.4 31.48 88.968 32.04C88.552 32.584 87.976 32.92 87.24 33.048C88.152 33.256 88.856 33.68 89.352 34.32C89.864 34.96 90.12 35.76 90.12 36.72C90.12 37.488 89.984 38.184 89.712 38.808C89.44 39.432 89.072 39.952 88.608 40.368C88.16 40.784 87.624 41.136 87 41.424C86.392 41.696 85.76 41.896 85.104 42.024C84.448 42.152 83.768 42.216 83.064 42.216C80.936 42.216 79.192 41.712 77.832 40.704C76.488 39.696 75.816 38.184 75.816 36.168C75.816 35.992 75.824 35.84 75.84 35.712H80.352V35.952C80.352 37.504 81.184 38.28 82.848 38.28C83.6 38.28 84.184 38.128 84.6 37.824C85.016 37.52 85.224 37.088 85.224 36.528C85.224 35.36 84.36 34.776 82.632 34.776C82.616 34.776 82.568 34.784 82.488 34.8C82.424 34.8 82.328 34.8 82.2 34.8C82.072 34.8 81.936 34.8 81.792 34.8H81.6V31.704C81.792 31.72 82.056 31.728 82.392 31.728C83 31.728 83.416 31.72 83.64 31.704C84.104 31.672 84.472 31.536 84.744 31.296C85.032 31.04 85.176 30.728 85.176 30.36C85.176 29.912 84.984 29.552 84.6 29.28C84.216 29.008 83.696 28.872 83.04 28.872C81.552 28.872 80.8 29.544 80.784 30.888H76.296Z" fill="white"/>
</g>
<path d="M57.3195 13.1782H46.3689V13.1627C46.3689 11.9828 45.409 11.0229 44.2291 11.0229H41.1134V6.9368L44.3261 5.95131C44.8882 5.77896 45.2657 5.26527 45.2657 4.67308C45.2657 4.08088 44.8882 3.56706 44.3261 3.39484L33.5078 0.0762803C33.1756 -0.0254268 32.8245 -0.0254268 32.4923 0.0762803L21.6741 3.39471C21.1121 3.56706 20.7345 4.08075 20.7345 4.67295C20.7345 4.96724 20.828 5.2422 20.9908 5.46546V8.40233C20.9908 8.93626 21.4236 9.36913 21.9576 9.36913C22.4915 9.36913 22.9244 8.93626 22.9244 8.40233V6.33481L24.8868 6.9368V11.0229H21.7712C20.5913 11.0229 19.6313 11.9828 19.6313 13.1627V13.1782H8.68074C7.39425 13.1782 6.34753 14.2249 6.34753 15.5114V21.8794C6.34753 22.4133 6.7804 22.8461 7.31433 22.8461C7.84826 22.8461 8.28113 22.4133 8.28113 21.8794V15.5114C8.28113 15.2911 8.46044 15.1118 8.68074 15.1118H19.6313V17.0028H11.6855C10.8511 17.0028 10.1722 17.6818 10.1722 18.5162V43.7547C10.1722 44.5891 10.8511 45.2681 11.6855 45.2681H27.4766V47.1591H8.68074C8.46044 47.1591 8.28113 46.9792 8.28113 46.759V26.3908C8.28113 25.8569 7.84826 25.424 7.31433 25.424C6.7804 25.424 6.34753 25.8569 6.34753 26.3908V51.8265C6.34753 53.1055 7.38819 54.1461 8.66733 54.1461H27.0021L24.9461 60.0285H22.6999C21.012 60.0285 19.6388 61.4017 19.6388 63.0896V64.5379C19.6388 65.3441 20.2947 66 21.1009 66H44.8995C45.7057 66 46.3616 65.3441 46.3616 64.5379V63.0896C46.3616 61.4017 44.9883 60.0285 43.3004 60.0285H41.0542L38.9983 54.1461H46.8137C47.3476 54.1461 47.7804 53.7133 47.7804 53.1793C47.7804 52.6454 47.3476 52.2125 46.8137 52.2125H8.6672C8.45425 52.2125 8.281 52.0393 8.281 51.8265V49.0559C8.41106 49.0784 8.5441 49.0926 8.68061 49.0926H27.4764V50.3791C27.4764 50.8921 27.7578 51.3602 28.2109 51.6006C28.6638 51.8409 29.2092 51.8116 29.6344 51.5234L33.0001 49.2403L36.3663 51.5238C36.6 51.6821 36.8701 51.7621 37.1414 51.7621C37.3631 51.7621 37.5855 51.7086 37.7893 51.6006C38.2424 51.3603 38.5238 50.8923 38.5238 50.3791V49.0926H57.3196C57.4562 49.0926 57.5891 49.0784 57.7192 49.0559V51.8138C57.7192 52.0335 57.5399 52.2121 57.3196 52.2121H51.3255C50.7916 52.2121 50.3587 52.645 50.3587 53.1789C50.3587 53.7129 50.7916 54.1457 51.3255 54.1457H57.3196C58.6061 54.1457 59.6528 53.0997 59.6528 51.8138V15.5114C59.6526 14.2249 58.606 13.1782 57.3195 13.1782ZM44.4279 63.0896V64.0664H21.5724V63.0896C21.5724 62.4679 22.0782 61.9621 22.7001 61.9621H43.3003C43.922 61.9621 44.4279 62.4679 44.4279 63.0896ZM39.0057 60.0285H26.9944L29.0504 54.1461H36.9497L39.0057 60.0285ZM46.3689 18.9364H53.8945V43.3345H46.3689V18.9364ZM33.0001 1.9431L41.8997 4.67308L33.0001 7.40292L24.1004 4.67295L33.0001 1.9431ZM32.4923 9.26974C32.6585 9.32066 32.8291 9.34606 32.9999 9.34606C33.1709 9.34606 33.3417 9.32053 33.5078 9.26961L39.1797 7.52977V12.1263L33.1416 13.7186C33.0476 13.7437 32.9522 13.7436 32.8559 13.7179L26.8203 12.1264V7.5299L32.4923 9.26974ZM12.1058 18.9364H19.6313V43.3345H12.1058V18.9364ZM21.5649 43.3344V13.1627C21.5649 13.049 21.6575 12.9565 21.7712 12.9565H25.0343C25.2452 13.4432 25.6667 13.8223 26.1988 13.9622L32.3607 15.587C32.5702 15.6429 32.7857 15.6707 33.0008 15.6707C33.2155 15.6707 33.4296 15.643 33.6372 15.5876L39.8009 13.9623C40.3334 13.8223 40.7551 13.4431 40.9659 12.9563H44.2291C44.3428 12.9563 44.4353 13.0489 44.4353 13.1626V43.3344H38.5237V42.8425C39.2269 42.5286 39.8295 42.001 40.2283 41.3102C40.9106 40.1282 40.8907 38.6704 40.1763 37.5057C40.0409 37.2852 40.0409 36.9887 40.1763 36.768C40.8907 35.6033 40.9106 34.1455 40.2283 32.9636C39.5459 31.7817 38.2741 31.0698 36.9076 31.1065C36.6497 31.1155 36.3921 30.965 36.2686 30.7377C35.6171 29.5365 34.3647 28.7904 32.9999 28.7904C31.6352 28.7904 30.3827 29.5365 29.7313 30.7378C29.6079 30.9652 29.3511 31.1156 29.0924 31.1066C27.727 31.0693 26.4539 31.7818 25.7716 32.9637C25.0893 34.1457 25.1092 35.6034 25.8237 36.7681C25.9591 36.9887 25.9591 37.2852 25.8237 37.5059C25.1093 38.6707 25.0893 40.1283 25.7716 41.3103C26.1707 42.0017 26.7727 42.5314 27.4763 42.8456V43.3344H21.5649ZM29.1095 41.2336C29.0867 41.2336 29.0639 41.2338 29.041 41.2345C28.3871 41.251 27.7736 40.9107 27.4463 40.3435C27.1188 39.7764 27.1288 39.0765 27.4719 38.517C27.9863 37.6787 27.9863 36.5953 27.4719 35.757C27.1286 35.1974 27.1188 34.4976 27.4461 33.9305C27.7736 33.3635 28.385 33.022 29.0408 33.0395C30.0205 33.0618 30.9622 32.524 31.4309 31.6595C31.7439 31.0824 32.3451 30.724 32.9998 30.724C33.6546 30.724 34.2559 31.0825 34.5687 31.6595C35.0374 32.524 35.9774 33.0647 36.9589 33.0395C37.6161 33.0224 38.2262 33.3633 38.5536 33.9305C38.881 34.4976 38.8711 35.1974 38.5279 35.7569C38.0136 36.5952 38.0136 37.6786 38.5279 38.517C38.8712 39.0766 38.881 39.7764 38.5536 40.3435C38.2262 40.9105 37.6143 41.2523 36.959 41.2345C35.9725 41.2113 35.0377 41.75 34.5688 42.6144C34.2559 43.1915 33.6546 43.55 32.9999 43.55C32.3451 43.55 31.7439 43.1915 31.431 42.6146C30.9733 41.77 30.0674 41.2336 29.1095 41.2336ZM36.5901 49.3392L34.0559 47.6202C33.4145 47.1865 32.5855 47.1865 31.9429 47.621L29.41 49.3392V43.239C29.5441 43.3029 29.6606 43.4058 29.7314 43.5362C30.3829 44.7374 31.6353 45.4835 33.0001 45.4835C34.3648 45.4835 35.6172 44.7373 36.2687 43.5361C36.3399 43.4049 36.4555 43.3003 36.5901 43.2361V49.3392ZM57.3195 47.159H38.5237V45.268H54.3147C55.1491 45.268 55.8281 44.589 55.8281 43.7546V18.5161C55.8281 17.6815 55.1491 17.0027 54.3147 17.0027H46.3689V15.1116H57.3195C57.5398 15.1116 57.7191 15.291 57.7191 15.5113V46.7594C57.7191 46.9798 57.5398 47.159 57.3195 47.159Z" fill="black"/>
<path d="M36.209 37.1371C36.209 35.3676 34.7695 33.9282 33.0001 33.9282C31.2308 33.9282 29.7913 35.3677 29.7913 37.1371C29.7913 38.9064 31.2308 40.3459 33.0001 40.3459C34.7695 40.3459 36.209 38.9066 36.209 37.1371ZM31.7247 37.1371C31.7247 36.4339 32.2968 35.8617 33.0001 35.8617C33.7033 35.8617 34.2755 36.4338 34.2755 37.1371C34.2755 37.8403 33.7034 38.4125 33.0001 38.4125C32.2968 38.4125 31.7247 37.8403 31.7247 37.1371Z" fill="black"/>
<path d="M29.9717 20.9844H36.0282C36.5621 20.9844 36.995 20.5515 36.995 20.0176C36.995 19.4836 36.5621 19.0508 36.0282 19.0508H29.9717C29.4377 19.0508 29.0049 19.4836 29.0049 20.0176C29.0049 20.5515 29.4377 20.9844 29.9717 20.9844Z" fill="black"/>
<path d="M27.4687 25.3945H38.5312C39.0652 25.3945 39.498 24.9617 39.498 24.4277C39.498 23.8938 39.0652 23.4609 38.5312 23.4609H27.4687C26.9348 23.4609 26.502 23.8938 26.502 24.4277C26.502 24.9617 26.9348 25.3945 27.4687 25.3945Z" fill="black"/>
<defs>
<filter id="filter0_d" x="71.816" y="25.2002" width="22.304" height="25.016" filterUnits="userSpaceOnUse" color-interpolation-filters="sRGB">
<feFlood flood-opacity="0" result="BackgroundImageFix"/>
<feColorMatrix in="SourceAlpha" type="matrix" values="0 0 0 0 0 0 0 0 0 0 0 0 0 0 0 0 0 0 127 0"/>
<feOffset dy="4"/>
<feGaussianBlur stdDeviation="2"/>
<feColorMatrix type="matrix" values="0 0 0 0 0 0 0 0 0 0 0 0 0 0 0 0 0 0 0.1 0"/>
<feBlend mode="normal" in2="BackgroundImageFix" result="effect1_dropShadow"/>
<feBlend mode="normal" in="SourceGraphic" in2="effect1_dropShadow" result="shape"/>
</filter>
</defs>
</svg>
