<svg width="59" height="59" viewBox="0 0 59 59" fill="none" xmlns="http://www.w3.org/2000/svg">
<g clip-path="url(#clip0)">
<path d="M46.589 29.4406C47.0663 29.4406 47.4532 29.0537 47.4532 28.5764C47.4532 28.0991 47.0663 27.7121 46.589 27.7121H45.6058V19.3391C45.6058 18.3531 44.8038 17.5511 43.8178 17.5511H40.123C39.137 17.5511 38.335 18.3531 38.335 19.3391V27.7121H36.3686V23.9577C36.3686 22.9717 35.5666 22.1697 34.5806 22.1697H30.8858C29.8998 22.1697 29.0978 22.9717 29.0978 23.9577V27.7121H27.1313V18.4154C27.1313 17.9381 26.7444 17.5511 26.2671 17.5511C25.7898 17.5511 25.4028 17.9381 25.4028 18.4154V27.7121H21.5889V12.8729C21.5889 12.8401 21.6155 12.8135 21.6484 12.8135H25.3432C25.3761 12.8135 25.4027 12.8401 25.4027 12.8729V14.7205C25.4027 15.1978 25.7896 15.5847 26.2669 15.5847C26.7442 15.5847 27.1312 15.1978 27.1312 14.7205V12.8729C27.1312 11.887 26.3292 11.085 25.3432 11.085H21.6484C20.6624 11.085 19.8604 11.887 19.8604 12.8729V27.7121H17.894V20.2628C17.894 19.2769 17.092 18.4748 16.106 18.4748H12.4112C11.4252 18.4748 10.6232 19.2769 10.6232 20.2628V27.7121H9.64001C9.16271 27.7121 8.77576 28.0991 8.77576 28.5764C8.77576 29.0537 9.16271 29.4406 9.64001 29.4406H46.589ZM40.0634 19.3391C40.0634 19.3062 40.09 19.2796 40.1228 19.2796H43.8177C43.8506 19.2796 43.8772 19.3062 43.8772 19.3391V27.7121H40.0633V19.3391H40.0634ZM30.8261 23.9577C30.8261 23.9248 30.8527 23.8982 30.8855 23.8982H34.5804C34.6133 23.8982 34.6399 23.9248 34.6399 23.9577V27.7121H30.826V23.9577H30.8261ZM12.3515 20.2628C12.3515 20.23 12.3781 20.2033 12.4109 20.2033H16.1058C16.1387 20.2033 16.1653 20.23 16.1653 20.2628V27.7121H12.3514V20.2628H12.3515Z" fill="black"/>
<path d="M41.0467 53.5766H6.86854C6.8357 53.5766 6.80908 53.55 6.80908 53.5172V1.78798C6.80908 1.75513 6.8357 1.72852 6.86854 1.72852H38.9753C39.0713 1.72852 39.1655 1.73785 39.2586 1.75168V10.1017C39.2586 11.0876 40.0607 11.8897 41.0466 11.8897H49.3966C49.4104 11.9828 49.4196 12.077 49.4196 12.1729V47.051C49.4196 47.5283 49.8066 47.9153 50.2839 47.9153C50.7612 47.9153 51.1482 47.5283 51.1482 47.051V12.1728C51.1482 11.2017 50.77 10.2888 50.0834 9.60213L41.5459 1.06477C40.8592 0.378084 39.9462 0 38.9753 0H6.86854C5.8826 0 5.08057 0.802031 5.08057 1.78798V53.517C5.08057 54.503 5.8826 55.305 6.86854 55.305H41.0467C41.524 55.305 41.911 54.9181 41.911 54.4408C41.911 53.9635 41.524 53.5766 41.0467 53.5766ZM48.1979 10.161H41.0467C41.0139 10.161 40.9873 10.1344 40.9873 10.1016V2.95046L48.1979 10.161Z" fill="black"/>
<path d="M53.1251 54.371L46.6594 47.9053C46.1475 47.3927 45.4664 47.1105 44.7417 47.1105C44.3156 47.1105 43.9051 47.2088 43.5348 47.3932L41.9165 45.7749C43.0672 44.3559 43.7585 42.55 43.7585 40.5849C43.7585 36.0335 40.0557 32.3308 35.5044 32.3308C30.953 32.3308 27.2502 36.0336 27.2502 40.5849C27.2502 45.1362 30.9531 48.8391 35.5044 48.8391C37.4693 48.8391 39.2753 48.1478 40.6943 46.997L42.3128 48.6155C42.1283 48.9859 42.0301 49.3964 42.0301 49.8222C42.0301 50.5467 42.3123 51.2276 42.8245 51.7395L49.2902 58.2053C49.802 58.7178 50.4831 59.0001 51.2079 59.0001C51.9328 59.0001 52.6138 58.7179 53.1251 58.2059C53.6374 57.6938 53.9196 57.0127 53.9196 56.2883C53.9196 55.5638 53.6372 54.8829 53.1251 54.371ZM28.9786 40.5849C28.9786 36.9867 31.9061 34.0593 35.5043 34.0593C39.1024 34.0593 42.0299 36.9867 42.0299 40.5849C42.0299 44.1831 39.1024 47.1105 35.5043 47.1105C31.9059 47.1105 28.9786 44.1831 28.9786 40.5849ZM43.7584 49.8222C43.7584 49.5596 43.8607 49.3129 44.0468 49.1267C44.2321 48.9412 44.4789 48.8389 44.7416 48.8389C45.0043 48.8389 45.2509 48.9412 45.4366 49.127L46.2689 49.9592L44.8787 51.3494L44.0462 50.517C43.8606 50.3316 43.7584 50.0847 43.7584 49.8222ZM51.9024 56.9838C51.7172 57.1693 51.4704 57.2716 51.2077 57.2716C50.945 57.2716 50.6984 57.1693 50.5126 56.9835L46.101 52.5717L47.4912 51.1815L51.903 55.5934C52.0887 55.7789 52.191 56.0258 52.191 56.2883C52.191 56.5508 52.0887 56.7977 51.9024 56.9838Z" fill="black"/>
<path d="M12.411 34.0591H14.2585C14.7358 34.0591 15.1227 33.6721 15.1227 33.1948C15.1227 32.7175 14.7358 32.3306 14.2585 32.3306H12.411C11.9337 32.3306 11.5468 32.7175 11.5468 33.1948C11.5468 33.6721 11.9337 34.0591 12.411 34.0591Z" fill="black"/>
<path d="M12.411 37.7542H14.2585C14.7358 37.7542 15.1227 37.3672 15.1227 36.8899C15.1227 36.4126 14.7358 36.0256 14.2585 36.0256H12.411C11.9337 36.0256 11.5468 36.4126 11.5468 36.8899C11.5468 37.3672 11.9337 37.7542 12.411 37.7542Z" fill="black"/>
<path d="M27.1311 33.1948C27.1311 32.7175 26.7441 32.3306 26.2668 32.3306H17.9532C17.4759 32.3306 17.089 32.7175 17.089 33.1948C17.089 33.6721 17.4759 34.0591 17.9532 34.0591H26.2668C26.7441 34.0591 27.1311 33.6722 27.1311 33.1948Z" fill="black"/>
<path d="M25.2837 36.8899C25.2837 36.4126 24.8967 36.0256 24.4194 36.0256H17.9532C17.4759 36.0256 17.089 36.4126 17.089 36.8899C17.089 37.3672 17.4759 37.7542 17.9532 37.7542H24.4194C24.8967 37.7542 25.2837 37.3672 25.2837 36.8899Z" fill="black"/>
<path d="M12.411 45.144H20.7246C21.2019 45.144 21.5889 44.7571 21.5889 44.2798C21.5889 43.8025 21.2019 43.4155 20.7246 43.4155H12.411C11.9337 43.4155 11.5468 43.8025 11.5468 44.2798C11.5468 44.7571 11.9337 45.144 12.411 45.144Z" fill="black"/>
<path d="M12.411 41.4492H14.2585C14.7358 41.4492 15.1227 41.0623 15.1227 40.585C15.1227 40.1077 14.7358 39.7207 14.2585 39.7207H12.411C11.9337 39.7207 11.5468 40.1077 11.5468 40.585C11.5468 41.0623 11.9337 41.4492 12.411 41.4492Z" fill="black"/>
<path d="M24.3599 40.585C24.3599 40.1077 23.973 39.7207 23.4957 39.7207H17.9532C17.4759 39.7207 17.089 40.1077 17.089 40.585C17.089 41.0623 17.4759 41.4492 17.9532 41.4492H23.4957C23.973 41.4492 24.3599 41.0623 24.3599 40.585Z" fill="black"/>
<path d="M24.4195 9.11841C24.8968 9.11841 25.2837 8.73145 25.2837 8.25415C25.2837 7.77685 24.8968 7.38989 24.4195 7.38989H22.572C22.0947 7.38989 21.7078 7.77685 21.7078 8.25415C21.7078 8.73145 22.0947 9.11841 22.572 9.11841H24.4195Z" fill="black"/>
<path d="M33.6569 20.2034C34.1342 20.2034 34.5211 19.8164 34.5211 19.3391C34.5211 18.8618 34.1342 18.4749 33.6569 18.4749H31.8094C31.3321 18.4749 30.9452 18.8618 30.9452 19.3391C30.9452 19.8164 31.3321 20.2034 31.8094 20.2034H33.6569Z" fill="black"/>
<path d="M15.1822 16.5081C15.6595 16.5081 16.0464 16.1211 16.0464 15.6438C16.0464 15.1665 15.6595 14.7795 15.1822 14.7795H13.3347C12.8574 14.7795 12.4705 15.1665 12.4705 15.6438C12.4705 16.1211 12.8574 16.5081 13.3347 16.5081H15.1822Z" fill="black"/>
<path d="M42.8942 15.5845C43.3715 15.5845 43.7584 15.1975 43.7584 14.7202C43.7584 14.2429 43.3715 13.856 42.8942 13.856H41.0468C40.5695 13.856 40.1825 14.2429 40.1825 14.7202C40.1825 15.1975 40.5695 15.5845 41.0468 15.5845H42.8942Z" fill="black"/>
</g>
<defs>
<clipPath id="clip0">
<rect width="59" height="59" fill="white"/>
</clipPath>
</defs>
</svg>
