<svg width="59" height="59" viewBox="0 0 59 59" fill="none" xmlns="http://www.w3.org/2000/svg">
<path d="M13.8281 30.4219H16.5938V32.2656H13.8281V30.4219Z" fill="black"/>
<path d="M20.2812 35.0312H23.0469V36.875H20.2812V35.0312Z" fill="black"/>
<path d="M13.8281 35.0312H18.4375V36.875H13.8281V35.0312Z" fill="black"/>
<path d="M6.45312 35.0312H11.9844V36.875H6.45312V35.0312Z" fill="black"/>
<path d="M11.9844 39.6406H23.0469V41.4844H11.9844V39.6406Z" fill="black"/>
<path d="M6.45312 39.6406H10.1406V41.4844H6.45312V39.6406Z" fill="black"/>
<path d="M17.5156 44.25H23.0469V46.0938H17.5156V44.25Z" fill="black"/>
<path d="M6.45312 44.25H15.6719V46.0938H6.45312V44.25Z" fill="black"/>
<path d="M11.9844 48.8594H17.5156V50.7031H11.9844V48.8594Z" fill="black"/>
<path d="M6.45312 48.8594H10.1406V50.7031H6.45312V48.8594Z" fill="black"/>
<path d="M55.3124 27.6563C55.3124 27.4118 55.2153 27.1773 55.0424 27.0044C54.8695 26.8315 54.635 26.7344 54.3905 26.7344H48.8593C48.6148 26.7344 48.3803 26.8315 48.2074 27.0044C48.0345 27.1773 47.9374 27.4118 47.9374 27.6563V32.2656H43.328C43.0835 32.2656 42.849 32.3628 42.6762 32.5356C42.5033 32.7085 42.4061 32.943 42.4061 33.1875V37.7969H37.7968C37.5523 37.7969 37.3178 37.894 37.1449 38.0669C36.972 38.2398 36.8749 38.4743 36.8749 38.7188V43.3281H32.2655C32.021 43.3281 31.7865 43.4253 31.6137 43.5982C31.4408 43.771 31.3436 44.0055 31.3436 44.25V49.7813H24.7319C24.5145 49.1662 24.0866 48.6478 23.5238 48.3177C22.9611 47.9876 22.2998 47.867 21.6568 47.9773C21.0138 48.0877 20.4305 48.4217 20.01 48.9205C19.5895 49.4193 19.3588 50.0507 19.3588 50.7031C19.3588 51.3555 19.5895 51.9869 20.01 52.4857C20.4305 52.9845 21.0138 53.3186 21.6568 53.4289C22.2998 53.5393 22.9611 53.4187 23.5238 53.0886C24.0866 52.7585 24.5145 52.2401 24.7319 51.625H25.8124V54.3906C25.8121 54.635 25.7149 54.8694 25.5421 55.0422C25.3692 55.215 25.1349 55.3122 24.8905 55.3125H4.60926C4.36485 55.3122 4.13053 55.215 3.95771 55.0422C3.78488 54.8694 3.68767 54.635 3.68739 54.3906V33.1875H8.29676C9.03 33.1867 9.73296 32.895 10.2514 32.3766C10.7699 31.8581 11.0616 31.1551 11.0624 30.4219V25.8125H24.8905C25.1349 25.8128 25.3692 25.91 25.5421 26.0828C25.7149 26.2557 25.8121 26.49 25.8124 26.7344V27.6563H27.6561V26.7344C27.6553 26.0012 27.3637 25.2982 26.8452 24.7797C26.3267 24.2612 25.6237 23.9696 24.8905 23.9688H10.9042C10.5408 23.9678 10.1809 24.0389 9.84522 24.1779C9.50954 24.317 9.20477 24.5212 8.94856 24.7788L2.65366 31.0737C2.39604 31.33 2.1918 31.6347 2.05276 31.9704C1.91372 32.3061 1.84264 32.666 1.84364 33.0293V54.3906C1.84448 55.1239 2.13612 55.8268 2.6546 56.3453C3.17307 56.8638 3.87603 57.1554 4.60926 57.1563H24.8905C25.6237 57.1554 26.3267 56.8638 26.8452 56.3453C27.3637 55.8268 27.6553 55.1239 27.6561 54.3906V51.625H57.1561V49.7813H55.3124V27.6563ZM9.21864 27.1163V30.4219C9.21836 30.6663 9.12114 30.9006 8.94832 31.0734C8.77549 31.2463 8.54117 31.3435 8.29676 31.3438H4.99115L9.21864 27.1163ZM22.1249 51.625C21.9426 51.625 21.7643 51.5709 21.6127 51.4697C21.4611 51.3684 21.343 51.2244 21.2732 51.0559C21.2034 50.8875 21.1852 50.7021 21.2207 50.5233C21.2563 50.3445 21.3441 50.1802 21.473 50.0513C21.602 49.9223 21.7662 49.8345 21.945 49.799C22.1239 49.7634 22.3092 49.7817 22.4777 49.8514C22.6461 49.9212 22.7901 50.0394 22.8914 50.191C22.9927 50.3426 23.0468 50.5208 23.0468 50.7031C23.0465 50.9475 22.9493 51.1819 22.7764 51.3547C22.6036 51.5275 22.3693 51.6247 22.1249 51.625ZM33.1874 45.1719H36.8749V49.7813H33.1874V45.1719ZM38.7186 39.6406H42.4061V49.7813H38.7186V39.6406ZM44.2499 34.1094H47.9374V49.7813H44.2499V34.1094ZM49.7811 49.7813V28.5781H53.4686V49.7813H49.7811Z" fill="black"/>
<path d="M4.60937 24.8906C5.07656 24.8908 5.53616 24.7725 5.94526 24.5469C6.35436 24.3213 6.69963 23.9957 6.94883 23.6005C7.19802 23.2053 7.34302 22.7534 7.37029 22.287C7.39755 21.8206 7.3062 21.3549 7.10475 20.9334L9.87088 18.1673C10.2207 18.3345 10.6019 18.4262 10.9895 18.4365C11.3772 18.4468 11.7626 18.3755 12.1209 18.2271C12.4791 18.0787 12.8022 17.8566 13.069 17.5752C13.3358 17.2938 13.5404 16.9594 13.6695 16.5938H17.6742C17.8785 17.1717 18.269 17.6654 18.7843 17.9973C19.2997 18.3291 19.9107 18.4803 20.5214 18.4271C21.132 18.3738 21.7077 18.1192 22.1579 17.7032C22.6081 17.2872 22.9073 16.7334 23.0084 16.1288L28.2146 11.6664C28.7922 11.9696 29.4584 12.0589 30.0955 11.9184C30.7325 11.778 31.2994 11.4169 31.696 10.8989C32.0926 10.3809 32.2933 9.73946 32.2627 9.08783C32.2321 8.43619 31.9721 7.81635 31.5287 7.33784C31.0854 6.85933 30.4871 6.55295 29.8397 6.47284C29.1923 6.39273 28.5374 6.54406 27.9907 6.90007C27.4441 7.25608 27.0409 7.79387 26.8524 8.41839C26.6639 9.04291 26.7022 9.71397 26.9605 10.313L22.5502 14.0933C22.2599 13.6755 21.86 13.3458 21.3944 13.1408C20.9288 12.9357 20.4156 12.8631 19.9114 12.931C19.4072 12.9989 18.9315 13.2047 18.5368 13.5256C18.142 13.8466 17.8436 14.2703 17.6742 14.75H13.6695C13.5444 14.396 13.3486 14.0711 13.0938 13.7952C12.8391 13.5193 12.5308 13.2982 12.1878 13.1454C11.8449 12.9925 11.4743 12.9111 11.0989 12.9061C10.7234 12.9012 10.3509 12.9727 10.0039 13.1164C9.65703 13.2601 9.34301 13.4729 9.08104 13.742C8.81907 14.011 8.61463 14.3305 8.48019 14.6811C8.34575 15.0317 8.28412 15.4061 8.29907 15.7813C8.31402 16.1565 8.40522 16.5247 8.56712 16.8635L5.80099 19.6297C5.42643 19.4508 5.0164 19.3585 4.60132 19.3597C4.18624 19.3609 3.77674 19.4555 3.40321 19.6365C3.02967 19.8175 2.70168 20.0803 2.44355 20.4054C2.18541 20.7304 2.00376 21.1094 1.91207 21.5143C1.82038 21.9191 1.82099 22.3394 1.91386 22.7439C2.00673 23.1485 2.18949 23.527 2.44857 23.8513C2.70764 24.1756 3.0364 24.4374 3.41046 24.6173C3.78452 24.7972 4.19429 24.8907 4.60937 24.8906ZM29.5 8.29689C29.6823 8.29689 29.8606 8.35096 30.0122 8.45226C30.1638 8.55356 30.2819 8.69753 30.3517 8.86598C30.4215 9.03443 30.4397 9.21979 30.4042 9.39862C30.3686 9.57744 30.2808 9.74171 30.1519 9.87063C30.0229 9.99956 29.8587 10.0874 29.6798 10.1229C29.501 10.1585 29.3157 10.1402 29.1472 10.0705C28.9788 10.0007 28.8348 9.88254 28.7335 9.73094C28.6322 9.57933 28.5781 9.4011 28.5781 9.21877C28.5784 8.97436 28.6756 8.74004 28.8484 8.56721C29.0213 8.39439 29.2556 8.29717 29.5 8.29689ZM20.2812 14.75C20.4636 14.75 20.6418 14.8041 20.7934 14.9054C20.945 15.0067 21.0632 15.1507 21.133 15.3191C21.2027 15.4876 21.221 15.6729 21.1854 15.8517C21.1498 16.0306 21.062 16.1948 20.9331 16.3238C20.8042 16.4527 20.6399 16.5405 20.4611 16.5761C20.2823 16.6116 20.0969 16.5934 19.9285 16.5236C19.76 16.4538 19.616 16.3357 19.5147 16.1841C19.4134 16.0325 19.3594 15.8542 19.3594 15.6719C19.3597 15.4275 19.4569 15.1932 19.6297 15.0203C19.8025 14.8475 20.0368 14.7503 20.2812 14.75ZM11.0625 14.75C11.2448 14.75 11.4231 14.8041 11.5747 14.9054C11.7263 15.0067 11.8444 15.1507 11.9142 15.3191C11.984 15.4876 12.0022 15.6729 11.9667 15.8517C11.9311 16.0306 11.8433 16.1948 11.7144 16.3238C11.5854 16.4527 11.4212 16.5405 11.2423 16.5761C11.0635 16.6116 10.8782 16.5934 10.7097 16.5236C10.5413 16.4538 10.3973 16.3357 10.296 16.1841C10.1947 16.0325 10.1406 15.8542 10.1406 15.6719C10.1409 15.4275 10.2381 15.1932 10.4109 15.0203C10.5838 14.8475 10.8181 14.7503 11.0625 14.75ZM4.60937 21.2031C4.7917 21.2031 4.96994 21.2572 5.12154 21.3585C5.27314 21.4598 5.3913 21.6038 5.46108 21.7722C5.53085 21.9407 5.54911 22.126 5.51354 22.3049C5.47796 22.4837 5.39016 22.648 5.26124 22.7769C5.13231 22.9058 4.96805 22.9936 4.78922 23.0292C4.6104 23.0648 4.42504 23.0465 4.25659 22.9767C4.08814 22.9069 3.94416 22.7888 3.84286 22.6372C3.74157 22.4856 3.6875 22.3073 3.6875 22.125C3.68778 21.8806 3.78499 21.6463 3.95782 21.4735C4.13064 21.3006 4.36496 21.2034 4.60937 21.2031Z" fill="black"/>
<path d="M37.9773 23.4066L31.8839 29.5001H23.8102C23.5927 28.885 23.1648 28.3666 22.6021 28.0365C22.0394 27.7064 21.3781 27.5859 20.7351 27.6962C20.0921 27.8065 19.5088 28.1406 19.0883 28.6394C18.6678 29.1382 18.4371 29.7696 18.4371 30.422C18.4371 31.0744 18.6678 31.7058 19.0883 32.2046C19.5088 32.7034 20.0921 33.0375 20.7351 33.1478C21.3781 33.2581 22.0394 33.1376 22.6021 32.8075C23.1648 32.4774 23.5927 31.959 23.8102 31.3439H25.8126V47.9376H27.6563V31.3439H32.2657C32.5102 31.3439 32.7447 31.2467 32.9176 31.0739L39.571 24.4205C42.3139 25.8763 45.5139 26.2137 48.5002 25.3622C51.4864 24.5106 54.0271 22.5361 55.5896 19.8525C57.1522 17.1689 57.6152 13.9847 56.8817 10.9672C56.1482 7.94979 54.2752 5.33342 51.6551 3.66657C49.0351 1.99972 45.8715 1.41181 42.8275 2.02607C39.7836 2.64033 37.0956 4.40908 35.327 6.96154C33.5584 9.51401 32.8465 12.652 33.3406 15.7178C33.8347 18.7835 35.4964 21.539 37.9773 23.4066L37.9773 23.4066ZM21.2032 31.3439C21.0208 31.3439 20.8426 31.2898 20.691 31.1885C20.5394 31.0872 20.4213 30.9432 20.3515 30.7748C20.2817 30.6063 20.2634 30.421 20.299 30.2422C20.3346 30.0633 20.4224 29.8991 20.5513 29.7701C20.6802 29.6412 20.8445 29.5534 21.0233 29.5178C21.2022 29.4823 21.3875 29.5005 21.556 29.5703C21.7244 29.6401 21.8684 29.7582 21.9697 29.9098C22.071 30.0614 22.1251 30.2397 22.1251 30.422C22.1248 30.6664 22.0276 30.9007 21.8547 31.0736C21.6819 31.2464 21.4476 31.3436 21.2032 31.3439ZM52.5666 20.7596L47.2248 14.7501H55.2702C55.0657 16.9991 54.1138 19.1147 52.5666 20.7596ZM55.2702 12.9064H46.0938V3.72997C48.4537 3.94872 50.6627 4.98578 52.3386 6.66161C54.0144 8.33744 55.0514 10.5465 55.2702 12.9064ZM44.2501 3.72997V13.8282C44.25 14.054 44.3332 14.2718 44.4837 14.44L44.4829 14.4407L51.1892 21.9854C49.9305 22.914 48.474 23.5388 46.9336 23.8109C45.3932 24.083 43.8108 23.995 42.3101 23.5538C40.8094 23.1126 39.4312 22.3301 38.2832 21.2676C37.1352 20.2051 36.2487 18.8914 35.6929 17.4292C35.1371 15.9671 34.9272 14.3962 35.0795 12.8394C35.2318 11.2826 35.7423 9.78219 36.571 8.45553C37.3997 7.12887 38.5241 6.01194 39.8563 5.19214C41.1885 4.37234 42.6923 3.8719 44.2501 3.72997Z" fill="black"/>
</svg>
