<svg width="101" height="63" viewBox="0 0 101 63" fill="none" xmlns="http://www.w3.org/2000/svg">
<rect x="47" y="17" width="54" height="32" rx="3" fill="#476ED3"/>
<g filter="url(#filter0_d)">
<path d="M86.24 36.944V41H71.84V40.712C71.84 39.96 71.936 39.272 72.128 38.648C72.336 38.008 72.64 37.424 73.04 36.896C73.44 36.368 73.872 35.904 74.336 35.504C74.8 35.104 75.352 34.68 75.992 34.232C76.536 33.848 77.128 33.472 77.768 33.104C78.408 32.72 78.904 32.432 79.256 32.24C79.608 32.032 79.944 31.808 80.264 31.568C80.6 31.312 80.832 31.064 80.96 30.824C81.088 30.568 81.152 30.272 81.152 29.936C81.136 29.424 80.944 29.024 80.576 28.736C80.224 28.432 79.744 28.28 79.136 28.28C78.208 28.28 77.568 28.552 77.216 29.096C76.88 29.64 76.688 30.392 76.64 31.352H72.152V31.112C72.152 28.856 72.76 27.144 73.976 25.976C75.192 24.792 76.976 24.2 79.328 24.2C81.328 24.2 82.928 24.688 84.128 25.664C85.328 26.624 85.928 27.904 85.928 29.504C85.928 30.176 85.84 30.776 85.664 31.304C85.504 31.832 85.224 32.312 84.824 32.744C84.424 33.16 84.048 33.504 83.696 33.776C83.36 34.048 82.872 34.392 82.232 34.808C81.896 35.032 81.272 35.4 80.36 35.912C79.464 36.424 78.792 36.848 78.344 37.184C79.768 37.04 81 36.968 82.04 36.968L86.24 36.944Z" fill="white"/>
</g>
<g clip-path="url(#clip0)">
<path d="M45.5406 23.9554C46.3752 23.9554 47.1683 23.6327 47.7736 23.0467C48.1398 22.6922 48.1493 22.108 47.7948 21.7419C47.4403 21.3758 46.8561 21.3662 46.49 21.7208C46.2307 21.9717 45.8936 22.11 45.5406 22.11H45.2718C44.9188 22.11 44.5817 21.9718 44.3224 21.7208C43.9561 21.3662 43.372 21.3758 43.0176 21.7419C42.6631 22.1081 42.6726 22.6924 43.0388 23.0467C43.6442 23.6327 44.4372 23.9554 45.2718 23.9554H45.5406Z" fill="black"/>
<path d="M26.9861 46.484C27.2158 46.6122 27.4705 46.676 27.725 46.676C28.0011 46.676 28.277 46.6007 28.5202 46.451L34.2513 42.9197C34.7025 42.6417 34.9718 42.1592 34.9718 41.6293C34.9718 41.0993 34.7025 40.6168 34.2513 40.3389L28.5201 36.8076C28.053 36.5197 27.4652 36.5072 26.9861 36.7746C26.5071 37.0421 26.2094 37.5492 26.2094 38.0978V45.1605C26.2095 45.7093 26.5071 46.2163 26.9861 46.484ZM28.0551 38.6888L32.8272 41.6293L28.0551 44.5697V38.6888Z" fill="black"/>
<path d="M38.3042 50.9923H29.4361C29.0519 49.8749 27.9911 49.0693 26.7452 49.0693C25.4991 49.0693 24.4383 49.8749 24.054 50.9924H22.8772C22.3675 50.9924 21.9543 51.4058 21.9545 51.9154C21.9545 52.4251 22.3677 52.8381 22.8773 52.8381H24.0541C24.4384 53.9554 25.4992 54.7606 26.7452 54.7606C27.9911 54.7606 29.0518 53.9553 29.4361 52.8381H38.3042C38.8137 52.8381 39.227 52.4251 39.227 51.9154C39.227 51.4058 38.8139 50.9923 38.3042 50.9923ZM26.7452 52.9148C26.1938 52.9148 25.7453 52.4663 25.7453 51.9149C25.7453 51.3634 26.1938 50.9148 26.7452 50.9148C27.2964 50.9148 27.7449 51.3634 27.7449 51.9149C27.7449 52.4663 27.2964 52.9148 26.7452 52.9148Z" fill="black"/>
<path d="M62.2097 44.6886V38.222C62.2097 33.9234 58.7125 30.4262 54.4139 30.4262H49.7039V27.161C51.8092 25.8479 53.2139 23.5123 53.2139 20.8535V20.1313H54.6883C56.7609 20.1313 58.4471 18.4451 58.4471 16.3724C58.4471 15.3897 58.0676 14.4943 57.4481 13.8238V10.6363C57.4481 7.85948 56.2181 5.2515 54.0736 3.48098C53.6806 3.1565 53.099 3.21212 52.7745 3.60513C52.45 3.99814 52.5056 4.57979 52.8987 4.90426C54.617 6.32287 55.6025 8.41221 55.6025 10.6363V12.7266C55.3096 12.6531 55.0035 12.6136 54.6883 12.6136H53.1892C52.9299 9.83106 50.5827 7.6455 47.7335 7.6455H38.8904C38.1781 7.6455 37.5985 8.22505 37.5985 8.93737V12.6136H36.1238C35.8089 12.6136 35.5033 12.653 35.2108 12.7264V3.77924C35.2108 3.06766 35.5829 2.43742 36.206 2.0935C36.8294 1.74922 37.5615 1.77038 38.1632 2.14924L38.7115 2.49537C39.4517 2.96172 40.306 3.20831 41.1819 3.20831H48.1743C48.5603 3.20831 48.9445 3.23771 49.3166 3.29579C49.8204 3.37393 50.292 3.02977 50.3705 2.52613C50.4492 2.0225 50.1046 1.55074 49.601 1.47224C49.1352 1.39952 48.6551 1.36273 48.1743 1.36273H41.1819C40.6548 1.36273 40.1407 1.21433 39.696 0.934277L39.1476 0.588023C37.9678 -0.154934 36.5347 -0.196278 35.3139 0.477773C34.0937 1.15145 33.365 2.38574 33.365 3.77937V13.8227C32.7447 14.4933 32.3647 15.3892 32.3647 16.3725C32.3647 18.4452 34.051 20.1314 36.1236 20.1314H37.5983V20.8536C37.5983 23.5126 39.0033 25.8487 41.1092 27.1616V28.4477H27.703C28.0824 27.175 28.2873 25.8264 28.2873 24.43C28.2873 16.7526 22.1197 10.5065 14.5388 10.5065C6.95788 10.5065 0.790161 16.7526 0.790161 24.43C0.790161 32.1075 6.95776 38.3534 14.5387 38.3534C14.8768 38.3534 15.212 38.3405 15.544 38.316V55.9263C15.544 57.2234 16.5998 58.2788 17.8977 58.2788H24.9241V59.579C24.9241 60.8265 25.939 61.8414 27.1864 61.8414H30.1247C31.3721 61.8414 32.387 60.8265 32.387 59.579V58.2788H33.7478V62.0771C33.7478 62.5868 34.161 63 34.6706 63H54.8875C55.3971 63 55.8103 62.5868 55.8103 62.0771V58.8891C55.8103 58.3795 55.3971 57.9663 54.8875 57.9663C54.3778 57.9663 53.9646 58.3795 53.9646 58.8891V61.1543H35.5936V58.2788H43.2837C44.5816 58.2788 45.6374 57.2234 45.6374 55.9263V50.6654H53.9649V54.5827C53.9649 55.0924 54.3781 55.5056 54.8877 55.5056C55.3974 55.5056 55.8106 55.0924 55.8106 54.5827V50.6653H57.4556C58.3568 50.6653 59.2001 50.4133 59.919 49.976C61.2913 49.1412 62.2099 47.6313 62.2099 45.911V44.6886H62.2097ZM56.6015 16.3725C56.6015 17.4275 55.7433 18.2857 54.6883 18.2857H53.2139V14.4592H54.6883C55.7433 14.4592 56.6015 15.3175 56.6015 16.3725ZM36.1238 18.2857C35.0688 18.2857 34.2105 17.4274 34.2105 16.3725C34.2105 15.3176 35.0688 14.4592 36.1238 14.4592H37.5985V18.2857H36.1238ZM39.4441 20.8535V19.2204C39.4441 19.2165 39.4447 19.2125 39.4447 19.2085C39.4447 19.2044 39.4442 19.2006 39.4441 19.1965V13.5482C39.4441 13.5442 39.4447 13.5403 39.4447 13.5362C39.4447 13.5322 39.4442 13.5284 39.4441 13.5243V9.49084H47.7335C49.7377 9.49084 51.3682 11.1213 51.3682 13.1255V20.8532C51.3682 23.9321 48.8633 26.437 45.7845 26.437H45.0277C41.949 26.4372 39.4441 23.9324 39.4441 20.8535ZM42.9551 27.9864C43.6135 28.1781 44.3085 28.2828 45.0278 28.2828H45.7846C46.5043 28.2828 47.1996 28.178 47.8583 27.9861V31.9494C47.8583 33.0443 46.9674 33.9352 45.8724 33.9352H45.6374V30.8001C45.6374 29.5029 44.5814 28.4476 43.2837 28.4476H42.9551V27.9864ZM44.7217 48.8199C44.7192 48.8199 44.717 48.8196 44.7146 48.8196C44.7121 48.8196 44.7099 48.8199 44.7074 48.8199H43.6198C42.871 48.8199 42.2616 48.2107 42.2616 47.4618V45.6126H45.4688V48.8198H44.7217V48.8199ZM43.2835 30.2933C43.5637 30.2933 43.7917 30.5207 43.7917 30.8002V32.6805C43.6278 32.6443 43.4581 32.6238 43.2835 32.6238H25.6472C26.1714 31.8969 26.6278 31.1169 27.0069 30.2934H43.2835V30.2933ZM2.63574 24.43C2.63574 17.7702 7.97536 12.352 14.5387 12.352C21.102 12.352 26.4416 17.7702 26.4416 24.43C26.4416 31.0897 21.102 36.5079 14.5387 36.5079C7.97536 36.5079 2.63574 31.0897 2.63574 24.43ZM30.5415 59.5792C30.5415 59.809 30.3546 59.9959 30.1248 59.9959H27.1865C26.9567 59.9959 26.7698 59.809 26.7698 59.5792V58.2789H30.5414L30.5415 59.5792ZM43.7918 55.9264C43.7918 56.206 43.5638 56.4333 43.2837 56.4333H17.8979C17.6177 56.4333 17.3897 56.206 17.3897 55.9264V38.0516C19.9435 37.5041 22.2378 36.2367 24.0551 34.4693H43.2835C43.5637 34.4693 43.7917 34.6967 43.7917 34.9763V43.7671H38.8124C38.3027 43.7671 37.8895 44.1803 37.8895 44.69C37.8895 45.1997 38.3027 45.6128 38.8124 45.6128H40.416V47.462C40.416 49.2286 41.8532 50.6658 43.6198 50.6658H43.7918V55.9264ZM60.0768 47.171C59.6064 48.1456 58.6082 48.8197 57.4555 48.8197C56.9104 48.8197 47.8544 48.8199 47.3144 48.8199V45.6127H56.5247C57.0344 45.6127 57.4476 45.1995 57.4476 44.6899C57.4476 44.1802 57.0344 43.767 56.5247 43.767H55.8108V37.9026C55.8108 37.3929 55.3976 36.9798 54.888 36.9798C54.3783 36.9798 53.9651 37.3929 53.9651 37.9026V43.767H45.6372V35.7808H45.8722C47.8763 35.7808 49.5247 34.234 49.6891 32.2716H54.4137C57.6947 32.2716 60.364 34.9409 60.364 38.2219V45.9109C60.3642 46.1616 60.3403 46.6456 60.0768 47.171Z" fill="black"/>
<path d="M24.0002 24.5504C24.5202 24.3934 24.8697 23.9219 24.8697 23.3769C24.8697 22.832 24.5203 22.3604 24.0002 22.2032L14.9925 19.4827C14.6958 19.3931 14.3819 19.3931 14.0851 19.4827L5.07721 22.2033C4.55722 22.3604 4.20789 22.832 4.20789 23.3769C4.20789 23.6327 4.28577 23.8719 4.42125 24.0704V27.1194C4.42125 27.629 4.83444 28.0422 5.3441 28.0422C5.85376 28.0422 6.26695 27.629 6.26695 27.1194V24.9097L7.66587 25.3321V29.5834C7.66587 30.3067 8.1524 30.9381 8.84872 31.1188L13.9817 32.4525C14.164 32.5 14.3515 32.5236 14.539 32.5236C14.7264 32.5236 14.9137 32.5 15.0958 32.4525L20.2288 31.1189C20.9255 30.938 21.4121 30.3067 21.4121 29.5834V25.332L24.0002 24.5504ZM14.5388 21.2737L21.5025 23.3768L14.5388 25.4799L7.57506 23.3768L14.5388 21.2737ZM19.5664 29.3842L14.6313 30.6664C14.5708 30.6822 14.5069 30.6821 14.4461 30.6664L9.51145 29.3843V25.8898L14.0851 27.2711C14.2335 27.3159 14.3862 27.3383 14.5388 27.3383C14.6915 27.3383 14.8441 27.3159 14.9925 27.2711L19.5664 25.8896V29.3842Z" fill="black"/>
</g>
<defs>
<filter id="filter0_d" x="67.84" y="24.2002" width="22.4" height="24.8" filterUnits="userSpaceOnUse" color-interpolation-filters="sRGB">
<feFlood flood-opacity="0" result="BackgroundImageFix"/>
<feColorMatrix in="SourceAlpha" type="matrix" values="0 0 0 0 0 0 0 0 0 0 0 0 0 0 0 0 0 0 127 0"/>
<feOffset dy="4"/>
<feGaussianBlur stdDeviation="2"/>
<feColorMatrix type="matrix" values="0 0 0 0 0 0 0 0 0 0 0 0 0 0 0 0 0 0 0.1 0"/>
<feBlend mode="normal" in2="BackgroundImageFix" result="effect1_dropShadow"/>
<feBlend mode="normal" in="SourceGraphic" in2="effect1_dropShadow" result="shape"/>
</filter>
<clipPath id="clip0">
<rect width="63" height="63" fill="white"/>
</clipPath>
</defs>
</svg>
