<svg width="56" height="56" viewBox="0 0 56 56" fill="none" xmlns="http://www.w3.org/2000/svg">
<path d="M52.2342 34.9074C51.8715 35.1788 51.7977 35.693 52.0692 36.0557C53.5674 38.0567 54.3594 40.4252 54.3594 42.905C54.3594 49.221 49.221 54.3594 42.905 54.3594C36.5889 54.3594 31.4506 49.221 31.4506 42.905C31.4506 36.5889 36.589 31.4506 42.905 31.4506C45.3848 31.4506 47.7532 32.2425 49.7542 33.7408C50.1168 34.0123 50.6311 33.9384 50.9026 33.5758C51.1742 33.2132 51.1003 32.6991 50.7376 32.4275C48.6722 30.8809 46.2626 29.9955 43.7254 29.8379V26.1636C50.5652 25.7387 56 20.04 56 13.095C56 5.87431 50.1257 0 42.905 0C35.96 0 30.2613 5.43484 29.8364 12.2747H26.1621C26.0045 9.73744 25.1191 7.3278 23.5725 5.26247C23.3009 4.89978 22.7869 4.82584 22.4242 5.09753C22.0615 5.369 21.9877 5.88317 22.2592 6.24586C23.7575 8.24687 24.5494 10.6153 24.5494 13.0951C24.5494 19.4111 19.411 24.5495 13.095 24.5495C6.77906 24.5495 1.64062 19.411 1.64062 13.095C1.64062 6.77906 6.77895 1.64062 13.095 1.64062C15.5749 1.64062 17.9433 2.43261 19.9444 3.93083C20.3071 4.2023 20.8213 4.12847 21.0928 3.76578C21.3643 3.40309 21.2905 2.88903 20.9278 2.61745C18.6406 0.905078 15.9321 0 13.095 0C5.87431 0 0 5.87431 0 13.095C0 20.0401 5.43484 25.7387 12.2747 26.1636V29.8364C5.43484 30.2613 0 35.96 0 42.905C0 50.1257 5.87431 56 13.095 56C20.0401 56 25.7387 50.5652 26.1636 43.7253H29.8364C30.2613 50.5652 35.96 56 42.905 56C50.1257 56 56 50.1257 56 42.905C56 40.0679 55.0949 37.3593 53.3824 35.0723C53.111 34.7097 52.5969 34.6357 52.2342 34.9074ZM42.905 1.64062C49.221 1.64062 54.3594 6.77895 54.3594 13.095C54.3594 19.4111 49.221 24.5494 42.905 24.5494C36.5889 24.5494 31.4506 19.411 31.4506 13.095C31.4506 6.77906 36.589 1.64062 42.905 1.64062ZM26.1636 13.9153H29.8364C30.2445 20.4839 35.5162 25.7555 42.0847 26.1636V29.8364C35.5161 30.2445 30.2445 35.5162 29.8364 42.0847H26.1636C25.7555 35.5161 20.4837 30.2445 13.9153 29.8364V26.1636C20.4837 25.7555 25.7555 20.4837 26.1636 13.9153ZM13.095 54.3594C6.77895 54.3594 1.64062 49.221 1.64062 42.905C1.64062 36.5889 6.77895 31.4506 13.095 31.4506C19.4111 31.4506 24.5494 36.589 24.5494 42.905C24.5494 49.2209 19.411 54.3594 13.095 54.3594Z" fill="black"/>
<path d="M19.6425 12.2867L20.2572 11.9318C20.5812 11.7448 20.7376 11.3622 20.6374 11.0017C20.4553 10.3467 20.2003 9.73295 19.8797 9.17765C19.559 8.62236 19.1551 8.09473 18.6789 7.60965C18.4168 7.34267 18.0073 7.28678 17.6832 7.47381L17.0685 7.82873C16.6474 8.07176 16.2755 7.90967 16.1353 7.82873C15.995 7.74769 15.6687 7.50684 15.6687 7.02056V6.31072C15.6687 5.93665 15.4156 5.60984 15.0533 5.51644C14.395 5.34658 13.7361 5.2605 13.0949 5.2605C12.4536 5.2605 11.7947 5.34658 11.1364 5.51644C10.7742 5.60984 10.5211 5.93665 10.5211 6.31072V7.02056C10.5211 7.50684 10.1948 7.74769 10.0545 7.82873C9.91414 7.90978 9.54238 8.07187 9.12128 7.82873L8.5066 7.47381C8.18241 7.28678 7.77302 7.34256 7.51084 7.60965C7.03474 8.09484 6.63081 8.62236 6.31002 9.17776C5.98944 9.73306 5.73449 10.3468 5.55238 11.0018C5.45219 11.3622 5.6086 11.7449 5.93256 11.9319L6.54725 12.2869C6.96845 12.53 7.01395 12.933 7.01395 13.0951C7.01395 13.2571 6.96845 13.6602 6.54725 13.9033L5.93256 14.2582C5.6086 14.4453 5.45219 14.8279 5.55238 15.1884C5.73459 15.8434 5.98944 16.4571 6.31002 17.0124C6.6307 17.5677 7.03463 18.0952 7.51084 18.5804C7.77302 18.8475 8.18252 18.9034 8.50649 18.7162L9.12117 18.3613C9.54227 18.1182 9.91414 18.2803 10.0544 18.3613C10.1946 18.4424 10.521 18.6832 10.521 19.1695V19.8793C10.521 20.2534 10.774 20.5802 11.1363 20.6736C11.7946 20.8435 12.4535 20.9296 13.0948 20.9296C13.736 20.9296 14.395 20.8435 15.0532 20.6736C15.4155 20.5802 15.6686 20.2534 15.6686 19.8793V19.1695C15.6686 18.6832 15.9948 18.4424 16.1352 18.3613C16.2755 18.2803 16.6472 18.1182 17.0684 18.3613L17.683 18.7162C18.0069 18.9033 18.4166 18.8474 18.6787 18.5804C19.1549 18.0952 19.5588 17.5677 19.8795 17.0124C20.2001 16.4572 20.4549 15.8435 20.6372 15.1885C20.7373 14.828 20.5809 14.4454 20.257 14.2583L19.6423 13.9034C19.2211 13.6603 19.1757 13.2572 19.1757 13.0952C19.1759 12.933 19.2213 12.53 19.6425 12.2867ZM18.8222 15.324L18.8603 15.346C18.746 15.6443 18.6118 15.9273 18.4591 16.1919C18.3064 16.4565 18.1283 16.7141 17.9271 16.9623L17.889 16.9403C17.0831 16.475 16.121 16.475 15.3152 16.9403C14.5093 17.4055 14.0283 18.2388 14.0283 19.1693V19.2132C13.3972 19.3135 12.7929 19.3135 12.1618 19.2132V19.1693C12.1618 18.2388 11.6808 17.4055 10.8749 16.9403C10.069 16.475 9.10685 16.475 8.30108 16.9403L8.26302 16.9623C8.06188 16.7141 7.88381 16.4565 7.73102 16.1919C7.57833 15.9273 7.44413 15.6443 7.32983 15.346L7.36789 15.324C8.17377 14.8588 8.65491 14.0255 8.65491 13.095C8.65491 12.1645 8.17377 11.3312 7.36789 10.866L7.32983 10.844C7.44413 10.5456 7.57833 10.2627 7.73102 9.99808C7.88381 9.7335 8.06177 9.47581 8.26302 9.22764L8.30108 9.24962C9.10695 9.7149 10.0691 9.7149 10.8749 9.24962C11.6808 8.78445 12.1618 7.95112 12.1618 7.02067V6.9767C12.7929 6.8764 13.3972 6.8764 14.0283 6.9767V7.02067C14.0283 7.95112 14.5093 8.78445 15.3152 9.24962C16.121 9.7149 17.0831 9.7149 17.8891 9.24962L17.9271 9.22764C18.1282 9.47581 18.3063 9.7335 18.4591 9.99808C18.6118 10.2627 18.746 10.5456 18.8603 10.844L18.8222 10.866C18.0163 11.3311 17.5353 12.1645 17.5353 13.095C17.5353 14.0255 18.0163 14.8588 18.8222 15.324Z" fill="black"/>
<path d="M13.0949 10.521C11.6757 10.521 10.5211 11.6757 10.5211 13.0948C10.5211 14.5141 11.6758 15.6687 13.0949 15.6687C14.5142 15.6687 15.6689 14.5141 15.6689 13.0948C15.6687 11.6757 14.5142 10.521 13.0949 10.521ZM13.0949 14.0281C12.5803 14.0281 12.1617 13.6094 12.1617 13.0948C12.1617 12.5802 12.5804 12.1616 13.0949 12.1616C13.6095 12.1616 14.0282 12.5803 14.0282 13.0948C14.0281 13.6095 13.6095 14.0281 13.0949 14.0281Z" fill="black"/>
<path d="M19.119 42.0847C18.7534 39.387 16.613 37.2466 13.9153 36.881V35.0142C13.9153 34.5611 13.548 34.1938 13.095 34.1938C12.6419 34.1938 12.2746 34.5611 12.2746 35.0142V36.881C9.57691 37.2466 7.43655 39.387 7.07091 42.0847H5.2041C4.75107 42.0847 4.38379 42.452 4.38379 42.905C4.38379 43.358 4.75107 43.7253 5.2041 43.7253H7.07091C7.43655 46.4231 9.5768 48.5634 12.2746 48.9291V50.7959C12.2746 51.2489 12.6419 51.6162 13.095 51.6162C13.548 51.6162 13.9153 51.2489 13.9153 50.7959V48.9291C16.613 48.5634 18.7534 46.4231 19.119 43.7253H20.9858C21.4389 43.7253 21.8061 43.358 21.8061 42.905C21.8061 42.452 21.4389 42.0847 20.9858 42.0847H19.119ZM13.9153 47.2681V46.4121C13.9153 45.9591 13.548 45.5918 13.095 45.5918C12.6419 45.5918 12.2746 45.9591 12.2746 46.4121V47.2681C10.4831 46.932 9.0681 45.517 8.73188 43.7253H9.58785C10.0409 43.7253 10.4082 43.358 10.4082 42.905C10.4082 42.452 10.0409 42.0847 9.58785 42.0847H8.73188C9.06799 40.293 10.483 38.8781 12.2746 38.5419V39.3979C12.2746 39.8509 12.6419 40.2182 13.095 40.2182C13.548 40.2182 13.9153 39.8509 13.9153 39.3979V38.5419C15.7069 38.8781 17.1219 40.293 17.458 42.0847H16.6021C16.149 42.0847 15.7818 42.452 15.7818 42.905C15.7818 43.358 16.149 43.7253 16.6021 43.7253H17.458C17.1218 45.517 15.7068 46.932 13.9153 47.2681Z" fill="black"/>
<path d="M42.9049 35.9473C39.0683 35.9473 35.9472 39.0685 35.9472 42.9049C35.9472 46.7414 39.0684 49.8626 42.9049 49.8626C46.7413 49.8626 49.8625 46.7414 49.8625 42.9049C49.8625 39.0685 46.7414 35.9473 42.9049 35.9473ZM48.1585 42.0846H43.7252V37.6513C46.0015 38.0054 47.8044 39.8084 48.1585 42.0846ZM42.9049 48.222C39.973 48.222 37.5878 45.8367 37.5878 42.9049C37.5878 40.252 39.5408 38.0469 42.0846 37.6513V42.9049C42.0846 43.358 42.4518 43.7252 42.9049 43.7252H48.1585C47.7629 46.269 45.5578 48.222 42.9049 48.222Z" fill="black"/>
<path d="M39.3978 19.1761H46.412C47.8312 19.1761 48.9858 18.0214 48.9858 16.6022V12.2184C48.9858 10.7991 47.8311 9.64456 46.412 9.64456H45.4788V7.83451C45.4788 6.8987 44.7175 6.13745 43.7817 6.13745H42.0282C41.0924 6.13745 40.331 6.8987 40.331 7.83451V9.64445H39.3978C37.9786 9.64445 36.824 10.7991 36.824 12.2183V16.6021C36.824 18.0214 37.9787 19.1761 39.3978 19.1761ZM46.4121 17.5354H39.398C38.8833 17.5354 38.4648 17.1167 38.4648 16.6022V14.0639C38.6066 14.1235 38.7599 14.1812 38.9259 14.2366C39.3474 14.3771 39.8215 14.4924 40.3313 14.5812V14.8487C40.3313 15.3018 40.6985 15.669 41.1516 15.669C41.6046 15.669 41.9719 15.3018 41.9719 14.8487V14.7655C42.2779 14.7828 42.5896 14.7922 42.9051 14.7922C43.2205 14.7922 43.5322 14.7829 43.8383 14.7655V14.8487C43.8383 15.3018 44.2055 15.669 44.6586 15.669C45.1116 15.669 45.4789 15.3018 45.4789 14.8487V14.5812C45.9887 14.4924 46.4627 14.3771 46.8842 14.2366C47.0503 14.1812 47.2035 14.1235 47.3453 14.0639V16.6022C47.3453 17.1167 46.9266 17.5354 46.4121 17.5354ZM41.9718 7.83451C41.9718 7.80334 41.9971 7.77808 42.0283 7.77808H43.7818C43.813 7.77808 43.8383 7.80334 43.8383 7.83451V9.64445H41.9718V7.83451ZM39.3978 11.2851H46.412C46.9094 11.2851 47.316 11.6768 47.3426 12.1677C47.1103 12.4787 45.6061 13.1516 42.905 13.1516C40.2037 13.1516 38.6995 12.4787 38.4672 12.1677C38.4938 11.6768 38.9004 11.2851 39.3978 11.2851Z" fill="black"/>
</svg>
