<svg width="56" height="56" viewBox="0 0 56 56" fill="none" xmlns="http://www.w3.org/2000/svg">
<g clip-path="url(#clip0)">
<path d="M9.30479 49.7582C9.10146 49.5547 8.81927 49.4377 8.53162 49.4377C8.24396 49.4377 7.96177 49.5547 7.75833 49.7582C7.5549 49.9618 7.43787 50.2438 7.43787 50.5315C7.43787 50.8192 7.55479 51.1013 7.75833 51.3047C7.96177 51.5081 8.24396 51.6252 8.53162 51.6252C8.81927 51.6252 9.10146 51.5082 9.30479 51.3047C9.50823 51.1013 9.62537 50.8192 9.62537 50.5315C9.62537 50.2438 9.50833 49.9616 9.30479 49.7582Z" fill="black"/>
<path d="M51.3541 20.0087C51.1507 19.8052 50.8696 19.6882 50.5808 19.6882C50.2932 19.6882 50.011 19.8052 49.8075 20.0087C49.6042 20.2121 49.4871 20.4943 49.4871 20.782C49.4871 21.0696 49.6041 21.3518 49.8075 21.5552C50.011 21.7586 50.2932 21.8757 50.5808 21.8757C50.8696 21.8757 51.1507 21.7587 51.3541 21.5552C51.5585 21.3518 51.6755 21.0696 51.6755 20.782C51.6755 20.4943 51.5585 20.2121 51.3541 20.0087Z" fill="black"/>
<path d="M55.6799 0.320359C55.4747 0.115281 55.1965 0 54.9063 0L28.0007 0.00142188C27.3968 0.00142188 26.9071 0.491203 26.9071 1.09517V4.22297L16.5395 7.00098C15.956 7.15739 15.6097 7.75709 15.7661 8.3405L21.1394 28.3935L16.4911 33.0419C15.8995 32.178 14.9061 31.6099 13.7825 31.6099H3.28285C1.47357 31.6099 0.00170898 33.0819 0.00170898 34.8911V52.7188C0.00170898 54.528 1.47357 56 3.28285 56H13.7826C15.3197 56 16.6127 54.9373 16.9671 53.5084L18.2676 54.6425C19.2715 55.518 20.5578 56.0001 21.8898 56.0001H54.9065C55.5105 56.0001 56.0003 55.5103 56.0003 54.9064V1.09375C56.0001 0.803688 55.885 0.525437 55.6799 0.320359ZM14.8762 52.7189C14.8762 53.3218 14.3855 53.8126 13.7824 53.8126H3.28274C2.67965 53.8126 2.18899 53.322 2.18899 52.7189V34.8912C2.18899 34.2881 2.67965 33.7974 3.28274 33.7974H7.43888V46.3969C7.43888 47.0008 7.92866 47.4906 8.53263 47.4906C9.1366 47.4906 9.62638 47.0008 9.62638 46.3969V33.7974H13.7825C14.3856 33.7974 14.8763 34.2881 14.8763 34.8912V52.7189H14.8762ZM18.1621 8.83083L26.9071 6.48758V10.5405L26.1741 10.7369C25.8937 10.812 25.655 10.9952 25.5099 11.2465C25.3649 11.4977 25.3255 11.7962 25.4007 12.0764C25.821 13.645 24.8868 15.263 23.3183 15.6833C23.0377 15.7585 22.7985 15.9421 22.6536 16.1938C22.5087 16.4455 22.4696 16.7445 22.5454 17.025L26.8088 32.812H24.6136L23.4823 28.3862C23.4463 28.2453 23.3833 28.1155 23.299 28.0026L18.1621 8.83083ZM26.9071 15.5563V24.7855L24.9122 17.3988C25.7455 16.9685 26.4275 16.3248 26.9071 15.5563ZM42.6203 53.8125H21.8896C21.0863 53.8125 20.3105 53.5218 19.705 52.9938L17.0637 50.6903V35.563L21.8388 30.7879L22.7048 34.1763C22.8286 34.6605 23.2647 34.9991 23.7644 34.9991L45.268 35.0004C46.1124 35.0004 46.7992 35.6873 46.7992 36.5317C46.7992 37.3761 46.1124 38.0629 45.268 38.0629H34.2495C33.6456 38.0629 33.1558 38.5527 33.1558 39.1567C33.1558 39.7607 33.6456 40.2504 34.2495 40.2504H48.6914C49.5358 40.2504 50.2227 40.9373 50.2227 41.7817C50.2227 42.6261 49.5358 43.3129 48.6914 43.3129H34.2495C33.6456 43.3129 33.1558 43.8027 33.1558 44.4067C33.1558 45.0107 33.6456 45.5004 34.2495 45.5004H46.3511C47.1955 45.5004 47.8824 46.1873 47.8824 47.0317C47.8824 47.8761 47.1955 48.5629 46.3511 48.5629H34.2495C33.6456 48.5629 33.1558 49.0527 33.1558 49.6567C33.1558 50.2607 33.6456 50.7504 34.2495 50.7504H42.6203C43.4647 50.7504 44.1516 51.4373 44.1516 52.2817C44.1515 53.1256 43.4646 53.8125 42.6203 53.8125ZM53.8128 53.8125H53.8127H46.0078C46.2199 53.3451 46.339 52.827 46.339 52.2812C46.339 51.7355 46.2199 51.2174 46.0078 50.75H46.3511C48.4016 50.75 50.0698 49.0818 50.0698 47.0314C50.0698 46.4333 49.927 45.8682 49.675 45.367C51.2496 44.9345 52.4099 43.4913 52.4099 41.7815C52.4099 40.952 52.1367 40.1851 51.6759 39.5661V25.7039C51.6759 25.0999 51.1861 24.6101 50.5822 24.6101C49.9782 24.6101 49.4884 25.0999 49.4884 25.7039V38.1499C49.2314 38.0936 48.9649 38.0629 48.6912 38.0629H48.6553C48.8674 37.5956 48.9865 37.0775 48.9865 36.5317C48.9865 34.4811 47.3183 32.813 45.2679 32.813H43.5097C45.3766 32.0124 46.6878 30.1568 46.6878 28C46.6878 25.1137 44.3397 22.7655 41.4534 22.7655C38.5672 22.7655 36.2191 25.1137 36.2191 28C36.2191 30.1568 37.5303 32.0124 39.3972 32.813H33.4184V12.0163C35.3723 11.5905 36.914 10.0488 37.3397 8.09484H45.567C45.9927 10.0488 47.5344 11.5905 49.4883 12.0163V15.4167C49.4883 16.0207 49.9781 16.5105 50.5821 16.5105C51.186 16.5105 51.6758 16.0207 51.6758 15.4167V11.0398C51.6758 10.4358 51.186 9.94602 50.5821 9.94602C48.9582 9.94602 47.6373 8.62488 47.6373 7.00109C47.6373 6.39713 47.1475 5.90734 46.5435 5.90734H36.3633C35.7593 5.90734 35.2696 6.39713 35.2696 7.00109C35.2696 8.62498 33.9485 9.94602 32.3248 9.94602C31.7208 9.94602 31.231 10.4358 31.231 11.0398V32.8129H29.0947V2.1887L53.8128 2.1875V53.8125ZM41.4536 31.047C39.7735 31.047 38.4068 29.6801 38.4068 28.0001C38.4068 26.3201 39.7736 24.9531 41.4536 24.9531C43.1336 24.9531 44.5005 26.32 44.5005 28C44.5005 29.68 43.1337 31.047 41.4536 31.047Z" fill="black"/>
</g>
<defs>
<clipPath id="clip0">
<rect width="56" height="56" fill="white"/>
</clipPath>
</defs>
</svg>
