<svg width="101" height="55" viewBox="0 0 101 55" fill="none" xmlns="http://www.w3.org/2000/svg">
<rect x="47" y="10" width="54" height="32" rx="3" fill="#476ED3"/>
<g filter="url(#filter0_d)">
<path d="M85.376 17.392V21.232C82.048 24.736 80.384 28.864 80.384 33.616V34H75.128C75.112 33.92 75.104 33.84 75.104 33.76C75.104 31.808 75.688 29.544 76.856 26.968C78.024 24.392 79.288 22.568 80.648 21.496C79 21.56 77.968 21.592 77.552 21.592H72.56V17.392H85.376Z" fill="white"/>
</g>
<g clip-path="url(#clip0)">
<path d="M8.55078 27.8995L11.4208 26.5352L13.4409 27.3721L14.5057 30.3661C14.5651 30.5332 14.6748 30.6778 14.8197 30.7801C14.9645 30.8824 15.1375 30.9374 15.3148 30.9375H19.0602C19.2376 30.9375 19.4107 30.8826 19.5557 30.7803C19.7006 30.678 19.8104 30.5333 19.8698 30.3661L20.9346 27.3721L22.9548 26.5352L25.8248 27.8995C25.9851 27.9756 26.165 28.0002 26.3398 27.9701C26.5147 27.9399 26.6759 27.8564 26.8014 27.731L29.4497 25.083C29.5752 24.9575 29.6588 24.7963 29.689 24.6214C29.7191 24.4465 29.6944 24.2666 29.6183 24.1063L28.254 21.2363L29.0908 19.2162L32.0849 18.1514C32.2521 18.0919 32.3968 17.9821 32.4991 17.8371C32.6014 17.6921 32.6563 17.5189 32.6562 17.3414V13.5961C32.6562 13.4186 32.6013 13.2456 32.499 13.1006C32.3967 12.9556 32.252 12.8459 32.0849 12.7864L29.0908 11.7217L28.254 9.70148L29.6183 6.83149C29.6945 6.67118 29.7193 6.49118 29.6891 6.31624C29.6589 6.14129 29.5753 5.97999 29.4497 5.85449L26.8018 3.20654C26.6763 3.08104 26.515 2.99747 26.3402 2.96729C26.1653 2.93711 25.9854 2.96181 25.8251 3.038L22.9551 4.40226L20.9349 3.56544L19.8698 0.571377C19.8104 0.404209 19.7006 0.259543 19.5557 0.157239C19.4107 0.0549351 19.2376 8.63643e-06 19.0602 0L15.3148 0C15.1374 8.63643e-06 14.9643 0.0549351 14.8193 0.157239C14.6744 0.259543 14.5646 0.404209 14.5052 0.571377L13.4404 3.56544L11.4202 4.40226L8.55078 3.038C8.3904 2.96161 8.21029 2.93681 8.03524 2.96699C7.86018 2.99717 7.69878 3.08086 7.57324 3.20654L4.92529 5.85449C4.79961 5.98003 4.71592 6.14143 4.68574 6.31649C4.65556 6.49154 4.68036 6.67165 4.75675 6.83203L6.12101 9.70202L5.28419 11.7222L2.29013 12.7864C2.12296 12.8459 1.97829 12.9556 1.87599 13.1006C1.77369 13.2456 1.71876 13.4186 1.71875 13.5961V17.3414C1.71876 17.5189 1.77369 17.6919 1.87599 17.8369C1.97829 17.9819 2.12296 18.0916 2.29013 18.1511L5.28419 19.2158L6.12101 21.236L4.75675 24.106C4.68049 24.2663 4.65575 24.4463 4.68593 24.6213C4.71611 24.7962 4.79973 24.9575 4.92529 25.083L7.57324 27.731C7.69883 27.8566 7.86023 27.9402 8.03526 27.9704C8.2103 28.0005 8.39038 27.9758 8.55078 27.8995ZM7.85512 20.9312L6.7259 18.2052C6.67988 18.0941 6.61104 17.994 6.52385 17.9112C6.43665 17.8284 6.33304 17.7648 6.21973 17.7246L3.4375 16.7349V14.2026L6.21973 13.2129C6.33302 13.1726 6.4366 13.109 6.52376 13.0262C6.61092 12.9434 6.67971 12.8432 6.72568 12.7321L7.85512 10.0063C7.90121 9.89521 7.92344 9.77563 7.92039 9.65534C7.91734 9.53506 7.88906 9.41677 7.83739 9.30811L6.56981 6.64093L8.36011 4.85074L11.0273 6.11832C11.1359 6.17004 11.2542 6.19835 11.3745 6.2014C11.4948 6.20445 11.6144 6.18219 11.7255 6.13604L14.4515 5.00683C14.5624 4.96079 14.6625 4.89198 14.7452 4.80485C14.8279 4.71771 14.8914 4.61419 14.9316 4.50098L15.9213 1.71875H18.4537L19.4434 4.50098C19.4836 4.61427 19.5472 4.71785 19.63 4.80501C19.7129 4.89217 19.8131 4.96096 19.9242 5.00693L22.6499 6.13637C22.761 6.18251 22.8806 6.20478 23.0009 6.20172C23.1212 6.19867 23.2395 6.17036 23.3481 6.11864L26.0153 4.85106L27.8059 6.64168L26.5384 9.30886C26.4867 9.41752 26.4584 9.53582 26.4554 9.6561C26.4523 9.77638 26.4745 9.89596 26.5206 10.0071L27.6499 12.733C27.6959 12.8439 27.7646 12.9439 27.8517 13.0265C27.9387 13.1092 28.0422 13.1727 28.1553 13.2129L30.9375 14.2024V16.7347L28.1553 17.7246C28.042 17.7649 27.9384 17.8285 27.8512 17.9113C27.7641 17.9941 27.6953 18.0943 27.6493 18.2054L26.5199 20.9312C26.4738 21.0423 26.4516 21.1619 26.4546 21.2822C26.4577 21.4024 26.4859 21.5207 26.5376 21.6294L27.8052 24.2966L26.0146 26.0872L23.3474 24.8196C23.2387 24.7679 23.1204 24.7396 23.0002 24.7365C22.8799 24.7335 22.7603 24.7557 22.6492 24.8019L19.9232 25.9311C19.8123 25.9771 19.7124 26.0459 19.6297 26.1329C19.5471 26.22 19.4836 26.3234 19.4434 26.4365L18.4537 29.2188H15.9213L14.9316 26.4365C14.8914 26.3232 14.8278 26.2196 14.745 26.1325C14.6621 26.0453 14.5619 25.9765 14.4508 25.9306L11.7251 24.8011C11.614 24.755 11.4944 24.7327 11.3741 24.7358C11.2538 24.7388 11.1355 24.7671 11.0269 24.8189L8.35968 26.0864L6.56949 24.2961L7.83707 21.629C7.88873 21.5204 7.91703 21.4022 7.92014 21.282C7.92324 21.1618 7.90109 21.0423 7.85512 20.9312Z" fill="black"/>
<path d="M17.1875 23.2031C18.7172 23.2031 20.2126 22.7495 21.4845 21.8997C22.7564 21.0498 23.7477 19.8418 24.3331 18.4286C24.9185 17.0153 25.0717 15.4602 24.7733 13.9599C24.4748 12.4595 23.7382 11.0814 22.6565 9.99972C21.5749 8.91805 20.1967 8.18142 18.6964 7.88299C17.1961 7.58456 15.641 7.73773 14.2277 8.32312C12.8144 8.90852 11.6065 9.89985 10.7566 11.1718C9.90674 12.4437 9.45313 13.939 9.45312 15.4688C9.45543 17.5193 10.271 19.4853 11.721 20.9352C13.171 22.3852 15.1369 23.2008 17.1875 23.2031ZM17.1875 9.45313C18.3773 9.45313 19.5403 9.80594 20.5296 10.4669C21.5189 11.1279 22.2899 12.0675 22.7452 13.1667C23.2005 14.2659 23.3197 15.4754 23.0875 16.6423C22.8554 17.8093 22.2825 18.8811 21.4412 19.7224C20.5999 20.5637 19.528 21.1367 18.3611 21.3688C17.1942 21.6009 15.9846 21.4818 14.8854 21.0265C13.7862 20.5712 12.8467 19.8001 12.1857 18.8109C11.5247 17.8216 11.1719 16.6585 11.1719 15.4688C11.1737 13.8739 11.808 12.3448 12.9358 11.217C14.0636 10.0893 15.5926 9.45492 17.1875 9.45313Z" fill="black"/>
<path d="M33.8165 41.4084L32.6875 44.1344C32.6414 44.2455 32.6191 44.3651 32.6222 44.4854C32.6252 44.6056 32.6535 44.7239 32.7052 44.8326L33.9728 47.4998L32.1821 49.2904L29.515 48.0228C29.4063 47.9711 29.288 47.9429 29.1677 47.9398C29.0474 47.9368 28.9279 47.959 28.8167 48.0051L26.0917 49.1336C25.9806 49.1796 25.8804 49.2484 25.7976 49.3355C25.7148 49.4227 25.6511 49.5262 25.6108 49.6395L24.6211 52.422H22.0891L21.0995 49.6397C21.0593 49.5264 20.9957 49.4229 20.9128 49.3357C20.83 49.2485 20.7298 49.1797 20.6187 49.1338L17.8928 48.0046C17.7816 47.9584 17.6621 47.9361 17.5418 47.9392C17.4215 47.9422 17.3032 47.9706 17.1945 48.0223L14.5274 49.2899L12.7367 47.4992L14.0043 44.8321C14.056 44.7234 14.0843 44.6051 14.0873 44.4848C14.0904 44.3645 14.0681 44.245 14.022 44.1338L12.893 41.4079C12.847 41.297 12.7783 41.197 12.6912 41.1143C12.6042 41.0316 12.5008 40.9681 12.3877 40.9278L9.6055 39.9385V37.4058L12.3877 36.4163C12.501 36.376 12.6046 36.3124 12.6918 36.2296C12.7789 36.1468 12.8478 36.0466 12.8938 35.9355L14.0228 33.2096C14.0689 33.0984 14.0911 32.9788 14.0881 32.8585C14.085 32.7383 14.0567 32.62 14.0051 32.5113L12.4768 29.2964L10.9249 30.0352L12.2891 32.9052L11.4524 34.9254L8.45834 35.9901C8.29115 36.0495 8.14648 36.1593 8.04417 36.3043C7.94187 36.4493 7.88695 36.6224 7.88696 36.7998V40.5452C7.88695 40.7226 7.94187 40.8957 8.04417 41.0407C8.14648 41.1857 8.29115 41.2955 8.45834 41.3549L11.4524 42.4196L12.2891 44.4398L10.9249 47.3097C10.8487 47.47 10.824 47.65 10.8542 47.8249C10.8844 47.9997 10.968 48.161 11.0935 48.2864L13.7415 50.9342C13.8669 51.0596 14.0281 51.1432 14.203 51.1734C14.3779 51.2036 14.5578 51.1789 14.718 51.1027L17.588 49.7385L19.6075 50.5753L20.6724 53.5693C20.7319 53.7366 20.8417 53.8813 20.9868 53.9836C21.1319 54.0859 21.3051 54.1408 21.4826 54.1407H25.228C25.4054 54.1407 25.5785 54.0858 25.7235 53.9835C25.8685 53.8812 25.9782 53.7365 26.0377 53.5693L27.1024 50.5753L29.1225 49.7385L31.9924 51.1027C32.1527 51.1789 32.3326 51.2036 32.5075 51.1734C32.6823 51.1432 32.8435 51.0596 32.969 50.9342L35.6174 48.2862C35.7429 48.1608 35.8265 47.9995 35.8567 47.8246C35.8869 47.6498 35.8622 47.4698 35.786 47.3095L34.4218 44.4395L35.4047 42.0665L33.8165 41.4084Z" fill="black"/>
<path d="M35.6172 29.0574L32.9689 26.4095C32.8434 26.284 32.6822 26.2004 32.5073 26.1702C32.3325 26.1401 32.1526 26.1647 31.9923 26.2409L28.7775 27.7692L29.5153 29.3216L32.1825 28.054L33.9732 29.8446L32.7056 32.5118C32.6539 32.6204 32.6256 32.7387 32.6226 32.859C32.6195 32.9793 32.6418 33.0989 32.6878 33.21L33.6628 35.5638L35.2506 34.906L34.422 32.9051L35.7862 30.0352C35.8626 29.8747 35.8874 29.6945 35.8571 29.5194C35.8268 29.3443 35.743 29.1829 35.6172 29.0574Z" fill="black"/>
<path d="M23.3552 46.4063C24.8849 46.4063 26.3803 45.9526 27.6522 45.1028C28.9241 44.2529 29.9155 43.045 30.5009 41.6317C31.0863 40.2184 31.2394 38.6633 30.941 37.163C30.6426 35.6627 29.9059 34.2845 28.8243 33.2029C27.7426 32.1212 26.3644 31.3845 24.8641 31.0861C23.3638 30.7877 21.8087 30.9409 20.3954 31.5262C18.9821 32.1116 17.7742 33.103 16.9243 34.3749C16.0745 35.6468 15.6208 37.1422 15.6208 38.6719C15.6232 40.7225 16.4388 42.6884 17.8887 44.1384C19.3387 45.5883 21.3046 46.404 23.3552 46.4063ZM23.3552 32.6563C24.545 32.6563 25.7081 33.0091 26.6973 33.6701C27.6866 34.3311 28.4576 35.2706 28.9129 36.3698C29.3682 37.469 29.4874 38.6786 29.2553 39.8455C29.0231 41.0124 28.4502 42.0843 27.6089 42.9256C26.7676 43.7669 25.6957 44.3398 24.5288 44.5719C23.3619 44.804 22.1524 44.6849 21.0531 44.2296C19.9539 43.7743 19.0144 43.0032 18.3534 42.014C17.6924 41.0247 17.3396 39.8617 17.3396 38.6719C17.3414 37.077 17.9758 35.5479 19.1035 34.4202C20.2313 33.2924 21.7603 32.658 23.3552 32.6563Z" fill="black"/>
<path d="M52.7099 15.3646L49.7158 14.2998L48.879 12.2796L50.2433 9.40962C50.3195 9.24931 50.3443 9.06931 50.3141 8.89436C50.2839 8.71942 50.2003 8.55811 50.0747 8.43262L47.4268 5.78467C47.3013 5.65917 47.1401 5.57559 46.9652 5.54541C46.7903 5.51524 46.6104 5.53994 46.4501 5.61612L43.5801 6.98038L41.5599 6.14356L40.4953 3.1495C40.4358 2.98226 40.326 2.83755 40.1809 2.73524C40.0359 2.63293 39.8627 2.57804 39.6852 2.57813H35.9398C35.7624 2.57811 35.5893 2.63303 35.4443 2.73533C35.2993 2.83764 35.1896 2.98232 35.1301 3.1495L34.0654 6.14356L31.6924 7.12669L32.3501 8.71449L35.0761 7.58527C35.1871 7.53922 35.2873 7.47037 35.3701 7.38318C35.4529 7.29599 35.5164 7.1924 35.5567 7.0791L36.546 4.29688H39.0784L40.0684 7.0791C40.1086 7.1924 40.1722 7.29598 40.2551 7.38314C40.3379 7.47029 40.4381 7.53908 40.5492 7.58506L43.2749 8.71449C43.3861 8.76058 43.5057 8.78282 43.6259 8.77977C43.7462 8.77671 43.8645 8.74844 43.9732 8.69677L46.6403 7.42919L48.431 9.2198L47.1634 11.887C47.1117 11.9956 47.0834 12.1139 47.0804 12.2342C47.0773 12.3545 47.0996 12.4741 47.1457 12.5852L48.2749 15.3112C48.3209 15.422 48.3897 15.522 48.4768 15.6046C48.5638 15.6873 48.6672 15.7508 48.7803 15.791L51.5625 16.7804V19.3127L48.7803 20.3027C48.667 20.343 48.5634 20.4067 48.4763 20.4895C48.3891 20.5724 48.3203 20.6726 48.2743 20.7837L47.1449 23.5093C47.0988 23.6204 47.0766 23.74 47.0796 23.8603C47.0827 23.9806 47.111 24.0989 47.1626 24.2075L48.4302 26.8747L46.2108 29.0941L47.4268 30.3091L50.0747 27.6611C50.2002 27.5357 50.2838 27.3744 50.314 27.1995C50.3442 27.0247 50.3195 26.8447 50.2433 26.6845L48.879 23.8145L49.7158 21.7943L52.7099 20.7296C52.8771 20.6701 53.0219 20.5603 53.1242 20.4153C53.2265 20.2702 53.2814 20.0971 53.2813 19.9196V16.1742C53.2813 15.9968 53.2263 15.8237 53.124 15.6787C53.0217 15.5338 52.8771 15.424 52.7099 15.3646Z" fill="black"/>
<path d="M37.8124 24.0623C36.6131 24.0658 35.4404 23.7093 34.4458 23.039C33.4513 22.3687 32.6807 21.4155 32.2338 20.3026L30.6405 20.9471C31.2314 22.4076 32.2542 23.6528 33.5721 24.5162C34.89 25.3795 36.4402 25.8198 38.0151 25.7781C39.5901 25.7363 41.1147 25.2146 42.3851 24.2827C43.6555 23.3508 44.6109 22.0532 45.1237 20.5635C45.6364 19.0737 45.6819 17.4629 45.2542 15.9466C44.8265 14.4302 43.9459 13.0807 42.7302 12.0785C41.5145 11.0763 40.0218 10.4693 38.4517 10.3387C36.8816 10.208 35.3091 10.56 33.9445 11.3475L34.8054 12.8351C35.6045 12.3744 36.4989 12.1036 37.4194 12.0438C38.34 11.9839 39.2619 12.1365 40.114 12.4898C40.9661 12.8432 41.7256 13.3877 42.3336 14.0814C42.9417 14.7751 43.3821 15.5993 43.6207 16.4904C43.8594 17.3814 43.8899 18.3154 43.71 19.2201C43.53 20.1249 43.1444 20.9761 42.583 21.708C42.0215 22.44 41.2993 23.033 40.4721 23.4412C39.6449 23.8494 38.7349 24.062 37.8124 24.0623Z" fill="black"/>
<path d="M47.5606 32.6562H44.6876V29.2188C44.6876 28.535 44.416 27.8792 43.9325 27.3957C43.449 26.9122 42.7932 26.6406 42.1095 26.6406C41.4257 26.6406 40.77 26.9122 40.2865 27.3957C39.803 27.8792 39.5314 28.535 39.5314 29.2188V36.5972L38.9543 36.0199C38.4512 35.5169 37.7689 35.2343 37.0575 35.2343C36.346 35.2343 35.6637 35.5169 35.1607 36.0199C34.6576 36.523 34.375 37.2053 34.375 37.9168C34.375 38.6282 34.6576 39.3105 35.1607 39.8136L39.5314 44.184V45.5469H38.672C38.4441 45.5469 38.2255 45.6374 38.0643 45.7986C37.9031 45.9597 37.8126 46.1783 37.8126 46.4062V54.1406H39.5314V47.2656H49.8439V54.1406H51.5626V46.4062C51.5626 46.1783 51.4721 45.9597 51.3109 45.7986C51.1497 45.6374 50.9311 45.5469 50.7032 45.5469H49.8439V44.184L51.6056 42.4223C52.4057 41.6223 52.9505 40.6029 53.1713 39.4932C53.3921 38.3835 53.2788 37.2332 52.8458 36.1879C52.4129 35.1425 51.6796 34.2491 50.7389 33.6204C49.7981 32.9918 48.6921 32.6563 47.5606 32.6562ZM50.3904 41.207L48.3768 43.2207C48.2157 43.3818 48.1252 43.6003 48.1251 43.8281V45.5469H41.2501V43.8281C41.2501 43.7153 41.2279 43.6035 41.1847 43.4993C41.1415 43.395 41.0782 43.3002 40.9984 43.2204L36.3762 38.5981C36.2854 38.5089 36.2132 38.4026 36.1637 38.2854C36.1142 38.1681 36.0885 38.0422 36.0879 37.915C36.0873 37.7877 36.112 37.6616 36.1604 37.544C36.2089 37.4263 36.2801 37.3194 36.3701 37.2294C36.4601 37.1394 36.567 37.0681 36.6847 37.0197C36.8024 36.9713 36.9285 36.9466 37.0557 36.9472C37.183 36.9477 37.3089 36.9735 37.4261 37.023C37.5433 37.0724 37.6496 37.1447 37.7388 37.2354L39.783 39.2796C39.9032 39.3998 40.0564 39.4816 40.2231 39.5148C40.3898 39.5479 40.5626 39.5309 40.7196 39.4659C40.8766 39.4008 41.0109 39.2907 41.1053 39.1493C41.1997 39.008 41.2501 38.8418 41.2501 38.6719V29.2188C41.2501 28.9908 41.3406 28.7722 41.5018 28.6111C41.663 28.4499 41.8816 28.3594 42.1095 28.3594C42.3374 28.3594 42.556 28.4499 42.7171 28.6111C42.8783 28.7722 42.9689 28.9908 42.9689 29.2188V33.5156C42.9689 33.7435 43.0594 33.9621 43.2206 34.1233C43.3817 34.2845 43.6003 34.375 43.8282 34.375H47.5606C48.3522 34.375 49.1259 34.6097 49.7841 35.0494C50.4423 35.4892 50.9552 36.1142 51.2581 36.8456C51.5611 37.5769 51.6403 38.3816 51.4858 39.1579C51.3314 39.9343 50.9502 40.6474 50.3904 41.207Z" fill="black"/>
<path d="M46.4062 48.9844H48.125V50.7031H46.4062V48.9844Z" fill="black"/>
</g>
<defs>
<filter id="filter0_d" x="68.5601" y="17.3921" width="20.816" height="24.608" filterUnits="userSpaceOnUse" color-interpolation-filters="sRGB">
<feFlood flood-opacity="0" result="BackgroundImageFix"/>
<feColorMatrix in="SourceAlpha" type="matrix" values="0 0 0 0 0 0 0 0 0 0 0 0 0 0 0 0 0 0 127 0"/>
<feOffset dy="4"/>
<feGaussianBlur stdDeviation="2"/>
<feColorMatrix type="matrix" values="0 0 0 0 0 0 0 0 0 0 0 0 0 0 0 0 0 0 0.1 0"/>
<feBlend mode="normal" in2="BackgroundImageFix" result="effect1_dropShadow"/>
<feBlend mode="normal" in="SourceGraphic" in2="effect1_dropShadow" result="shape"/>
</filter>
<clipPath id="clip0">
<rect width="55" height="55" fill="white"/>
</clipPath>
</defs>
</svg>
