<svg width="194" height="199" viewBox="0 0 194 199" fill="none" xmlns="http://www.w3.org/2000/svg">
<ellipse cx="96.9428" cy="99.2456" rx="67.8821" ry="75.1154" transform="rotate(30.7022 96.9428 99.2456)" fill="#F9E850"/>
<ellipse cx="97.5" cy="98.5" rx="70.5" ry="67.5" fill="#476ED3"/>
<g clip-path="url(#clip0)">
<path d="M136.868 80.0733C136.62 79.1518 136.015 78.3662 135.188 77.8899C134.36 77.4112 133.376 77.2818 132.453 77.5296C131.531 77.778 130.745 78.382 130.269 79.2092L129.669 80.2531C129.099 79.9257 128.371 80.1184 128.037 80.6855L124.99 85.8801L123.946 85.2802C123.669 85.1203 123.34 85.0769 123.032 85.1601C122.723 85.2439 122.461 85.4466 122.302 85.7243C121.977 86.2978 122.175 87.0266 122.746 87.3558L123.79 87.9557L113.592 105.629L111.072 112.36L109.872 114.603C109.17 115.825 109.245 117.344 110.064 118.491L107.365 121.802L106.609 119.907C106.268 119.062 105.479 118.483 104.572 118.412C103.664 118.341 102.794 118.79 102.326 119.57L101.894 120.302L101.486 115.503C101.392 114.368 100.513 113.455 99.3823 113.318C98.251 113.181 97.1801 113.859 96.8186 114.939L93.8672 123.794C93.661 124.42 93.9984 125.095 94.6229 125.306C94.7401 125.36 94.866 125.393 94.9949 125.401C95.5105 125.403 95.9698 125.074 96.135 124.586L99.0741 115.731L99.4942 120.602C99.5809 121.641 100.328 122.506 101.344 122.741C102.359 122.977 103.41 122.529 103.945 121.634L104.389 120.902L105.133 122.786C105.449 123.58 106.163 124.146 107.009 124.272C107.854 124.398 108.702 124.065 109.237 123.398L112.032 119.859C112.342 119.94 112.66 119.98 112.98 119.979C114.266 119.989 115.46 119.312 116.111 118.203L117.311 116.199L121.883 110.644L132.189 92.7549L133.233 93.3548C133.511 93.5142 133.714 93.7772 133.796 94.0871C133.879 94.3947 133.836 94.7228 133.677 94.9987L128.877 103.313C128.696 103.586 128.635 103.922 128.708 104.241C128.78 104.561 128.98 104.837 129.261 105.005C129.538 105.165 129.867 105.209 130.175 105.125C130.484 105.042 130.746 104.839 130.905 104.561L135.704 96.2465C136.183 95.4187 136.312 94.4345 136.064 93.5112C135.815 92.5891 135.211 91.8035 134.384 91.3272L133.34 90.7273L136.34 85.5321C136.667 84.9621 136.475 84.2345 135.908 83.9006L136.508 82.8566C136.999 82.0159 137.13 81.0118 136.868 80.0733ZM132.344 80.409C132.503 80.1313 132.767 79.928 133.077 79.8454C133.385 79.7692 133.711 79.812 133.988 79.9655C134.267 80.1243 134.469 80.3879 134.552 80.6972C134.629 81.0054 134.586 81.3311 134.432 81.6088L133.832 82.6527L131.745 81.4529L132.344 80.409ZM115.991 113.908L115.391 113.56L113.616 112.528L115.319 107.969L119.099 110.152L115.991 113.908ZM112.392 117.375C111.885 117.021 111.729 116.342 112.032 115.803L112.632 114.76L114.719 115.959L114.12 116.991C113.951 117.283 113.669 117.49 113.34 117.563C113.012 117.636 112.668 117.568 112.392 117.375ZM120.467 108.185L116.315 105.785L125.914 89.1555L130.065 91.5551L120.467 108.185ZM131.265 89.4795L127.113 87.0799L129.513 82.9287L133.664 85.3283L131.265 89.4795Z" fill="white"/>
<path d="M83.9326 116.775L79.6858 121.011L77.1421 118.467C76.674 118.002 75.9183 118.002 75.4502 118.467C75.2229 118.692 75.0952 118.999 75.0952 119.319C75.0952 119.638 75.2229 119.945 75.4502 120.17L77.9939 122.714C78.4439 123.161 79.052 123.411 79.6858 123.41C80.3232 123.414 80.9366 123.163 81.3895 122.714L85.6245 118.467C86.0322 117.991 86.0047 117.281 85.5618 116.838C85.1183 116.395 84.4089 116.367 83.9326 116.775Z" fill="white"/>
<path d="M69.7991 120.002C69.7991 125.635 74.3651 130.201 79.9973 130.201C85.6296 130.201 90.1956 125.635 90.1956 120.002C90.1956 119.34 89.6584 118.802 88.9958 118.802C88.3332 118.802 87.796 119.34 87.796 120.002C87.796 124.309 84.3044 127.801 79.9973 127.801C75.6903 127.801 72.1987 124.309 72.1987 120.002C72.1987 115.695 75.6903 112.204 79.9973 112.204C81.6857 112.199 83.329 112.747 84.6764 113.764C85.2066 114.161 85.9588 114.054 86.356 113.523C86.7538 112.993 86.6466 112.242 86.1164 111.844C83.0261 109.526 78.8913 109.154 75.4366 110.881C71.9813 112.608 69.7991 116.14 69.7991 120.002Z" fill="white"/>
<path d="M108.193 72.6103C108.855 72.6103 109.392 72.0737 109.392 71.4105C109.392 70.7479 108.855 70.2107 108.193 70.2107H76.9979C76.3353 70.2107 75.7981 70.7479 75.7981 71.4105V76.2097C75.7981 76.8728 76.3353 77.4095 76.9979 77.4095H108.193C108.855 77.4095 109.392 76.8728 109.392 76.2097C109.392 75.5471 108.855 75.0099 108.193 75.0099H78.1977V72.6103H108.193Z" fill="white"/>
<path d="M80.5974 79.8092C79.9348 79.8092 79.3976 80.3464 79.3976 81.009C79.3976 81.6722 79.9348 82.2088 80.5974 82.2088H104.593C105.256 82.2088 105.793 81.6722 105.793 81.009C105.793 80.3464 105.256 79.8092 104.593 79.8092H80.5974Z" fill="white"/>
<path d="M111.792 88.2078H85.3965C84.7339 88.2078 84.1967 88.745 84.1967 89.4076C84.1967 90.0707 84.7339 90.6073 85.3965 90.6073H111.792C112.455 90.6073 112.992 90.0707 112.992 89.4076C112.992 88.745 112.455 88.2078 111.792 88.2078Z" fill="white"/>
<path d="M99.7941 96.6062C99.7941 95.9436 99.2568 95.4064 98.5943 95.4064H74.5984C73.9358 95.4064 73.3986 95.9436 73.3986 96.6062C73.3986 97.2693 73.9358 97.806 74.5984 97.806H98.5943C99.2568 97.806 99.7941 97.2693 99.7941 96.6062Z" fill="white"/>
<path d="M111.792 95.4064H103.393C102.731 95.4064 102.194 95.9436 102.194 96.6062C102.194 97.2693 102.731 97.806 103.393 97.806H111.792C112.455 97.806 112.992 97.2693 112.992 96.6062C112.992 95.9436 112.455 95.4064 111.792 95.4064Z" fill="white"/>
<path d="M86.5963 103.805C87.2589 103.805 87.7961 103.268 87.7961 102.605C87.7961 101.943 87.2589 101.405 86.5963 101.405H74.5984C73.9358 101.405 73.3986 101.943 73.3986 102.605C73.3986 103.268 73.9358 103.805 74.5984 103.805H86.5963Z" fill="white"/>
<path d="M91.3955 103.805H99.794C100.457 103.805 100.994 103.268 100.994 102.605C100.994 101.943 100.457 101.405 99.794 101.405H91.3955C90.7329 101.405 90.1957 101.943 90.1957 102.605C90.1957 103.268 90.7329 103.805 91.3955 103.805Z" fill="white"/>
<path d="M118.991 118.203C118.328 118.203 117.791 118.74 117.791 119.402V131.4C117.791 132.064 117.254 132.6 116.591 132.6H68.5994C67.9368 132.6 67.3996 132.064 67.3996 131.4V66.6115C67.3996 65.9489 67.9368 65.4117 68.5994 65.4117H116.591C117.254 65.4117 117.791 65.9489 117.791 66.6115V89.144C117.791 89.8065 118.328 90.3438 118.991 90.3438C119.653 90.3438 120.191 89.8065 120.191 89.144V66.6115C120.191 64.6237 118.579 63.0121 116.591 63.0121H68.5994C66.6116 63.0121 65 64.6237 65 66.6115V131.4C65 133.389 66.6116 135 68.5994 135H116.591C118.579 135 120.191 133.389 120.191 131.4V119.402C120.191 118.74 119.653 118.203 118.991 118.203Z" fill="white"/>
</g>
<defs>
<clipPath id="clip0">
<rect width="72" height="72" fill="white" transform="translate(65 63)"/>
</clipPath>
</defs>
</svg>
