<svg width="211" height="61" viewBox="0 0 211 61" fill="none" xmlns="http://www.w3.org/2000/svg">
<rect y="2.63184" width="66.676" height="15.5724" rx="7.78618" fill="#211E1E"/>
<path d="M16.8148 10.8417C16.8148 11.9833 16.3936 12.8349 15.5514 13.3964C14.7092 13.9485 13.6517 14.2246 12.379 14.2246C10.9847 14.2246 9.88513 13.9064 9.08034 13.2701C8.27555 12.6244 7.8638 11.7447 7.84508 10.6311H10.9192C10.966 11.4733 11.4339 11.8944 12.3229 11.8944C12.7908 11.8944 13.1511 11.7915 13.4038 11.5856C13.6658 11.3704 13.7968 11.085 13.7968 10.7294C13.7968 10.5048 13.75 10.3223 13.6564 10.1819C13.5722 10.0416 13.4412 9.94329 13.2634 9.88714C13.0949 9.82164 12.9312 9.77953 12.7721 9.76081C12.6224 9.74209 12.4305 9.73274 12.1966 9.73274C12.1217 9.73274 12.0141 9.73741 11.8737 9.74677C11.7333 9.74677 11.6257 9.74677 11.5509 9.74677V7.83773C11.6257 7.84709 11.7895 7.85177 12.0422 7.85177C12.2668 7.85177 12.4165 7.85177 12.4913 7.85177C12.5756 7.85177 12.7159 7.83773 12.9125 7.80966C13.1183 7.77223 13.2681 7.72544 13.3616 7.66929C13.4552 7.61314 13.5441 7.52424 13.6283 7.40259C13.7126 7.27157 13.7547 7.11249 13.7547 6.92533C13.7547 6.64458 13.633 6.41999 13.3897 6.25155C13.1558 6.0831 12.8376 5.99888 12.4352 5.99888C12.0328 5.99888 11.7006 6.08778 11.4386 6.26558C11.1859 6.44339 11.0549 6.68202 11.0455 6.98147H8.16793C8.17729 5.96145 8.57033 5.16601 9.34704 4.59517C10.1238 4.02433 11.1719 3.73891 12.4913 3.73891C13.7172 3.73891 14.6905 3.97754 15.4111 4.4548C16.141 4.93206 16.5059 5.62456 16.5059 6.53229C16.5059 6.96276 16.3656 7.37919 16.0848 7.78159C15.8041 8.18398 15.4532 8.45069 15.0321 8.5817C15.5187 8.69399 15.9351 8.9607 16.2813 9.38181C16.637 9.79356 16.8148 10.2802 16.8148 10.8417ZM25.3462 14H22.5388C22.4733 13.7567 22.4359 13.5321 22.4265 13.3262C21.8182 13.9345 21.0462 14.2386 20.1104 14.2386C19.2869 14.2386 18.6412 14.0374 18.1733 13.635C17.7147 13.2326 17.4855 12.6758 17.4855 11.9646C17.4855 11.5997 17.5603 11.2815 17.7101 11.0101C17.8598 10.7387 18.0095 10.5328 18.1592 10.3925C18.3183 10.2427 18.585 10.1117 18.9594 9.99944C19.3337 9.87779 19.6004 9.80292 19.7595 9.77485C19.9186 9.74677 20.2274 9.69998 20.6859 9.63448C20.7046 9.62512 20.7187 9.62044 20.728 9.62044C20.7467 9.62044 20.7655 9.62044 20.7842 9.62044C20.8122 9.61108 20.8356 9.6064 20.8544 9.6064C20.9011 9.59704 21.0134 9.58769 21.1912 9.57833C21.369 9.55961 21.5047 9.5409 21.5983 9.52218C21.7013 9.50346 21.8182 9.47071 21.9492 9.42392C22.0896 9.37713 22.1926 9.30695 22.2581 9.21336C22.3236 9.11978 22.3563 9.00749 22.3563 8.87648C22.3563 8.45536 22.0522 8.24481 21.4439 8.24481C21.107 8.24481 20.8637 8.29628 20.714 8.39922C20.5643 8.50215 20.466 8.69399 20.4192 8.97474H17.8224C17.8879 7.3558 19.095 6.54633 21.4439 6.54633C23.3062 6.54633 24.4478 6.99551 24.869 7.89388C25 8.16527 25.0655 8.60509 25.0655 9.21336C25.0655 9.50346 25.0608 9.93393 25.0514 10.5048C25.0421 11.0663 25.0374 11.5435 25.0374 11.9366C25.0374 12.9004 25.1403 13.5882 25.3462 14ZM22.3704 10.7013C22.1645 10.8417 21.734 10.982 21.0789 11.1224C20.5736 11.2347 20.3209 11.4874 20.3209 11.8804C20.3209 12.105 20.3911 12.2828 20.5315 12.4138C20.6719 12.5448 20.8637 12.6103 21.107 12.6103C21.6124 12.6103 21.9773 12.4232 22.2019 12.0488C22.3142 11.8617 22.3704 11.5576 22.3704 11.1364V10.7013ZM34.0819 6.75688V14H31.3166V8.8484H29.2812V14H26.5159V6.75688H34.0819ZM42.805 6.75688L40.152 14.1684C39.8619 14.9826 39.5063 15.5488 39.0852 15.8669C38.6734 16.1851 38.0418 16.3442 37.1902 16.3442H35.3794V14.1263C35.5759 14.1357 35.7912 14.1404 36.0251 14.1404C36.1748 14.1404 36.2965 14.1357 36.3901 14.1263C36.4837 14.117 36.5913 14.0936 36.7129 14.0561C36.8346 14.0281 36.9282 13.9719 36.9937 13.8877C37.0592 13.7941 37.0919 13.6771 37.0919 13.5368C37.0919 13.4432 37.0639 13.3262 37.0077 13.1859L34.6495 6.75688H37.5973L38.4114 9.62044C38.5424 10.0883 38.6594 10.6498 38.7623 11.3049C38.9308 10.4439 39.0618 9.85439 39.1554 9.53622L39.9555 6.75688H42.805ZM50.6108 11.0943C50.4798 12.0676 50.0774 12.8256 49.4036 13.3683C48.7392 13.9111 47.8783 14.1825 46.8208 14.1825C45.6511 14.1825 44.6965 13.8362 43.9573 13.1437C43.2273 12.4512 42.8624 11.5482 42.8624 10.4346C42.8624 9.28355 43.2273 8.3571 43.9573 7.65525C44.6872 6.94404 45.6464 6.58844 46.8349 6.58844C47.883 6.58844 48.7439 6.85514 49.4177 7.38855C50.1008 7.92196 50.4798 8.62381 50.5547 9.49411H47.9017C47.8642 9.20401 47.7473 8.97474 47.5507 8.80629C47.3636 8.63785 47.1343 8.55362 46.8629 8.55362C46.0488 8.55362 45.6417 9.18529 45.6417 10.4486C45.6417 11.5903 46.0441 12.1611 46.8489 12.1611C47.4759 12.1611 47.8455 11.8055 47.9578 11.0943H50.6108ZM59.3605 6.75688L56.8058 9.59237L59.7114 14H56.4689L55.0511 11.5435L54.4756 12.1892V14H51.7103V6.75688H54.4756V9.14318H54.5177L56.3145 6.75688H59.3605Z" fill="white"/>
<path d="M10.8842 23.203C13.7651 23.203 16.0878 24.1392 17.8523 26.0118C19.6168 27.8663 20.4991 30.3061 20.4991 33.331C20.4991 36.3378 19.6078 38.7686 17.8253 40.6231C16.0608 42.4777 13.7291 43.4049 10.8302 43.4049C7.87733 43.4049 5.50063 42.4867 3.7001 40.6501C1.89956 38.7956 0.999296 36.3468 0.999296 33.3039C0.999296 30.261 1.89956 27.8213 3.7001 25.9848C5.50063 24.1302 7.89534 23.203 10.8842 23.203ZM10.8032 27.9294C9.61485 27.9294 8.67857 28.3975 7.99437 29.3338C7.32817 30.27 6.99507 31.5664 6.99507 33.2229C6.99507 34.9334 7.32817 36.2658 7.99437 37.2201C8.66057 38.1564 9.60585 38.6245 10.8302 38.6245C12.0366 38.6245 12.9548 38.1564 13.585 37.2201C14.2152 36.2658 14.5303 34.8794 14.5303 33.0609C14.5303 31.4584 14.1972 30.207 13.531 29.3068C12.8828 28.3885 11.9735 27.9294 10.8032 27.9294ZM32.2178 33.601V29.0097H37.5384V42.9458H32.2178V37.6252H28.3016V42.9458H22.9811V29.0097H28.3016V33.601H32.2178ZM54.5112 42.9458H49.2987V33.0339H46.6519C46.6519 35.5006 46.5078 37.4002 46.2198 38.7326C45.8957 40.335 45.3195 41.4874 44.4912 42.1896C43.681 42.8738 42.5197 43.2159 41.0072 43.2159C40.7731 43.2159 40.4941 43.1799 40.17 43.1078C39.8639 43.0538 39.6118 42.9998 39.4137 42.9458L39.1167 42.8378V39.0296C39.4588 39.1557 39.7468 39.2187 39.9809 39.2187C40.215 39.2187 40.413 39.1737 40.5751 39.0837C40.7551 38.9756 40.8992 38.8226 41.0072 38.6245C41.1333 38.4085 41.2323 38.2104 41.3043 38.0303C41.3763 37.8323 41.4213 37.5802 41.4393 37.2741C41.4754 36.95 41.5024 36.6979 41.5204 36.5179C41.5384 36.3378 41.5474 36.0948 41.5474 35.7887C41.5654 35.4646 41.5744 35.2665 41.5744 35.1945C41.6284 33.9521 41.6554 31.8905 41.6554 29.0097H54.5112V42.9458ZM71.7662 42.9458H66.3646C66.2385 42.4777 66.1665 42.0455 66.1485 41.6494C64.9782 42.8198 63.4927 43.4049 61.6922 43.4049C60.1077 43.4049 58.8653 43.0178 57.9651 42.2436C57.0828 41.4694 56.6417 40.398 56.6417 39.0296C56.6417 38.3274 56.7857 37.7153 57.0738 37.1931C57.3619 36.6709 57.65 36.2748 57.9381 36.0047C58.2442 35.7167 58.7573 35.4646 59.4775 35.2485C60.1977 35.0145 60.7109 34.8704 61.017 34.8164C61.3231 34.7624 61.9172 34.6723 62.7995 34.5463C62.8355 34.5283 62.8625 34.5193 62.8805 34.5193C62.9165 34.5193 62.9526 34.5193 62.9886 34.5193C63.0426 34.5013 63.0876 34.4923 63.1236 34.4923C63.2136 34.4743 63.4297 34.4563 63.7718 34.4383C64.1139 34.4023 64.375 34.3663 64.555 34.3302C64.7531 34.2942 64.9782 34.2312 65.2302 34.1412C65.5003 34.0512 65.6984 33.9161 65.8244 33.7361C65.9504 33.556 66.0135 33.34 66.0135 33.0879C66.0135 32.2776 65.4283 31.8725 64.2579 31.8725C63.6097 31.8725 63.1416 31.9715 62.8535 32.1696C62.5654 32.3677 62.3764 32.7368 62.2864 33.2769H57.2899C57.4159 30.162 59.7386 28.6046 64.2579 28.6046C67.841 28.6046 70.0377 29.4688 70.8479 31.1973C71.1 31.7195 71.226 32.5657 71.226 33.7361C71.226 34.2942 71.217 35.1225 71.199 36.2208C71.181 37.3011 71.172 38.2194 71.172 38.9756C71.172 40.8302 71.37 42.1536 71.7662 42.9458ZM66.0405 36.5989C65.6444 36.869 64.8161 37.1391 63.5557 37.4092C62.5834 37.6252 62.0973 38.1114 62.0973 38.8676C62.0973 39.2997 62.2323 39.6418 62.5024 39.8939C62.7725 40.146 63.1416 40.272 63.6097 40.272C64.582 40.272 65.2842 39.9119 65.7164 39.1917C65.9324 38.8316 66.0405 38.2464 66.0405 37.4362V36.5989ZM85.8192 23.7161C85.7652 25.0485 85.315 26.0928 84.4688 26.849C83.6225 27.5873 82.5602 27.9564 81.2818 27.9564C79.8954 27.9564 78.7791 27.6053 77.9328 26.903C77.1046 26.2008 76.6455 25.1385 76.5554 23.7161H79.0132C79.1032 24.7064 79.8594 25.2015 81.2818 25.2015C82.5422 25.2015 83.2444 24.7064 83.3885 23.7161H85.8192ZM88.574 42.9458H83.4695V35.6536H83.3885L79.3373 42.9458H74.0167V29.0097H79.1212V36.1128H79.2022L83.2534 29.0097H88.574V42.9458ZM100.766 33.601V29.0097H106.087V42.9458H100.766V37.6252H96.8503V42.9458H91.5297V29.0097H96.8503V33.601H100.766ZM117.28 33.439V38.0303H108.827V33.439H117.28ZM120.122 42.9458V23.7161H125.902V37.9493H130.439V23.7161H136.246V37.9493H140.783V23.7161H146.563V42.9458H120.122ZM168.297 23.7161L161.329 31.1973L169.404 42.9458H162.031L157.332 35.4646L155.603 37.2741V42.9458H149.796V23.7161H155.63L155.603 27.6053C155.603 27.8933 155.576 28.8746 155.522 30.5491L161.005 23.7161H168.297ZM179.315 23.203C182.196 23.203 184.519 24.1392 186.283 26.0118C188.048 27.8663 188.93 30.3061 188.93 33.331C188.93 36.3378 188.039 38.7686 186.256 40.6231C184.492 42.4777 182.16 43.4049 179.261 43.4049C176.308 43.4049 173.931 42.4867 172.131 40.6501C170.33 38.7956 169.43 36.3468 169.43 33.3039C169.43 30.261 170.33 27.8213 172.131 25.9848C173.931 24.1302 176.326 23.203 179.315 23.203ZM179.234 27.9294C178.046 27.9294 177.109 28.3975 176.425 29.3338C175.759 30.27 175.426 31.5664 175.426 33.2229C175.426 34.9334 175.759 36.2658 176.425 37.2201C177.091 38.1564 178.037 38.6245 179.261 38.6245C180.467 38.6245 181.386 38.1564 182.016 37.2201C182.646 36.2658 182.961 34.8794 182.961 33.0609C182.961 31.4584 182.628 30.207 181.962 29.3068C181.314 28.3885 180.404 27.9294 179.234 27.9294ZM193.341 23.7161H208.546V42.9458H202.686V28.6586H199.148V29.7929C199.148 33.2679 198.994 35.7797 198.688 37.3281C197.734 41.2173 195.654 43.2069 192.45 43.2969C191.585 43.2969 190.802 43.1529 190.1 42.8648V38.3004C190.388 38.4985 190.775 38.5975 191.261 38.5975C191.585 38.5975 191.864 38.5165 192.098 38.3544C192.35 38.1744 192.549 37.9133 192.693 37.5712C192.837 37.2111 192.954 36.851 193.044 36.4909C193.134 36.1128 193.197 35.6446 193.233 35.0865C193.287 34.5103 193.314 34.0152 193.314 33.601C193.332 33.1689 193.341 32.6287 193.341 31.9806V23.7161Z" fill="#211E1E"/>
<path d="M7.7951 58.2183H7.15704V53.7619L4.34145 58.2183H3.55147V53.0125H4.18953V57.4688L7.00512 53.0125H7.7951V58.2183ZM16.3746 58.2183H15.7366V55.7673H12.7691V58.2183H12.131V53.0125H12.7691V55.2305H15.7366V53.0125H16.3746V58.2183ZM24.6199 53.5493H22.6855V58.2183H22.0474V53.5493H20.113V53.0125H24.6199V53.5493ZM32.5173 56.5066C32.4025 57.0941 32.1527 57.5566 31.7678 57.8942C31.383 58.225 30.8901 58.3904 30.2892 58.3904C29.5667 58.3904 28.986 58.144 28.5471 57.6511C28.115 57.1582 27.8989 56.4999 27.8989 55.6761C27.8989 54.8524 28.1184 54.1806 28.5573 53.6607C29.0029 53.134 29.5768 52.8707 30.279 52.8707C31.015 52.8707 31.5788 53.1306 31.9704 53.6505C32.3688 54.1704 32.568 54.8153 32.568 55.585V55.7673H28.5471C28.5471 56.3682 28.6923 56.8712 28.9826 57.2764C29.2797 57.6747 29.722 57.8739 30.3094 57.8739C31.1669 57.8739 31.6969 57.4181 31.8995 56.5066H32.5173ZM31.9299 55.2508C31.8961 54.6701 31.7307 54.2177 31.4336 53.8936C31.1365 53.5628 30.7449 53.3973 30.2588 53.3973C29.7321 53.3973 29.3304 53.5695 29.0535 53.9139C28.7835 54.2582 28.6147 54.7038 28.5471 55.2508H31.9299ZM37.1818 53.0125V54.0151C37.5599 53.2454 38.1811 52.8605 39.0454 52.8605C39.7543 52.8605 40.3215 53.1137 40.7469 53.6201C41.179 54.1265 41.3951 54.7984 41.3951 55.6356C41.3951 56.4594 41.1824 57.1244 40.757 57.6308C40.3316 58.1305 39.7678 58.3803 39.0656 58.3803C38.1879 58.3803 37.5734 58.0056 37.2223 57.2561V60.1628H36.6045V53.0125H37.1818ZM40.2607 54.005C39.9434 53.5931 39.5112 53.3872 38.9643 53.3872C38.4174 53.3872 37.9853 53.5864 37.6679 53.9848C37.3574 54.3831 37.2021 54.93 37.2021 55.6255C37.2021 56.3074 37.3607 56.8476 37.6781 57.246C38.0022 57.6443 38.4377 57.8435 38.9846 57.8435C39.518 57.8435 39.9434 57.6443 40.2607 57.246C40.5848 56.8409 40.7469 56.3041 40.7469 55.6356C40.7469 54.9537 40.5848 54.4101 40.2607 54.005ZM49.763 58.2183H49.1249V55.7673H46.1574V58.2183H45.5194V53.0125H46.1574V55.2305H49.1249V53.0125H49.763V58.2183ZM58.4438 56.5066C58.329 57.0941 58.0792 57.5566 57.6943 57.8942C57.3095 58.225 56.8166 58.3904 56.2156 58.3904C55.4932 58.3904 54.9125 58.144 54.4736 57.6511C54.0415 57.1582 53.8254 56.4999 53.8254 55.6761C53.8254 54.8524 54.0449 54.1806 54.4838 53.6607C54.9294 53.134 55.5033 52.8707 56.2055 52.8707C56.9415 52.8707 57.5053 53.1306 57.8969 53.6505C58.2953 54.1704 58.4944 54.8153 58.4944 55.585V55.7673H54.4736C54.4736 56.3682 54.6188 56.8712 54.9091 57.2764C55.2062 57.6747 55.6485 57.8739 56.2359 57.8739C57.0934 57.8739 57.6234 57.4181 57.826 56.5066H58.4438ZM57.8564 55.2508C57.8226 54.6701 57.6572 54.2177 57.3601 53.8936C57.063 53.5628 56.6714 53.3973 56.1853 53.3973C55.6586 53.3973 55.2569 53.5695 54.98 53.9139C54.7099 54.2582 54.5411 54.7038 54.4736 55.2508H57.8564ZM66.2219 53.5493H64.2874V58.2183H63.6494V53.5493H61.7149V53.0125H66.2219V53.5493ZM72.0299 55.1292V55.747H69.4878V55.1292H72.0299ZM80.3968 53.7113C80.8289 54.1907 81.045 54.8389 81.045 55.6559C81.045 56.4729 80.8222 57.1312 80.3765 57.6308C79.9309 58.1237 79.3469 58.3702 78.6244 58.3702C78.1653 58.3702 77.7703 58.2858 77.4394 58.117C77.1153 57.9414 76.8655 57.7017 76.6899 57.3979C76.5144 57.0873 76.3895 56.7565 76.3152 56.4053C76.2409 56.0475 76.2038 55.6525 76.2038 55.2204C76.2038 53.8767 76.4199 52.8707 76.852 52.2022C77.0816 51.8511 77.3618 51.5945 77.6926 51.4325C78.0235 51.2705 78.4421 51.1725 78.9485 51.1388L79.4346 51.1084C79.6912 51.0949 79.8701 51.0679 79.9714 51.0274C80.0727 50.9869 80.1436 50.9227 80.1841 50.8349H80.8931C80.839 51.132 80.7074 51.338 80.4981 51.4528C80.2955 51.5675 79.9579 51.6418 79.4853 51.6756L78.7155 51.7262C78.1281 51.7667 77.6757 51.9828 77.3584 52.3744C77.0478 52.7593 76.8351 53.3534 76.7203 54.1569H76.7507C76.9263 53.8058 77.1862 53.5222 77.5306 53.3062C77.8817 53.0901 78.2665 52.9821 78.6852 52.9821C79.3941 52.9821 79.9647 53.2252 80.3968 53.7113ZM80.4069 55.6559C80.4069 55.0279 80.2415 54.5148 79.9106 54.1164C79.5798 53.7181 79.1612 53.5189 78.6548 53.5189C78.1146 53.5189 77.6757 53.7147 77.3381 54.1063C77.0073 54.4912 76.8419 55.0077 76.8419 55.6559C76.8419 56.2973 77.0073 56.8206 77.3381 57.2257C77.6757 57.6308 78.1045 57.8334 78.6244 57.8334C79.1443 57.8334 79.5697 57.6308 79.9005 57.2257C80.2381 56.8206 80.4069 56.2973 80.4069 55.6559ZM89.3769 58.2183H88.7389V53.7619L85.9233 58.2183H85.1333V53.0125H85.7714V57.4688L88.5869 53.0125H89.3769V58.2183ZM93.5001 54.5215C93.5879 53.4142 94.2699 52.8605 95.546 52.8605C96.1267 52.8605 96.5925 52.9753 96.9436 53.2049C97.3015 53.4277 97.4804 53.7822 97.4804 54.2683C97.4804 54.5587 97.396 54.8119 97.2272 55.0279C97.0584 55.244 96.8626 55.3757 96.6398 55.4229V55.4432C96.9234 55.4972 97.1631 55.6221 97.3589 55.8179C97.5547 56.0137 97.6526 56.2973 97.6526 56.6687C97.6526 57.2088 97.45 57.6275 97.0449 57.9245C96.6398 58.2216 96.1435 58.3702 95.5561 58.3702C94.8877 58.3702 94.3678 58.2115 93.9964 57.8942C93.6318 57.5768 93.4326 57.1413 93.3988 56.5877H94.0369C94.1517 57.4181 94.6615 57.8334 95.5662 57.8334C96.0929 57.8334 96.4609 57.7254 96.6702 57.5093C96.8795 57.2865 96.9842 57.013 96.9842 56.6889C96.9842 56.4053 96.893 56.1792 96.7107 56.0104C96.5284 55.8348 96.2482 55.747 95.8701 55.747H94.9991V55.2609H95.7182C96.0355 55.2609 96.2988 55.1765 96.5081 55.0077C96.7175 54.8389 96.8221 54.6059 96.8221 54.3089C96.8221 53.7012 96.3934 53.3973 95.5359 53.3973C94.6648 53.3973 94.1956 53.7721 94.1281 54.5215H93.5001ZM106.012 58.2183H105.374V55.7673H102.406V58.2183H101.768V53.0125H102.406V55.2305H105.374V53.0125H106.012V58.2183ZM114.693 56.5066C114.578 57.0941 114.328 57.5566 113.943 57.8942C113.558 58.225 113.065 58.3904 112.464 58.3904C111.742 58.3904 111.161 58.144 110.722 57.6511C110.29 57.1582 110.074 56.4999 110.074 55.6761C110.074 54.8524 110.294 54.1806 110.733 53.6607C111.178 53.134 111.752 52.8707 112.454 52.8707C113.19 52.8707 113.754 53.1306 114.146 53.6505C114.544 54.1704 114.743 54.8153 114.743 55.585V55.7673H110.722C110.722 56.3682 110.868 56.8712 111.158 57.2764C111.455 57.6747 111.897 57.8739 112.485 57.8739C113.342 57.8739 113.872 57.4181 114.075 56.5066H114.693ZM114.105 55.2508C114.071 54.6701 113.906 54.2177 113.609 53.8936C113.312 53.5628 112.92 53.3973 112.434 53.3973C111.907 53.3973 111.506 53.5695 111.229 53.9139C110.959 54.2582 110.79 54.7038 110.722 55.2508H114.105ZM123.115 56.3547C123.027 56.9624 122.79 57.4519 122.406 57.8233C122.027 58.1879 121.531 58.3702 120.917 58.3702C120.188 58.3702 119.604 58.1237 119.165 57.6308C118.726 57.1379 118.506 56.483 118.506 55.666C118.506 54.8153 118.726 54.1367 119.165 53.6303C119.61 53.1171 120.201 52.8605 120.937 52.8605C121.538 52.8605 122.024 53.0192 122.395 53.3366C122.774 53.6539 123 54.0928 123.074 54.6532H122.426C122.257 53.8092 121.764 53.3872 120.947 53.3872C120.4 53.3872 119.965 53.5898 119.641 53.9949C119.323 54.3933 119.165 54.9334 119.165 55.6154C119.165 56.2973 119.32 56.8409 119.631 57.246C119.941 57.6443 120.36 57.8435 120.886 57.8435C121.325 57.8435 121.683 57.7152 121.96 57.4587C122.237 57.1953 122.409 56.8273 122.476 56.3547H123.115ZM133.819 54.0557H133.413L133.343 51.2198H133.889L133.819 54.0557ZM135.318 54.0557H134.923L134.852 51.2198H135.388L135.318 54.0557ZM144.221 58.2183H143.583V53.5493H140.616V58.2183H139.978V53.0125H144.221V58.2183ZM150.785 52.8605C151.535 52.8605 152.129 53.1104 152.568 53.61C153.013 54.1097 153.236 54.7849 153.236 55.6356C153.236 56.4796 153.017 57.1481 152.578 57.641C152.139 58.1271 151.542 58.3702 150.785 58.3702C150.029 58.3702 149.425 58.1237 148.972 57.6308C148.527 57.1312 148.304 56.4594 148.304 55.6154C148.304 54.7781 148.527 54.1097 148.972 53.61C149.425 53.1104 150.029 52.8605 150.785 52.8605ZM152.102 54.005C151.771 53.5999 151.329 53.3973 150.775 53.3973C150.221 53.3973 149.779 53.5999 149.448 54.005C149.118 54.4034 148.952 54.9402 148.952 55.6154C148.952 56.3041 149.114 56.8476 149.438 57.246C149.769 57.6443 150.221 57.8435 150.795 57.8435C151.349 57.8435 151.788 57.6443 152.112 57.246C152.436 56.8476 152.598 56.3074 152.598 55.6255C152.598 54.9435 152.433 54.4034 152.102 54.005ZM162.079 59.8793H161.441V58.2183H157.248V59.8793H156.61V57.6815H157.228C157.707 56.797 157.947 55.4634 157.947 53.6809V53.0125H161.35V57.6815H162.079V59.8793ZM160.712 57.6815V53.5493H158.564V53.8936C158.564 55.5276 158.338 56.7902 157.886 57.6815H160.712ZM174.05 55.0381L176.4 58.2183H175.6L173.584 55.4736L172.521 56.456V58.2183H171.883V53.0125H172.521V55.6761L175.417 53.0125H176.268L174.05 55.0381ZM184.34 58.2183H183.702V53.5493H181.575L181.484 56.1623C181.457 56.9185 181.332 57.4688 181.109 57.8131C180.886 58.1575 180.559 58.3297 180.127 58.3297C179.938 58.3297 179.752 58.2925 179.57 58.2183V57.7017C179.691 57.7625 179.88 57.7929 180.137 57.7929C180.576 57.7929 180.816 57.2392 180.856 56.1319L180.957 53.0125H184.34V58.2183ZM192.95 52.8605C193.699 52.8605 194.294 53.1104 194.732 53.61C195.178 54.1097 195.401 54.7849 195.401 55.6356C195.401 56.4796 195.181 57.1481 194.743 57.641C194.304 58.1271 193.706 58.3702 192.95 58.3702C192.214 58.3702 191.623 58.1372 191.178 57.6713C190.739 57.1987 190.502 56.564 190.469 55.7673H189.294V58.2183H188.656V53.0125H189.294V55.2305H190.489C190.563 54.5013 190.82 53.924 191.259 53.4986C191.697 53.0732 192.261 52.8605 192.95 52.8605ZM194.267 54.005C193.936 53.5999 193.493 53.3973 192.94 53.3973C192.386 53.3973 191.944 53.5999 191.613 54.005C191.282 54.4034 191.117 54.9402 191.117 55.6154C191.117 56.3041 191.279 56.8476 191.603 57.246C191.934 57.6443 192.386 57.8435 192.96 57.8435C193.514 57.8435 193.953 57.6443 194.277 57.246C194.601 56.8476 194.763 56.3074 194.763 55.6255C194.763 54.9435 194.597 54.4034 194.267 54.005ZM202.751 55.7369C202.184 55.9462 201.59 56.0509 200.969 56.0509C200.422 56.0509 200.01 55.9192 199.733 55.6559C199.457 55.3858 199.318 54.957 199.318 54.3696V53.0125H199.956V54.4405C199.956 54.6768 199.987 54.8726 200.047 55.0279C200.115 55.1765 200.213 55.2811 200.341 55.3419C200.476 55.4027 200.594 55.4398 200.695 55.4533C200.797 55.4668 200.932 55.4736 201.101 55.4736C201.688 55.4736 202.238 55.3689 202.751 55.1596V53.0125H203.39V58.2183H202.751V55.7369ZM208.423 54.0557H208.018L207.947 51.2198H208.494L208.423 54.0557ZM209.922 54.0557H209.527L209.456 51.2198H209.993L209.922 54.0557Z" fill="black"/>
</svg>
