<svg width="17" height="17" viewBox="0 0 17 17" fill="none" xmlns="http://www.w3.org/2000/svg">
<path d="M15.5059 2.52344H1.49414C0.668611 2.52344 0 3.1962 0 4.01758V12.9824C0 13.8087 0.673525 14.4766 1.49414 14.4766H15.5059C16.3245 14.4766 17 13.8115 17 12.9824V4.01758C17 3.19766 16.334 2.52344 15.5059 2.52344ZM15.2966 3.51953C14.9913 3.82317 9.73791 9.04895 9.55652 9.22937C9.2743 9.5116 8.8991 9.66699 8.5 9.66699C8.1009 9.66699 7.7257 9.51157 7.44255 9.22844C7.32056 9.10709 2.1251 3.93902 1.70339 3.51953H15.2966ZM0.996094 12.7797V4.22095L5.30048 8.50266L0.996094 12.7797ZM1.70402 13.4805L6.00671 9.20513L6.73914 9.93371C7.20949 10.4041 7.83484 10.6631 8.5 10.6631C9.16516 10.6631 9.79051 10.4041 10.2599 9.93464L10.9933 9.20513L15.296 13.4805H1.70402ZM16.0039 12.7797L11.6995 8.50266L16.0039 4.22095V12.7797Z" fill="black"/>
</svg>
