<svg width="91" height="21" viewBox="0 0 91 21" fill="none" xmlns="http://www.w3.org/2000/svg">
<g clip-path="url(#clip0)">
<path d="M0 0.460938V20.4691H3.71666V14.5468L17.7574 0.460938H12.4837L3.71666 9.25612V7.95212L11.1838 0.460938H5.92364L3.71666 2.67501V0.460938H0Z" fill="white" fill-opacity="0.7"/>
<path d="M12.4972 20.4692H17.7371L8.55714 11.2598L5.93719 13.8881L12.4972 20.4692Z" fill="white" fill-opacity="0.7"/>
<path d="M37.0949 14.5603H34.5237L32.3912 11.4918L31.8428 12.1764V14.5603H29.7469V6.40625H31.8428V9.75589L34.3409 6.40625H36.9243L33.7682 10.2204L37.0949 14.5603ZM46.294 14.5603H44.2346L43.886 13.5432H41.1085L40.76 14.5603H38.7006L41.3514 7.49346H43.6326L46.294 14.5603ZM43.3897 11.9539L42.492 9.2946L41.5943 11.9539H43.3897ZM54.9567 14.5603H53.1402V9.0827H50.2148V14.5603H48.3983V7.49346H54.9567V14.5603ZM59.5636 14.5603H57.8105V7.49346H59.627V11.6573L62.4784 7.49346H64.3583V14.5603H62.5312V10.1952L59.5636 14.5603ZM70.6023 14.5603H68.7858V9.0827H66.8109V7.49346H72.5666V9.0827H70.6023V14.5603ZM81.2092 14.5603H79.1498L78.8013 13.5432H76.0237L75.6752 14.5603H73.6158L76.2666 7.49346H78.5478L81.2092 14.5603ZM78.3049 11.9539L77.4072 9.2946L76.5095 11.9539H78.3049ZM82.9229 14.6874V13.077C83.2749 13.077 83.5495 12.9357 83.7467 12.6532C83.9509 12.3636 84.1022 11.8374 84.2008 11.0746L84.6232 7.49346H89.8721V14.5603H88.0556V9.0827H86.2602L86.0067 11.2123C85.9222 11.9045 85.7885 12.4872 85.6054 12.9605C85.4224 13.4266 85.19 13.7833 84.9084 14.0306C84.6268 14.2707 84.3275 14.4402 84.0107 14.5391C83.7009 14.638 83.3383 14.6874 82.9229 14.6874Z" fill="white" fill-opacity="0.7"/>
<path d="M76.8435 5.27489C76.7315 5.27489 76.6278 5.2595 76.532 5.2287C76.4382 5.1961 76.3587 5.15264 76.2937 5.0983C76.2288 5.04397 76.1746 4.98873 76.1313 4.93259C76.0879 4.87463 76.0518 4.81214 76.0229 4.74514L76.4941 4.5278C76.5176 4.60206 76.5628 4.66455 76.6295 4.71525C76.6982 4.76596 76.7767 4.79132 76.8651 4.79132C77.0456 4.79132 77.1694 4.71616 77.2361 4.56584H76.6187V4.08771H77.2253C77.1566 3.95187 77.0367 3.88396 76.8651 3.88396C76.7767 3.88396 76.6982 3.90932 76.6295 3.96002C76.5628 4.01073 76.5176 4.07321 76.4941 4.14747L76.0229 3.92742C76.0879 3.77892 76.1864 3.65395 76.3181 3.55252C76.4518 3.4511 76.6268 3.40039 76.8435 3.40039C77.1305 3.40039 77.3679 3.48732 77.5557 3.66119C77.7434 3.83506 77.8373 4.06054 77.8373 4.33764C77.8373 4.61293 77.7425 4.83841 77.5529 5.01409C77.3651 5.18795 77.1287 5.27489 76.8435 5.27489ZM80.0233 5.24229H79.3571L78.9509 4.60387L78.8507 4.7397V5.24229H78.3037V3.43027H78.8507V4.10944L79.3246 3.43027H79.9935L79.3111 4.27244L80.0233 5.24229ZM81.1793 5.27489C80.894 5.27489 80.6567 5.18795 80.4671 5.01409C80.2793 4.83841 80.1855 4.61293 80.1855 4.33764C80.1855 4.06054 80.2793 3.83506 80.4671 3.66119C80.6548 3.48732 80.8923 3.40039 81.1793 3.40039C81.3959 3.40039 81.5701 3.4511 81.7019 3.55252C81.8354 3.65395 81.9348 3.77892 81.9998 3.92742L81.5285 4.14747C81.5051 4.07503 81.4609 4.01345 81.3959 3.96274C81.3309 3.91021 81.2586 3.88396 81.1793 3.88396C81.0493 3.88396 80.9437 3.92742 80.8625 4.01436C80.7812 4.10129 80.7406 4.20905 80.7406 4.33764C80.7406 4.46623 80.7812 4.57399 80.8625 4.66092C80.9437 4.74785 81.0493 4.79132 81.1793 4.79132C81.2586 4.79132 81.3309 4.76596 81.3959 4.71525C81.4609 4.66273 81.5051 4.60024 81.5285 4.5278L81.9998 4.74514C81.9708 4.81214 81.9348 4.87463 81.8915 4.93259C81.8482 4.98873 81.794 5.04397 81.7289 5.0983C81.664 5.15264 81.5836 5.1961 81.488 5.2287C81.394 5.2595 81.2911 5.27489 81.1793 5.27489ZM84.1831 5.24229H83.6361V3.90841H82.9889V5.24229H82.4419V3.43027H84.1831V5.24229ZM86.1164 5.24229H84.7462V3.43027H86.1164V3.90841H85.2932V4.08771H86.0975V4.56584H85.2932V4.76415H86.1164V5.24229ZM87.1771 5.24229H86.6301V3.43027H87.5942C87.7982 3.43027 87.957 3.49004 88.0708 3.60957C88.1864 3.7273 88.2441 3.8749 88.2441 4.05239C88.2441 4.22806 88.1864 4.37567 88.0708 4.4952C87.957 4.61293 87.7982 4.67179 87.5942 4.67179H87.1771V5.24229ZM87.5238 4.19366C87.5725 4.19366 87.6123 4.18188 87.6429 4.15834C87.6736 4.13298 87.6889 4.09766 87.6889 4.05239C87.6889 4.0053 87.6736 3.96998 87.6429 3.94644C87.6123 3.92108 87.5725 3.90841 87.5238 3.90841H87.1771V4.19366H87.5238ZM89.6282 5.24229H89.0812V3.90841H88.5965V3.43027H90.1103V3.90841H89.6282V5.24229Z" fill="white" fill-opacity="0.7"/>
</g>
<defs>
<clipPath id="clip0">
<rect width="90.5133" height="20.0082" fill="white" transform="translate(0 0.460938)"/>
</clipPath>
</defs>
</svg>
