<svg width="51" height="51" viewBox="0 0 51 51" fill="none" xmlns="http://www.w3.org/2000/svg">
<path d="M48.6491 49.0079H46.4643V17.2859C46.4643 15.8093 45.263 14.6082 43.7866 14.6082H38.9034C37.4269 14.6082 36.2257 15.8094 36.2257 17.2859V49.0079H30.6782V31.6584C30.6782 30.1819 29.477 28.9807 28.0005 28.9807H23.1173C21.6408 28.9807 20.4396 30.182 20.4396 31.6584V49.0079H14.8921V40.0227C14.8921 38.5462 13.6909 37.345 12.2144 37.345H7.3311C5.85459 37.345 4.6534 38.5463 4.6534 40.0227V49.0079H2.35083C1.80069 49.0079 1.35474 49.4538 1.35474 50.004C1.35474 50.5541 1.80069 51 2.35083 51H48.6491C49.1992 51 49.6452 50.5541 49.6452 50.004C49.6452 49.4538 49.1992 49.0079 48.6491 49.0079ZM12.8998 49.0079H6.64549V40.0227C6.64549 39.6447 6.95298 39.3372 7.331 39.3372H12.2142C12.5923 39.3372 12.8998 39.6447 12.8998 40.0227V49.0079ZM28.6859 49.0079H22.4317V31.6584C22.4317 31.2804 22.7392 30.9729 23.1172 30.9729H28.0004C28.3784 30.9729 28.6859 31.2804 28.6859 31.6584V49.0079ZM44.4721 49.0079H38.2179V17.2859C38.2179 16.9078 38.5254 16.6003 38.9034 16.6003H43.7866C44.1646 16.6003 44.4721 16.9078 44.4721 17.2859V49.0079Z" fill="#476ED3"/>
<path d="M46.4621 1.04749C46.476 0.775658 46.3804 0.499242 46.1728 0.291656C45.9652 0.0840703 45.6888 -0.0116543 45.417 0.00239062C45.4009 0.00169336 45.3851 0 45.3687 0H39.3424C38.7922 0 38.3463 0.445951 38.3463 0.996094C38.3463 1.54624 38.7922 1.99219 39.3424 1.99219H43.0635L33.2164 11.8394L29.503 8.12593C29.3162 7.93917 29.0628 7.83418 28.7986 7.83418C28.5345 7.83418 28.2811 7.93917 28.0943 8.12593L10.1876 26.0327C9.79863 26.4217 9.79863 27.0524 10.1876 27.4415C10.3821 27.6358 10.637 27.733 10.8919 27.733C11.1468 27.733 11.4018 27.6358 11.5963 27.4413L28.7986 10.2388L32.5121 13.9523C32.901 14.3413 33.5318 14.3413 33.9208 13.9523L44.4723 3.40096V6.76876C44.4723 7.3189 44.9182 7.76485 45.4683 7.76485C46.0185 7.76485 46.4644 7.3189 46.4644 6.76876V1.0957C46.4644 1.07947 46.4627 1.06363 46.4621 1.04749Z" fill="#476ED3"/>
<path d="M7.53455 31.2085C8.08467 31.2085 8.53064 30.7625 8.53064 30.2124C8.53064 29.6623 8.08467 29.2163 7.53455 29.2163C6.98442 29.2163 6.53845 29.6623 6.53845 30.2124C6.53845 30.7625 6.98442 31.2085 7.53455 31.2085Z" fill="#476ED3"/>
</svg>
