<svg width="53" height="53" viewBox="0 0 53 53" fill="none" xmlns="http://www.w3.org/2000/svg">
<g clip-path="url(#clip0)">
<path d="M8.80628 47.0924C8.61384 46.8997 8.34677 46.7891 8.07452 46.7891C7.80228 46.7891 7.53521 46.8997 7.34267 47.0924C7.15013 47.285 7.03937 47.552 7.03937 47.8242C7.03937 48.0965 7.15003 48.3635 7.34267 48.556C7.53521 48.7485 7.80228 48.8594 8.07452 48.8594C8.34677 48.8594 8.61384 48.7486 8.80628 48.556C8.99881 48.3635 9.10968 48.0965 9.10968 47.8242C9.10968 47.552 8.99892 47.2849 8.80628 47.0924Z" fill="#476ED3"/>
<path d="M48.603 18.9368C48.4105 18.7442 48.1444 18.6335 47.8712 18.6335C47.5989 18.6335 47.3318 18.7442 47.1393 18.9368C46.9469 19.1294 46.836 19.3965 46.836 19.6687C46.836 19.9409 46.9468 20.208 47.1393 20.4005C47.3318 20.593 47.5989 20.7039 47.8712 20.7039C48.1444 20.7039 48.4105 20.5931 48.603 20.4005C48.7965 20.208 48.9072 19.9409 48.9072 19.6687C48.9072 19.3965 48.7965 19.1294 48.603 18.9368Z" fill="#476ED3"/>
<path d="M52.697 0.303197C52.5028 0.109105 52.2394 0 51.9648 0L26.5006 0.0013457C25.929 0.0013457 25.4655 0.464889 25.4655 1.0365V3.99674L15.6534 6.62593C15.1011 6.77396 14.7734 7.34153 14.9214 7.89369L20.0069 26.8724L15.6075 31.2718C15.0476 30.4542 14.1075 29.9165 13.0441 29.9165H3.10689C1.39454 29.9165 0.00152588 31.3096 0.00152588 33.0219V49.8945C0.00152588 51.6069 1.39454 53 3.10689 53H13.0442C14.4989 53 15.7227 51.9942 16.058 50.6419L17.2888 51.7153C18.239 52.5438 19.4564 53.0001 20.7171 53.0001H51.965C52.5366 53.0001 53.0002 52.5366 53.0002 51.9649V1.03516C53 0.760633 52.8911 0.497289 52.697 0.303197ZM14.0791 49.8946C14.0791 50.4653 13.6148 50.9298 13.044 50.9298H3.10679C2.536 50.9298 2.07163 50.4654 2.07163 49.8946V33.022C2.07163 32.4512 2.536 31.9868 3.10679 31.9868H7.04028V43.9113C7.04028 44.4829 7.50382 44.9465 8.07543 44.9465C8.64705 44.9465 9.11059 44.4829 9.11059 43.9113V31.9868H13.0441C13.6149 31.9868 14.0792 32.4512 14.0792 33.022V49.8946H14.0791ZM17.1891 8.35775L25.4655 6.14003V9.9758L24.7718 10.1617C24.5065 10.2328 24.2805 10.4062 24.1432 10.644C24.006 10.8818 23.9687 11.1643 24.0398 11.4295C24.4376 12.914 23.5535 14.4453 22.069 14.8431C21.8035 14.9143 21.5771 15.088 21.4399 15.3263C21.3028 15.5645 21.2658 15.8475 21.3375 16.1129L25.3725 31.0542H23.2949L22.2243 26.8655C22.1902 26.7322 22.1306 26.6093 22.0508 26.5025L17.1891 8.35775ZM25.4655 14.7229V23.4577L23.5775 16.4667C24.3662 16.0595 25.0116 15.4502 25.4655 14.7229ZM40.337 50.9297H20.7169C19.9565 50.9297 19.2223 50.6545 18.6492 50.1549L16.1494 47.9747V33.6578L20.6687 29.1385L21.4884 32.3454C21.6055 32.8037 22.0183 33.1242 22.4912 33.1242L42.8428 33.1254C43.642 33.1254 44.292 33.7755 44.292 34.5746C44.292 35.3738 43.642 36.0238 42.8428 36.0238H32.4146C31.843 36.0238 31.3795 36.4874 31.3795 37.059C31.3795 37.6306 31.843 38.0942 32.4146 38.0942H46.0829C46.882 38.0942 47.5321 38.7442 47.5321 39.5434C47.5321 40.3425 46.882 40.9926 46.0829 40.9926H32.4146C31.843 40.9926 31.3795 41.4561 31.3795 42.0278C31.3795 42.5994 31.843 43.0629 32.4146 43.0629H43.8679C44.6671 43.0629 45.3172 43.713 45.3172 44.5121C45.3172 45.3113 44.6671 45.9613 43.8679 45.9613H32.4146C31.843 45.9613 31.3795 46.4249 31.3795 46.9965C31.3795 47.5681 31.843 48.0317 32.4146 48.0317H40.337C41.1362 48.0317 41.7862 48.6817 41.7862 49.4809C41.7861 50.2796 41.136 50.9297 40.337 50.9297ZM50.9299 50.9297H50.9298H43.543C43.7437 50.4874 43.8564 49.997 43.8564 49.4805C43.8564 48.9639 43.7437 48.4736 43.543 48.0312H43.8679C45.8085 48.0312 47.3874 46.4524 47.3874 44.5118C47.3874 43.9458 47.2523 43.4109 47.0138 42.9366C48.504 42.5273 49.6022 41.1614 49.6022 39.5432C49.6022 38.7581 49.3436 38.0324 48.9075 37.4465V24.3269C48.9075 23.7553 48.4439 23.2917 47.8723 23.2917C47.3007 23.2917 46.8372 23.7553 46.8372 24.3269V36.1061C46.5939 36.0528 46.3416 36.0238 46.0826 36.0238H46.0487C46.2494 35.5815 46.3621 35.0912 46.3621 34.5746C46.3621 32.6339 44.7833 31.0552 42.8427 31.0552H41.1787C42.9456 30.2975 44.1866 28.5412 44.1866 26.5C44.1866 23.7683 41.9643 21.5459 39.2326 21.5459C36.501 21.5459 34.2787 23.7683 34.2787 26.5C34.2787 28.5412 35.5197 30.2975 37.2865 31.0552H31.628V11.3725C33.4772 10.9696 34.9364 9.5105 35.3393 7.66119H43.1258C43.5287 9.5105 44.9879 10.9696 46.8371 11.3725V14.5908C46.8371 15.1625 47.3006 15.626 47.8722 15.626C48.4438 15.626 48.9074 15.1625 48.9074 14.5908V10.4483C48.9074 9.87674 48.4438 9.41319 47.8722 9.41319C46.3353 9.41319 45.0852 8.16283 45.0852 6.62604C45.0852 6.05442 44.6216 5.59088 44.05 5.59088H34.4152C33.8436 5.59088 33.38 6.05442 33.38 6.62604C33.38 8.16293 32.1298 9.41319 30.593 9.41319C30.0214 9.41319 29.5578 9.87674 29.5578 10.4483V31.0551H27.536V2.07145L50.9299 2.07031V50.9297ZM39.2328 29.3837C37.6427 29.3837 36.3492 28.0901 36.3492 26.5001C36.3492 24.9101 37.6428 23.6164 39.2328 23.6164C40.8228 23.6164 42.1164 24.91 42.1164 26.5C42.1164 28.09 40.8229 29.3837 39.2328 29.3837Z" fill="#476ED3"/>
</g>
<defs>
<clipPath id="clip0">
<rect width="53" height="53" fill="white"/>
</clipPath>
</defs>
</svg>
